/* XPM */
static char *result[] = {
/* columns rows colors chars-per-pixel */
"65 65 81 1 ",
"  c #14295D",
". c #EDDE1F",
"X c #EEE23A",
"o c #96DC45",
"O c #99DC47",
"+ c #9CDD4A",
"@ c #9EDF50",
"# c #A2DC4E",
"$ c #A6DC51",
"% c #A8DD55",
"& c #ACDE5B",
"* c #9DE04F",
"= c #9EE051",
"- c #A1E155",
"; c #A5E35B",
": c #A8E45E",
"> c #8DCB66",
", c #90CD67",
"< c #92CE68",
"1 c #94D167",
"2 c #95D16A",
"3 c #9BD56D",
"4 c #9FD96E",
"5 c #AFDF60",
"6 c #A1DA6D",
"7 c #B0DF62",
"8 c #A4DB71",
"9 c #AADE74",
"0 c #ACE564",
"q c #AEE669",
"w c #B2E064",
"e c #B1E66B",
"r c #B8E26E",
"t c #B3E86E",
"y c #ADE174",
"u c #B2E674",
"i c #BCE373",
"p c #B6E972",
"a c #B9EA76",
"s c #B5E67A",
"d c #B7E87B",
"f c #BDEC7D",
"g c #EFE342",
"h c #F0E555",
"j c #C2E57D",
"k c #F1E761",
"l c #F2E86A",
"z c #F2EB7D",
"x c #4C88F9",
"c c #C7E684",
"v c #C8E787",
"b c #C6EB86",
"n c #C9E788",
"m c #CBE88B",
"M c #CFEA93",
"N c #D2EA96",
"B c #D5EB9C",
"V c #F3EB82",
"C c #F3ED93",
"Z c #F4EF9C",
"A c #D7EFA1",
"S c #DAEDA3",
"D c #DEEEAA",
"F c #DFF2AE",
"G c #E1EEAD",
"H c #F1EFA5",
"J c #F4F0A4",
"K c #E3EFB1",
"L c #E6F1B5",
"P c #E7F1B8",
"I c #EAF1BA",
"U c #F4F2B3",
"Y c #F4F2BA",
"T c #8FD5FF",
"R c #AAE9FD",
"E c #EFF5C5",
"W c #F2F4C5",
"Q c #F4F5CC",
"! c #F8F6D3",
"~ c #D0FFFF",
"^ c #FDFFFF",
/* pixels */
"6<>>>>>>>>>>>>>>>>>>>>>>>>>>>>>>>>>>>>>>>>>>>>>>>>>>>>>>>>>>>>>>>",
"2<>>>>>>>>>>>>>>>>>>>>>>>>>>>>>>>>>>>>>>>>>>>>>>>>>>>>>>>>>>>>>>>",
"<>>>>>>>><<2223333332211<<<1<1<1<<1<<<<11<111<2<2<1<,,>>>>>>>>>>>",
",,>>>,<<<3686y6yyyyyy668888888888888888888888884448432212,,,>>>>>",
">>>>><39ufpeq:::0qqqqqqpf^^^^^^^^^^^^fffffffffp0qqpppfyy8843,,>>>",
">>>><9sut0;+****+++@@^^^^tfffpp0:;=$=^^^ppfbfp:++@+==;0qudsy82>>>",
">>>,3uu:%=+O+#O++++^^++O+;pfp0==OO+O+O++^^^pfq@o+++++++$:effs3,>>",
">>><8u:ooo+######^^####+OOtdqOo+++++++++Oo=^fq++##+#+++OO-qdf4,>>",
">>><8u;O+$$$$$$$$^^$$$$$#+0e;O##$$$$@$$$++O^q0++$$$$$$$#+o+0f82,>",
">>><8q;o$$$$$$$$$$$^^$$$#O:e;O~~~~~~~~~$^^^o00=+#$$%$$$$#++;fy2>>",
">>><8s0o#$$$$$55$~~$$^^^^o~~~~xxxxTTT^^^~~#o@%++$$$$$$$$$#+=fy2,>",
">>><8d0++$$$$&cc~TT~~~~~~^^^^^^^^^^^^RRTTT~~+++##$$%$$$$$#+@d93>>",
">>><8du$O#%%%iK~TRRTTTTTTTTTxTRRRRRRRRRRRRTT~~o+$$$%$$$$$$+=py3>>",
">>><8da0o##%%rK~TRRRRRTTxxxxTxxxxTTTTTRRRRRRTT~O#$$$$$$$$#+*ay3>>",
">>><6sa0o#57iiK~TRRRTTRRRTxxxTRRRRRRRRTRRRRRRRT~O##$$$$$$$+*ey3>>",
">>><6dp:o#7MSBIY~TTTRRRRRRxxTRRRRRRRRRRTTTRRRRT~+O#$$$$$$$+*ey3>>",
">>><3dp0o#nP!QYV~xx^RRRRRRxxTRRRRRRRRRRRRRTRRRRT~+O#$$$$$$++eu3>>",
">>><6dp:o#vP!!C~T^^RR^RRRxTTTxTRRRRRR^R^RRTRRRRT~-O#$$$$$$++eu3>>",
">>><3du;o#wvPQZ~TRRT^^RRxRTTRRxTTR^^^^R^^^RTTTRT~;##$%$$$$#+0y3>>",
">>>>3ft;O#%wm~~xRTTRRRxxTRRRRRRxxTR^^^RRRRRRRRTTx~~O$$$$$$#O;u3>>",
">>>,3dp;O#$&~xxTTRRRRxTTRRRRRRRRRxTRRRRRTTRRRRRRx~~O##$$$$++-u3>>",
">>>,3dp;o#$w~TTTRRRRTx  xRRRRRTxx xRRRRRRRTRRRRxx~~~~#$$$##+-u3>>",
">>>,4dae+o+i~~~xTxxTxxxx RRRRRx    xxxRRTTTTTTxTTxx~x~~#$$#+;y3>>",
">>>18fjp0-;pA~~xTxxTxxxx^RRRRR xxxx^^xTTTTxTTTxTTxxTTxx~##O*ey3>>",
">>>18dfffptaj~~xTxxTxTRR^RRRRRTxxRT^^^xTTTxTxxTTTxxRTxxx~+*-ay3>>",
">>>,8fbfffpq$##~xTTTTxTT^RRRRRRxxTx^^^RxTTxTxxTTTxxRRTTx~O=0fy2>>",
">>><8dfff0-*O#$~xTTx~TxxRRRRRRRxxx^^^RRTxxTxTTTTxRRRRRRxx~pffy2>>",
">>,,8ffa0*o*#$$~xTTx~TRRRRRRRRRTTTTTTRRTxxTTTTTTxRRRRRRTx~bffy3>>",
">>>,8sfp**+##$$~xxxxxTRRRRRRRRRRRRRRRRRxTTTTTTTxTTTRRRRTx~fffy3>>",
">>,,8ddqoO$$$$$~xTTRx~TTRRRRRRRRRRRRRRRRxxTTTTxRRTTTRRRRTx~~fy3>>",
">>>,8ss0o##$$$$~xRRRR~TTRRxxRRTRRRRRRRRTTTxxxxRRRTTTRRRRTx~~b93>>",
">>>,8sp;o###$~~xRRRTxT~~TRRRTTRRRRRRRTTR~~xTTTRRRTTxTRRRTx~~f93>>",
">>><8dp;O#$$$~~xRRRTxxxx~TRRRRRRRRTTTR~~~~xxTTTRRTTxTRRRRx~~fu3>>",
">>><4da0o##$$~~xxxxxTRTT~~xxxxxxxxRRRTTTxx~TxxxTTTTTxTTRRx~~fy3>>",
">>><4dbto+#$$~~xTRRTRR~~~xRRTTTRRRRTTRTTTTx~TTTxxxxxxTTRRx~~b9<>>",
">>><4dftOO#$$~~xRRRTR~~~xRRRRTRRRRRRRRRTRRRx~~TTTRRTxxxxx~#:f93>>",
">>><4sftoO#%$~~xRRRTR~xxTRRRRxRRRRRRRRRRRRRx~~TTTRRRTRRTx~+;f92,>",
">>><yfbtOO#$$~~xRTTTR~xxTTRRRxRRRTTRRRxRRRRx~~RTTRRRTRRRx~+=d92>>",
">>><yfjp++#$$~~xTTTRR~xxTTRRRxTRRTTRRRxTRRTx~~RTTRRRTRRRx~++ey2,>",
">>><sffa0O##$~~xTRRRR~xxTRRRRxTRRRRRRRxTTTTx~~RRxTTRTTTRx~+=p82>>",
">>>2sfffp-*+#~~xRRRRx~xxTTTTTxTTTTTTTTxTRRTx~~RRRxxRRTTTx~O=p83>>",
">>>2dffbf0*o+~~xRRRRx~xxTTTTTxTTTTTTTT~xRRRx~~xRRxxRRRRTx~*:f92>>",
">>>2ffffae-++*:~xRRTx~~~xxxxxTxxxxxxx~~xRRRx~~~xTTTxRRRRx~;ef82,>",
">>>2ffp=-000wta~xTTTx~xx~~xxTTTTTRTTT~xTRRRx~~#~xTTxRRRRx~fff82>>",
">>>2du0*O+*;tfp:~xxTx~xxR~xxTRxRRRRTT~xTRRRx~~$#~xxxTRRx~fffb82,>",
">>>2ft*o++O+:fp:O~~x~~xx~xTTTRxRRRRTT~xTRRTx~~$$$~~xTTTx~bfff82>>",
">>>2d0**$#+O+ep:o+#~$~xx~xTTTTTRRRTTT~xRRRTx~~$$$~~xTxx~fffff82>>",
">>>2d;*+$$$#O-p0+oOOO+~~~xTTTTTRRTTTT~xRTTx~w$$$$$$~x~~qa0qpf82>>",
">>>2d;++$$$#++0p0-#*+*oo~~xxTxTTTxTTTT~xxx~Nw$$$$$$$~o-0-++=q62>>",
">>>2d;@+$%$$#O;eatt00000:~xxRTxxxTTRRx~~~~QAj5$$$$#+o*;;OOO+:42>>",
">>>2s0++$$$$#++-0aajjffft;~~xRTTTRRRRx~ClzYPGj&$$$#O*;;$o#++-42>>",
">>>2sq%+$$$$$#+o+;tajjff0O~~xRRTTRRRRx~h.gZQWN&$$+++0q-OO##+;62>>",
">>>1sy;o#$$%$$#+oo+;tjja:O~~xRRTTRRxx~WzXhHGBj$$$++:0-OO#$#*;41>>",
">>>2yp:o#$$$$$$$##o+;tfp;O#$~xRTTRRxx~LUZHYSi&$$$+=q;++###++-42>>",
">>>1yp0o#$$$$$$$$#*o*-ap:o#$~xRTTRx~~iD!EWEBw$$$#+%u*++$$$#*-62>>",
">>>2yf0o##$$$$$$###*o*pp:O#$$~xTTRx~~rSWFFKMw$$$++;t+O#$$$#+-63>>",
">>><yd0+O##$$$$%%$$##oep:o#$$~xTTRx~~&jDMbbr&$##**:t+O+$$$#+-83>>",
">>><9fp0Ooo++###++++Ooqp0o+#$~xTTx~$$%&0rfp;###+o-qtOoO+##++;61>>",
">>><4sfp0-++++OOOOOOO*efe+o+++~xxx~+###+0fp=#OOO-qfa;**oOOO*e61<>",
">>>,28sffp0:==+@-=$--:afp0=*++=~~~++O+O+qff0-*-;tfffeq::==-;u1<>>",
">>>>><8sfffffptufdppffffffpqqeaff~e:+o+;pfffapadfffffffffpdu61>>>",
">>>>>><<232222112334488488yyysdddssuqqqydssyy68yy88y89y888322>>>>",
">>>>>>>>>>>>>>>>>>,<<<1<,11334333443333344321<222222222222<>>>>>>",
">>>>>>>>>>>>>>>>>>>>>>>>>>>>>>,>>>>>>>>>>>>>>>>>>>>>>>>>>>>>>>>>>",
">>>>>>>>>>>>>>>>>>>>>>>>>>>>>>>>>>>>>>>>>>>>>>>>>>>>>>>>>>>>>>>>>"
};
