/* XPM */
static char *result[] = {
/* columns rows colors chars-per-pixel */
"65 65 122 2 ",
"   c #281212",
".  c #172436",
"X  c #3B2130",
"o  c #302933",
"O  c #36333B",
"+  c #3B383B",
"@  c #4D193D",
"#  c #641224",
"$  c #5C4D3B",
"%  c #21334A",
"&  c #48404A",
"*  c #4A4F5C",
"=  c #57515B",
"-  c #61525C",
";  c #696E73",
":  c #6E797B",
">  c #833E3D",
",  c #AF403D",
"<  c #FC6736",
"1  c #9A265F",
"2  c #9F5552",
"3  c #8D7667",
"4  c #D54F7B",
"5  c #ECDC0F",
"6  c #EDDD1B",
"7  c #EEE030",
"8  c #EFE23B",
"9  c #96DC45",
"0  c #99DC47",
"q  c #9CDD4B",
"w  c #9FDF51",
"e  c #A2DC4E",
"r  c #A6DC51",
"t  c #A9DD55",
"y  c #ACDE5B",
"u  c #9DE04F",
"i  c #9EE051",
"p  c #A1E155",
"a  c #A5E35B",
"s  c #A8E35E",
"d  c #8DCB66",
"f  c #90CD67",
"g  c #92CE68",
"h  c #94D167",
"j  c #95D16A",
"k  c #9BD56D",
"l  c #9FD86F",
"z  c #AFDF60",
"x  c #A1DA6D",
"c  c #B0DF62",
"v  c #A4DB71",
"b  c #AADE74",
"n  c #ACE564",
"m  c #AEE669",
"M  c #B2E064",
"N  c #B2E56B",
"B  c #B8E26D",
"V  c #B3E86E",
"C  c #ADE174",
"Z  c #B2E674",
"A  c #BCE373",
"S  c #B6E972",
"D  c #B9EA76",
"F  c #B5E67A",
"G  c #BFE57A",
"H  c #B7E87B",
"J  c #BCEC7C",
"K  c #EFE341",
"L  c #F0E344",
"P  c #F0E44C",
"I  c #F0E554",
"U  c #F1E658",
"Y  c #C2E57D",
"T  c #C0E97E",
"R  c #F1E761",
"E  c #F2E86B",
"W  c #F2EA7A",
"Q  c #697983",
"!  c #837985",
"~  c #ACB1B4",
"^  c #C6A785",
"/  c #E29AA2",
"(  c #FF9DBD",
")  c #BFED80",
"_  c #C6E684",
"`  c #C8E787",
"'  c #C4EC84",
"]  c #CAE789",
"[  c #C9ED8D",
"{  c #CEEC93",
"}  c #D1EA95",
"|  c #D5EC9C",
" . c #D1F09A",
".. c #F3EB82",
"X. c #F4ED8B",
"o. c #F4ED92",
"O. c #F4EF9A",
"+. c #FFD8BC",
"@. c #D7EEA1",
"#. c #D9EDA2",
"$. c #DEEEAA",
"%. c #D7F1A2",
"&. c #DAF1A7",
"*. c #DFF2AE",
"=. c #E1EEAD",
"-. c #F1EFA5",
";. c #E1F1AF",
":. c #F5F0A5",
">. c #F5F1AB",
",. c #E4EFB1",
"<. c #E5F1B5",
"1. c #E7F1B8",
"2. c #EAF1BB",
"3. c #F5F2B5",
"4. c #F4F3BB",
"5. c #EEF3C4",
"6. c #F4F4C4",
"7. c #F4F5CC",
"8. c #F8F5CE",
"9. c #F6F6D0",
"0. c #F8F6D3",
"q. c #FDFDFF",
/* pixels */
"x g d d d d d d d d d d d d d d d d d d d d d d d d d d d d d d d d d d d d d d d d d d d d d d d d d d d d d d d d d d d d d d d ",
"j g d d d d d d d d d d d d d d d d d d d d d d d d d d d d d d d d d d d d d d d d d d d d d d d d d d d d d d d d d d d d d d d ",
"g d d d d d d d d g g j j j k k k k k k j j j j h X X X X j j j j j j j j g j j h j j h g j j g j j j g g d d d d d d d d d d d d ",
"f f d d d f f j g k l v m x C C C C C C C x x X $ $ 3 X v v v v l x v l v v v x v v v X X X X X l x x l k j j g j g g d d d d d d ",
"d d d d d g k b F H Z m n n n i n m m m m M X $ 3 3 3 X J J J ) J J D H D H J J X X X $ 3 3 $ n n m S S D H F C b x k k f d d d d ",
"d d d d g b F Z V n a w w q q w q q q i u X $ 3 ^ 3 $ ) J J V n s p p i i a X X $ $ $ 3 $ $ a q q u u i i p s m Z H H F v j d d d ",
"d d d f k Z Z s p w 0 0 O O . . q q q q X $ 3 $ $ X X J S n i i q 0 q 0 q X $ $ 3 3 3 $ $ m p 0 q q 0 q q . . O O N H T H k f d d ",
"d d d g v Z s 9 9 0 q w r w O O . . e X $ $ 3 ^ 3 X N D n 0 9 q 0 q q X X $ $ 3 ^ ^ 3 X D m q 0 e e e . . O O 9 u p n H J l g d d ",
"d d d g v V a 9 q r r r r r r r @ @ @ X $ $ $ 3 3 $ n % % % % % % % X $ $ $ ^ ^ 3 3 $ q V n u O . . @ @ @ r r e 0 9 q n ' v j d d ",
"d d d g v C a 9 r r r r r r r r @ , X $ $ 3 3 ^ 3 $ X * * * * * * X $ $ $ 3 ^ ^ 3 3 $ 9 n s . O @ @ , , @ r r r e 0 0 p J C j d d ",
"d d d g v Z n 0 e r r r r t c c t @ X $ 3 3 ^ ^ 3 $ * * * * * * * X $ $ $ $ $ 3 3 $ e 9 . . O @ , , , @ r r r r r e 0 p J b k d d ",
"d d d g v H n q q e r r r y _ _ c t X $ 3 ^ ^ ^ 3 * * * * * * * * X $ 3 3 3 $ $ 3 $ . . & O @ , < < @ r r r r r r e q p D C k d d ",
"d d d g v H V r 0 e t t t A ,.2.] n X $ 3 ^ 3 3 $ * * : : * * * * X $ 3 3 ^ ^ 3 3 $ X . O @ , < < < @ r r r r r e t q i S C k d d ",
"d d d g v H D n 9 e e t t c ,.9.5.@.X $ 3 3 3 3 * * : : : * * * * X $ 3 3 ^ ^ ^ 3 $ X . @ , , < < < @ r r r r r t e q u S C k d d ",
"d d d g x F D n 9 e z c A A ,.0.8.6.7.$ $ 3 3 * * * : : * * : * * % $ $ $ 3 3 3 3 $ X * . , , < , , e r r r r r r e q u V C k d d ",
"d d d g x F D s 9 e c } #.| 2.4.:.6.8.X $ $ $ % * * : * * * : * * * X $ $ 3 3 3 $ $ X * . < < < < , e r r r r r r r q u N C k d d ",
"d d d g k H D n 9 e _ 2.0.8.4...U o.6.% X X X % * * * * * * * * * % * X X $ $ 3 $ $ X * . < < < < @ 0 r r r r r r r e q N Z k d d ",
"d d d g v H S s 0 e _ 2.0.0.o.K 5 8 @ % * * * % * * * * * * * * * % * * * X $ $ $ X % * * . , < < @ @ e r r r r r r 0 u n Z k d d ",
"d d d g k H Z a 9 e M ` <.9.O.P 6 K @ % * % * . * * * * * * * * * . * * * % X X X % % % * . . . , , @ e r r r r r r e u s C k d d ",
"d d d d k H V a 0 e t M ] 6.4.X.. O % * * % . / . . . . . . . . . / % * * % * * * * % % * . @ @ . . . O . r r r r r e 0 a Z k d d ",
"d d d d k H S a 9 e r y G 2.8.8.6.7.% * * .     2 +.+.+.+./ 2   2 2 / % % % * * % * * % % . @ , @ @ s 9 e e r r r r q q p Z k d d ",
"d d d g k H S a 9 e r M { 7.8.7.7.0.% * % 2 1 1 q.+.+.+.    1 1 1 q.  / / . * * . * * % % . , @ T D m 0 0 e r r r r e q a Z l d d ",
"d d d g x H D N q 9 q A ;.7.;.| #.8.% * % 2 4 ( q.+.+.+.+.2 1 ( 4 q.q.    . * . * * % % . , @ s S D D s u 0 e r r r q q s m k d d ",
"d d d j v H J D n p a D  .$.Y B A | % * % / 1 4 q.+.+.+.+.2 1 4 1 q.q.2 2 . * . * * % % . , 9 q p N S V u 0 e e r e 0 w m C k d d ",
"d d d g v H ) ) J V V D T T y r y B . * % 2 2 2 +.+.+.+.+./ = 1 q.q.2 +.+.. * . * * % % . @ q 0 u p V T m u 9 u q 9 u p D C j d d ",
"d d d g v H ) ) J J D m r e r r r r . * % 2 +.+.+.+.+.+.+.+./ / / 2 +.+.+.. * . * * % % . r r e 9 u n { { n u u 0 0 i n J C k d d ",
"d d d g v H J J J m p 0 0 e r r r r . * % 2 / +.+.+.+.+.+.+.+.+.+.+.+.+.+.. * . * * % % . r r r a t A &.5.{ D S S D D J J b j d d ",
"d d d g v D ' J n p 0 0 e r r r r r e * * % 2 +.+.+.+.+.+.+.+.+.+.+.+.+.+.. * . * * % % . r t z | | %.<.7. .J J H J J ' ) C k d d ",
"d d d g x H J V u u e e e e r r r r e . * % 2 / +.+.+.+.+.+./ +.+.+.+.+.+.. * . * * % % . r t M 2.6.6.5.7.%.[ [ ' J J J ) b j f d ",
"d d d g v H J n 9 0 e r r r r r r r 0 . . * % 2 / +.+./ / / +.+.+.+./ . . * * . * * % % . O y B 1.8.7.3.4.<.&.&. .' ' ' ) C k d d ",
"d d d g l H D n 9 e e r r r r r e e 0 p . . . . 2 / +.+.+.+.+./ / / 2 . . * * . * * % % . O B A =.2.O.P ..3.9.7.<.[ ' J ) C j f d ",
"d d d g v H Z a 9 e e r r r r e e 0 q n D T . . p @ @ @ @ @ 2 2 2 2 2 . . * * . * % % . t . . 1.6.3.W 6 I >.9.7.%.J H ) ) C j d d ",
"d d f f v H S s 9 e r r r r e e q u s S H V s a i q 2 / / / / / / / / / / . . . . . . r t ` 2.7.7.4...7 E 3.5.#.@ c B J J b k d d ",
"d d d f l D D n 9 e r r r r e 0 q n D J V a 2 2 2 / +.+.+.+.+.+.+.+.+.+.+./ / 2 0 e r r e Y | #.=.6.>.W -.6.<._ # # @ D ) b k d d ",
"d d d f l F J S 9 0 r r r r e 0 p J T 2 2 2 / +.+.+.+./ 2 / +.+.+.+.+./ / +.+.+./ e r r r r t z _ <.0.7.9.9.2.} < > , # # b j f d ",
"d d d f l H J S 0 0 e r r r e u o & & o 2 @ # +.+.+.+.+.2 +.+.+.+.+.+./ / +.+.+.+./ r r r r r t ` 1.5.| ,.7.6.# < > , > @ b j d d ",
"d d d f v H ) V 9 0 e r r r e & - o - ! o # # +.+.+.+.+.2 +.+.+.+.+.+.+.+./ +.o o o o e r r r p Y #.| A A } | + + + + + @ @ k f d ",
"d d d f v J J S 9 e + + + + + & - ! & - & + + + + + + + + + + + + + + + + + o = - & - o + + + + + + + + + + + ~ ~ ~ ~ ~ + + j d d ",
"d d d j C J T S u + Q Q Q Q ~ & - ! ! & & ~ ~ ~ ~ Q Q Q Q Q Q Q Q Q Q Q Q o ! ! - - & & o Q ~ ~ ~ ~ q.q.~ + Q ~ q.q.q.~ ~ Q + f d ",
"d d d j H J T D n 0 + + + + + o & - - - o + + + + + + + + + + + + + + + + o - ! ! - & & o + + + + + + + + + Q ~ ~ ~ ~ ~ Q Q + d d ",
"d d d j ) ) ) H S i u q e e o & o & - & o X.# # # # 2 2 2 / # , < < # @ @ N o = ! & o o p s s s s a a p i q + ; ; Q ; Q O + j d d ",
"d d f j F ) ) ) J s u 9 0 0 u o - o o o 4.o.# # # # # # 2 2 # , , , # J J D S & & o 9 u u r s s s a a s n s p # > , > > + b j d d ",
"d d d j J J H H D V p q q u s s o & & o 4.4.@ # , , , , , , # # # # J J J D m q e e e 0 e 9 9 9 0 q q i m S V # > , , > # v j d d ",
"d d d j J J N a a n n n N V D m q o o Y #.@ 2 2 # , < < , , , # @ s J S V V V e e r r r e e e e 0 0 9 9 9 n D # < , , , 1 b j d d ",
"d d d j H D s 0 0 q q a V J D s 0 e t B } @ 2 2 @ # , < < , # @ / @ u u u p V y r e r r r r r e e e e e q q n # < , , , # l j d d ",
"d d d j J m i 9 q q q q s D D a 9 e e y @ 2 +.2 2 # # , , # @ / / 2 @ u u M [ G c p r r r r r r e r r e q 9 i # < , , , # a j d d ",
"d d d j H n i q r e q q q m S n 9 q e e 2 / +.+.+.@ # # @ @ / / / 2 @ e e Y <.&.Y N B M s r r r r r r r r q i # < , , > # v j d d ",
"d d d j J s r q r r e q 9 a S m q 0 9 9 2 +.+.+.+./ @ @ @ / / +.+./ 2 r s _ 8.6.| | <.} M r r r r r r r r q i # < , , > # v j d d ",
"d d d j H s q e r r r e q q n D m p e u 2 / +.+.+./ @ 2 / +.+.+.+./ 2 r t Y 6.8.5.5.5.} M r r r r r r r q 0 # < > , , > # x g f d ",
"d d d j F s q e r r r r e 0 p m D V m m @ 2 / +.+.2 @ 9 2 / +.+.+.+.2 @ @ A <.6.>.3.6.#.Y c r r r r e e 9 u # < , , > # s x g d d ",
"d d d j H n u q r r r r e q u p n S D T @ o o O o o @ q o 2 +.+.+./ 2 @ @ { <.o.E ..4.2.=.Y t r r e e 0 i a # < , , > # a x j f d ",
"d d d j H n p 0 r r r r r e q 9 u s V A o - 3 & o o 0 w o 2 / / / & & o o 7.6.R 6 K O.7.6.} z r r q q q n # < > , , > # a x g d d ",
"d d d j C V a 9 e r r r r r e q 9 9 u s o - ! - o o q r r o o & ! ! & o o 7.6.W 8 I -.*.} A r r r q q s n # < , , > # e p x g d d ",
"d d d j C Z a 9 e r r r r r r r e e 9 0 p o - - & o e r r o o - ! ! & & & o <.3.:.:.2.| Y y r r r q p N # < , , > # e 0 a l h d d ",
"d d d j C H n 9 e r r r r r r r e e e 0 u o & & & o w r r r o & - - & & & o $.7.5.5.6.| M r r r e 0 p V # < , , # e e u p x h d d ",
"d d d j C H n q e e r r r r r r r e e 0 9 u & ! & o r r r r r o & & & & & o #.7.*.*.1.{ c r r r e q a # < < , # r r e e p x j d d ",
"d d f g C J n u 0 e e r r r r r r r r e e 9 o - - o e e r r e o & ! ! o o & o =.} ' ' B t r r r u u # # # # # e r r e q p b h g d ",
"d d d g C H S n q 9 9 q q e e e 0 e e 0 9 9 o - - o e e r e q 0 o & - - - & o c S D G a e e e 0 9 p N V q 9 9 0 e e 0 u a x h d d ",
"d d d f k H H D n a q q q q q 0 9 0 0 9 0 e V o - o 0 q q q 0 u o & = - - - o 0 m D D p e 9 0 u p m D D a u u u u 9 0 u n x g d d ",
"d d d f j v H H J V n a i i q i p p p p p s D J o o i u q q p p a o & - - - o q N J H n p u p p V J J J S n s s u u p a Z k g d d ",
"d d d d d g v F J J J J H S V S J D D S H J J J J J S m n V J J J D o & & & o y S J ) D Z V D J J J J J J J J J J D H Z b g d d d ",
"d d d d d d f j j k j j j j h j k j k k x v v l x v b C Z Z F F H H H C m m n C H H F C C C v v C v v C v C b v x v k j g d d d d ",
"d d d d d d d d f d d d d d d d d d d g j g g j h j j k k l l k k l k l k k k l l k k j g j j j j j j j j j j j j j g d d d d d d ",
"d d d d d d d d d d d d d d d d d d d d d d d d d d d d d d d d d d d d d d d d d d d d d d d d d d d f d d d d d d d d d d d d d ",
"d d d d d d d d d d d d d d d d d d d d d d d d d d d d d d d d d d d d d d d d d d d d d d d d d d d d d d d d d d d d d d d d d "
};
