/* XPM */
static char *result[] = {
/* columns rows colors chars-per-pixel */
"65 65 232 2 ",
"   c #271314",
".  c #331818",
"X  c #172436",
"o  c #1B2637",
"O  c #1B293A",
"+  c #272B39",
"@  c #3B2130",
"#  c #312A34",
"$  c #382D3A",
"%  c #2C373A",
"&  c #36333B",
"*  c #3B343D",
"=  c #3A3739",
"-  c #3E232F",
";  c #5D172A",
":  c #4C1A3D",
">  c #431B3C",
",  c #551939",
"<  c #641324",
"1  c #671727",
"2  c #781D26",
"3  c #462A35",
"4  c #4D3A36",
"5  c #473335",
"6  c #57383B",
"7  c #4F2636",
"8  c #76293A",
"9  c #712F33",
"0  c #324A3B",
"q  c #5C4D3B",
"w  c #554539",
"e  c #4A503C",
"r  c #7D543B",
"t  c #4F673D",
"y  c #64703B",
"u  c #242F40",
"i  c #2A2D41",
"p  c #21334A",
"a  c #293749",
"s  c #3C3B44",
"d  c #313E51",
"f  c #1F3047",
"g  c #592745",
"h  c #443C45",
"j  c #443A47",
"k  c #593C42",
"l  c #6B354B",
"z  c #334949",
"x  c #3B4555",
"c  c #49414B",
"v  c #464548",
"b  c #584549",
"n  c #4A4F5C",
"m  c #4A4952",
"M  c #554954",
"N  c #564A54",
"B  c #5A545B",
"V  c #4A584D",
"C  c #685745",
"Z  c #715F4E",
"A  c #754657",
"S  c #61525C",
"D  c #6F4A4C",
"F  c #576447",
"G  c #577144",
"H  c #667645",
"J  c #786555",
"K  c #726F4E",
"L  c #5A5B62",
"P  c #4F5460",
"I  c #685A65",
"U  c #725D60",
"Y  c #5B656C",
"T  c #5D6971",
"R  c #69676B",
"E  c #666E74",
"W  c #766A75",
"Q  c #6D797C",
"!  c #79777C",
"~  c #776A68",
"^  c #863E3D",
"/  c #993B3C",
"(  c #8C292D",
")  c #A53D3C",
"_  c #AC3F3D",
"`  c #AD3B2D",
"'  c #95443C",
"]  c #AF403D",
"[  c #A7443C",
"{  c #B54B3B",
"}  c #C94D3A",
"|  c #D95538",
" . c #C85134",
".. c #E85C35",
"X. c #FC6736",
"o. c #F56336",
"O. c #EB6336",
"+. c #9A275F",
"@. c #8E2E5E",
"#. c #894B4D",
"$. c #9E5552",
"%. c #9B5851",
"&. c #944D4F",
"*. c #A55B59",
"=. c #846F5B",
"-. c #8D7667",
";. c #887262",
":. c #946E6F",
">. c #AD6362",
",. c #B77672",
"<. c #B2726D",
"1. c #9B506F",
"2. c #CE4C77",
"3. c #C37A7D",
"4. c #7D9B57",
"5. c #728C49",
"6. c #7DA65B",
"7. c #75A742",
"8. c #E6D925",
"9. c #83965B",
"0. c #83934F",
"q. c #87B648",
"w. c #8CB153",
"e. c #99816E",
"r. c #B6997C",
"t. c #AC8E6D",
"y. c #92B864",
"u. c #A1A35C",
"i. c #CD897B",
"p. c #C2B073",
"a. c #EC8678",
"s. c #94C64C",
"d. c #96DC45",
"f. c #99DC47",
"g. c #9CDD4B",
"h. c #9DD34C",
"j. c #9EDF50",
"k. c #92C64E",
"l. c #A2DC4E",
"z. c #A0D34F",
"x. c #A6DC51",
"c. c #A8DD55",
"v. c #ACDE5B",
"b. c #A0D550",
"n. c #9DE04F",
"m. c #9FE051",
"M. c #A1E155",
"N. c #A5E35B",
"B. c #A9E35E",
"V. c #8DCB66",
"C. c #90CD67",
"Z. c #92CE68",
"A. c #9AC56D",
"S. c #95D16A",
"D. c #9BD46D",
"F. c #9AD56B",
"G. c #98CA72",
"H. c #A1DA6D",
"J. c #AAD865",
"K. c #A4DB71",
"L. c #A9DE74",
"P. c #AAD374",
"I. c #B6DA6F",
"U. c #ACE564",
"Y. c #AEE669",
"T. c #B2E065",
"R. c #B2E66B",
"E. c #B3E86E",
"W. c #B8E26E",
"Q. c #ADE174",
"!. c #B2E574",
"~. c #B6E972",
"^. c #B9EA76",
"/. c #B5E67A",
"(. c #B7E87B",
"). c #BDEC7D",
"_. c #BDE375",
"`. c #F0E44A",
"'. c #C1E67D",
"]. c #E9E175",
"[. c #697983",
"{. c #837985",
"}. c #A97983",
"|. c #C87F83",
" X c #7F8184",
".X c #8A8D90",
"XX c #B4928B",
"oX c #BDAF87",
"OX c #ACB1B4",
"+X c #AAACB1",
"@X c #9BA0A3",
"#X c #D99399",
"$X c #CD8C8F",
"%X c #C8A988",
"&X c #E29BA2",
"*X c #FB96B7",
"=X c #D7B9A5",
"-X c #EAAAA9",
";X c #EDB2AC",
":X c #F2BCB1",
">X c #F0B8AE",
",X c #B2C499",
"<X c #C2C39C",
"1X c #C5E684",
"2X c #C8EA89",
"3X c #CEE993",
"4X c #D4EB9A",
"5X c #D1F09A",
"6X c #F4ED8E",
"7X c #D3CFAF",
"8X c #F5C3B3",
"9X c #F9CBB6",
"0X c #FED4BB",
"qX c #FFD8BC",
"wX c #FAD2B7",
"eX c #DAEDA3",
"rX c #D9F1A5",
"tX c #F6F1AA",
"yX c #E5EEB3",
"uX c #E5F1B5",
"iX c #E9F2BA",
"pX c #F4F2B9",
"aX c #E4EDAA",
"sX c #EDF3C3",
"dX c #F4F5CC",
"fX c #F4F4C5",
"gX c #F6F6D0",
"hX c #F8F6D3",
"jX c #FCFFFF",
"kX c #F9F4F8",
"lX c #F1E4E4",
"zX c #E4D3D2",
/* pixels */
"H.Z.V.V.V.V.V.V.V.V.V.V.V.V.V.V.V.V.V.V.V.V.V.V.V.V.V.V.V.V.V.V.V.V.V.V.V.V.V.V.V.V.V.V.V.V.V.V.V.V.V.V.V.V.V.V.V.V.V.V.V.V.V.V.V.",
"S.Z.V.V.V.V.V.V.V.V.V.V.V.V.V.V.V.V.V.V.V.V.V.V.V.V.V.V.V.V.V.V.V.V.C.C.V.V.V.V.V.C.V.V.V.V.V.V.V.V.V.V.V.V.V.V.V.V.V.V.V.V.V.V.V.",
"Z.V.V.V.V.V.V.V.V.C.Z.S.F.F.S.D.D.D.F.F.S.S.S.S.Z.Z.6.6.6.6.S.F.Z.Z.S.Z.Z.Z.Z.Z.Z.S.Z.S.Z.S.S.S.S.F.S.Z.C.C.V.C.V.V.V.V.V.V.V.V.V.",
"C.C.V.V.V.C.C.S.S.D.H.K.K.H.Q.Q.Q.Q.Q.Q.Q.H.D.K.4.w.5 k @ F K.K.H.H.K.H.K.K.K.K.K.K.K.9.9.9.4.4.D.D.K.D.D.F.Z.Z.Z.Z.C.C.V.V.V.V.V.",
"V.V.V.V.V.Z.D.L./.).^.R.U.U.N.U.U.Y.Y.Y.R.Y.Y.9.5 Z Z -.@ ).).'._.^.^.^._.^.).1X0.9.9.5 b b 5 H U.R.E.~.^.^.!.Q.Q.K.H.F.C.V.V.V.V.",
"V.V.V.V.Z.L./.!.Y.U.M.g.n.g.n.f.g.g.g.m.n.n.H 4 J t.-.Z 9.^.E.Y.U.N.M.M.M.N.H 5.4 4 6 Z J J 0.g.n.n.n.M.M.M.B.Y.Q.(.(.~.L.Z.V.V.V.",
"V.V.V.C.D.!.!.B.M.j.g.f.g.g.f.G G t t d.f.y 4 J Z =.k 3 !.B.M.n.n.d.f.f.f.y w 4 J J =.Z q w.m.f.n.d.f.f.g.g.g.M.m.E.^.).(.F.V.V.V.",
"V.V.V.Z.K.!.B.d.f.f.g.g.x.x.b.q.q.% + t q 4 q -.t.~ @ y.J.g.f.f.g.f.f.n.q w q J r.r.;.5 y.T.l.f.l.l.l.l.l.g.g.d.n.m.Y.^.V V V F V.",
"V.V.V.Z.K.E.N.d.b.x.x.x.x.x.x.x.x.w.+ # @ q =.-.Z C @ R.B.d.l.b.l.x.x.q w q q C Z e.-.q.R.U.n.g.x.x.x.x.x.x.x.l.n.d.0 z % % w.6.V.",
"V.V.V.Z.K.Q.N.f.x.x.x.x.x.x.x.x.x.x.s.: @ q C q ;.;.w Y.z z z z z z z @ q q r.r.;.-.q d.U.B.n.f.l.x.x.x.x.x.x.l.0 % & & o A.S.V.V.",
"V.V.V.Z.K.^.B.f.l.x.x.x.c.c.T.B.c.x.x.@ q q ;.-.p.:.q $ n n n n n n @ q q ;.%X%X-.-.q f.M.M.g.g.x.x.x.c.x.x.= + X : : : Q.Q.S.V.V.",
"V.V.V.Z.K./.Y.g.g.l.x.x.x.v.1X1XT.x.c.@ q -.-.%X%X-.q n n n n n n n @ q q q q -.-.q l.l.g.g.g.g.x.x.x.b.h.o 3 , > [ _ : (.Q.D.V.V.",
"V.V.V.Z.K.(.R.m.d.x.x.x.c.W.yXuX1XT.T.@ q -.%Xp.oX=.n n P P n n n n @ q -.-.C C -.q o k.d.d.d.g.x.x.s.+ O * , $.{ ) k j.(.Q.F.V.V.",
"V.V.V.C.K.(.^.U.d.l.x.x.c.W.yXgXsXeXiX@ q -.XX-.;.b n L Q Q n n n n @ q -.%X%X-.-.q @ X d.d.d.n.q.w.O h 5 , } X.X.: h.m.^.Q.D.V.V.",
"V.V.V.Z.K./.^.B.d.l.c.T.W.'.yXgXfXfXdXJ q =.-.-.~ n n Q Q E n L n n # q J r.r.r.-.q - + 7.g.j.7.& j j 3 8 _ X.X.X.: g.g.E.Q.D.V.V.",
"V.V.V.Z.H._.^.B.d.l.'.3X4X4XiXpXtXfXgXiX4 w J J x n n Q T n n [.n n d 4 C -.-.-.J q - n X j.4.& h j 8 l ] _ X.| | Z g.n.R.Q.D.V.V.",
"V.V.V.Z.D.(.^.U.d.l.1XiXhXgXpX6X`.6XpXiX& 4 4 4 p n n Y n n n Y n n x j 5 J J -.q q @ n X m.s j S + ] ] | } X.| ] c.g.g.R.Q.F.V.V.",
"V.V.V.Z.K.(.~.B.d.l.1XiXhXhX6X`.8.`.tXgXp j j j f n n n n n n n n n f n h 5 q J q 5 + n d G & S S * ] | X.X.X.X.l b.g.l.R.!.D.V.V.",
"V.V.V.Z.D./.~.M.d.x.T.1XuXdX6X`.8.`.tXhXp n d n X n n n n n n n n n O n n + 3 3 5 i p d n o & S B ' ] } } } X.X., C l.g.B.!.D.V.V.",
"V.V.V.V.D./.~.N.d.x.c.T.3XsXpX6X`.6XtXY x n p u XXu + + u u u u u u }.d n p x m c m p p n X * W B A A 6 6 $ 6 } / : z.g.N.!.D.V.V.",
"V.V.V.C.D.(.~.M.f.x.x.v._.pXhXfXfXgXiXp n n O   3 #.=X=X=X=X$X#.  #.>.XXp p n n p n n p a X & I s 5 g : : > > # # o e 0 M.Q.D.V.V.",
"V.V.V.C.D.).~.B.f.g.x.U.5XdXhXgXdXhXiXp n a &.> : . 0XqX0X0X*..   . . *.#XX n n p n n p p X & S _ &.) ) ) : _ : : s.s.s.N.!.D.V.V.",
"V.V.V.C.K.(.^.Y.g.f.g.W.aXdXaX5XrXdXsXp n p $.+.+.jXqXqX0X    +.+.+.jX  &XX n n X n n p p X X L _ _ X.X._ ] ] : x.x.g.g.B.Y.D.V.V.",
"V.V.V.C.K.).).^.Y.M.M.^.rXrX'.W._.4X4Xp n p *.2.*XjXqXqXqX0X$.+.*X2.jXjX. &XX n X n n p p X X B _ X.X.X.o.) 7 l.x.g.g.j.R.Q.D.V.V.",
"V.V.V.Z.K./.1X).^.Y.E.^.'.'.B.x.v.W.T.p n p #X+.2.kXqXqXqXqX>.@.2.1.jXlX>.-XX n X n n p p X X c ] _ X.X.] w n.n.g.f.n.m.^.Q.F.V.V.",
"V.V.V.Z.Q.(.1X).2X^.~.Y.x.x.l.x.x.x.x.X n p $.<.,.qXqXqXqXqX-XW 2.lXzX,.qXqXX n X n n p p X X h ] _ X.X./ B.n.n.n.g.n.U.).Q.F.V.V.",
"V.V.V.Z.H.(.).1X).Y.M.n.f.l.x.x.x.x.x.X n p $.8XqXqXqXqXqXqX0X;X-X-X}.qXqXqXX n X n n p p X X & ] ] X...~ 3X~.E.R.~.^.).1XQ.F.V.V.",
"V.V.V.C.Q.(.).^.U.n.d.d.l.x.x.x.x.x.M.t n d D |.qXqXqXqXqXqXqX0X0X0XqXqXqXqXX n X n n p p X X & ] ] | _ dX5X2X).^.).).2X(.Q.S.V.V.",
"V.V.V.C.K.(.).~.n.n.n.g.l.x.x.x.x.x.l.f.s n p %.8XqXqXqXqXqXqX:XqXqX0X0XqX>XX n X n n p p X X & 9 ] ] 8 dXrX2X2X2X^.^.2X1XQ.F.V.V.",
"V.V.V.Z.H.(.).U.d.n.l.x.x.x.x.x.x.x.f.n.X a x c <.;XqX0X;X;X;X:XqXqX0X;X;XI d n X n n p p X X & s ] $.: pXuXrXrX2X2X2X).).Q.F.V.V.",
"V.V.V.C.K./.(.U.d.n.g.x.x.x.x.x.x.l.d.M.w.X u O 5 <.-X0X9X8X8X0X;X;X;X<.>.X n n X n n p p X % O O - 9 $ K pXgXdXuX2X2X(.2XQ.F.V.V.",
"V.V.V.Z.K./.~.N.d.n.x.x.x.x.x.l.g.n.n.N.(.A.y.y.q.& l A A A A <.>.>.>.$.g X n n X n a p O M & X <X=Xo + % uXgXdX5X2X^.(.1XQ.F.V.V.",
"V.V.V.V.K.(.~.N.d.l.x.x.x.x.x.l.g.m.B.~.).E.N.M.m.k.k.&.#X$X$X#X#X#X#X#X&.&.O O X O O X N s X 7XgXfX].8.o s sXeX_.T.E.).).Q.D.C.V.",
"V.V.V.V.D.^.^.Y.d.l.x.x.x.x.l.g.g.U.^.^.E.N.n.f.%.%.&X0X0X0X0XqX0XwX0XqX9XwXwX#X#X%.& B s X 3XeXyXsXwX1XaXiXyX1Xx.l.B.~.'.Q.F.V.V.",
"V.V.V.V.H.(.'.E.d.f.l.x.x.x.l.l.M.).1X_.v.$.&X&XqXqXqX0X9X0XqXqX0XqX0XqXqXqXqXqX&X&X& % o x.c.v.1XuXdXdXdXgXiX3Xc.f.b.Y.1XL.S.C.V.",
"V.V.V.y.G.P.P.H.f.f.l.c.s.s.s.s.Y.I.I.$.&.$XqXqXqXqXqX#X>.&XqXqXqXqX&XwXwXqXqXqXqX&X% % x.x.c.c.2XiXsX4XyXdXfXeXc.l.g.U.1XQ.S.V.V.",
"V.V.V.V T m m x q.q.q.q.* j c h y.#.#.$.; < 0XqXqXqXqX%.-X0XqXqXqXqX-X&X%X9XqXqXqX&Xn.j.l.x.x.x.'.4X4X_._.3X4X2Xc.g.n.m.(.Q.S.V.V.",
"V.V.V.S.V T Y Y B R L c S j N W & # - D < ( 8X0XqXqX9X%.qXqX$X%XqXqX0X&Xx.&XqXqXqX&Xd.d.g.l.l.l.T._._.x.x.T.W.T.x.x.d.n.^.Q.F.V.V.",
"V.V.V.S.Q.5.5.5.+X4..Xh S {.B M v & # # < | a.qX0X:X|.,.qXqX< ( $XwX8Xi.f.}.XXXXXX,.n.n.n.d.n.d.h.g.l.l.l.l.l.x.x.x.n.n.E.K.S.V.V.",
"V.V.V.S.Q.1X1X^.B.H 5.= M W W M * W V = 7 r [ $X,.3.&.|.>X,.( | ( ,.&Xl d.j h v v 5 M.U.B.M.n.n.d.d.d.d.f.g.l.l.x.x.n.n.E.Q.S.V.V.",
"V.V.V.S./.).1X).~.n.n.5.= M S M # R P = L ! ! 9 5 q D $.&X< ] X.| < 1.5.H N W S M # g.N.B.B.B.K B.B.M.M.n.n.d.n.l.g.n.n.~.Q.C.V.V.",
"V.V.V.S.(.).1X).).U.n.d.7.& s & # v j s n R T  X.XOX=Xk U 3 6 } } ; $ K h S {.m h # f.g.g.l.r ; K M.B.B.B.B.M.n.f.f.n.B.).Q.S.V.V.",
"V.V.V.S.).).^.^.^.E.M.g.f.q.w.w.w.= & oX<X<Xp.F B ~ E .X.X.XT 6 6 > N B c S I c # q.l.f.f.n.| 9 < q n.g.U.^.E.B.M.n.N.~.).Q.S.V.V.",
"V.V.V.S.).).E.N.M.U.U.U.T.E.^.U.g.w.k.1XrXhXhX7X7 1 @.M M n v E # W ! S S c c c # x.x.x.l.9 ' ) ) < d.d.n.B.^.^.^.~.^.'.).K.S.V.V.",
"V.V.V.S.).E.U.n.f.n.g.M.E.).^.U.f.l.x.W.5XdXfXg $.: 1 ) O.O.) h # S {.:.L c c # = e e = 1 O.^ < ^ < l.g.n.n.N.'.).).).).1XH.S.V.V.",
"V.V.V.S.(.E.n.d.l.g.f.n.B.^.~.B.f.l.x.B._.4X3X%.&XqX< < ] ] < : &X# S {.c # # OX+X* [.+XQ = : E = ^ x.x.g.d.m.~.).).).2X(.Q.S.V.V.",
"V.V.V.S.^.B.n.n.x.l.l.f.n.Y.E.B.f.l.l.l.l.T.c.$.0XqXg < < : g &XqXqXM c = ).v v v v = Q OXkXkXkXOXh : x.m.n.n.E.).).^.).1XK.S.V.V.",
"V.V.V.S.).N.n.n.x.x.l.g.f.M.E.R.f.d.d.f.f.f.g.$.wXqXqXl : l -XqXqXqX&X$.c.1XdXfX4X4X( R @X+XOX+X+X[.= x.m.n.m.Y.^.Y.Y.E.(.K.S.V.V.",
"V.V.V.F.).B.g.j.x.x.x.l.g.f.R.~.U.M.l.g.g.n.n.#.$X8XqXqXl &XwXqXqXqX$X#.x.'.fXfXuX=X| ' U [.@XY Y Y F l.g.f.M.U.x.g.g.m.Y.H.F.V.V.",
"V.V.V.S.^.B.g.g.x.x.x.x.l.f.M.R.~.E.E.U.U.U.Y.: D <.XXXXl |.0X0XqX:X$.: x.'.uXpXp.( ' ] @.U L 3 G H l.g.d.n.N.B.f.f.f.n.B.D.S.V.V.",
"V.V.V.S./.B.n.g.x.x.x.x.x.g.g.M.U.^.^.'.'.).).5.# h B * # $.:X:X:X:.D 7 '.2XaXt.`  .] ] { 9 7 K x.x.l.f.g.N.N.j.d.g.g.g.M.H.S.V.V.",
"V.V.V.S./.Y.M.g.x.x.x.c.x.b.f.d.n.B.E.^.'.'.).).# S {.N # k :.:.XXR c # uXdX<.` { / ] ] [ 9 ; x.x.l.f.g.U.Y.N.d.g.l.l.g.N.D.S.V.V.",
"V.V.V.Z.Q.!.M.d.x.x.x.x.x.x.l.g.d.d.g.B.E.'.).^.4.5 R S 5 # # N {.{.j j ~ -. .{ [ ] ] ' 2 , 0.x.x.g.g.B.Y.m.d.g.l.l.l.n.M.F.F.V.V.",
"V.V.V.S.Q.!.N.d.l.x.x.x.x.x.x.x.l.l.f.f.B.E.^.^.N.# c M c # # m I R j j #  .{ / ] ] 8 1 u.w.x.x.l.g.m.Y.N.g.g.x.l.l.l.f.N.H.S.V.V.",
"V.V.V.S.Q.(.B.d.l.l.x.x.x.x.x.x.l.l.f.d.n.M.^.^.N.7.v ! c # q.$ c M M ; | [ [ ] ] ' <Xp.T.l.x.x.l.f.c.~.m.f.g.x.x.x.l.n.M.H.F.V.V.",
"V.V.V.Z.Q.).U.n.l.x.x.x.x.x.x.x.x.x.l.n.d.n.~.^.U.n.# S B # x.# j ; 1 ../ &._ ' 1 1 iX4XT.x.x.x.l.g.M.~.f.g.l.x.x.x.l.n.M.H.S.V.V.",
"V.V.V.Z.Q.).U.f.f.l.l.l.x.x.x.x.l.x.x.l.l.d.E.E.v.d.# C S # c.z.1 o.o.^ ] _ < < 1 1X1XW.c.x.x.x.f.n.B.E.f.f.g.x.x.x.l.l.M.Y.S.V.V.",
"V.V.V.S.L.(.^.U.f.d.f.d.l.l.l.l.l.f.l.f.f.d.Y.~.U.d.g.- S @ h.< X.@.^ { _ ^ 1 T.~.^.~.N.x.l.g.f.d.M.Y.~.n.d.d.g.l.l.f.g.N.H.S.V.V.",
"V.V.V.Z.D./.^.^.U.M.n.n.f.f.f.f.f.f.f.f.f.n.E.^.Y.g.h.s.2 2 < o.[ ` ) 9 1 < g.f.Y.^.(.m.g.g.d.n.M.Y.^.^.N.n.n.d.f.f.f.m.Y.H.Z.V.V.",
"V.V.V.V.Z.Q./.).).~.Y.N.M.m.g.M.M.M.M.m.M.B.^.'.).w.q.< | | / ) ` q 9 ; v # g.g.E.).^.N.m.m.m.N.~.).).).E.U.U.N.m.m.m.N.!.F.Z.V.V.",
"V.V.V.V.V.S.K./.).).).).).~.R.~.^.).^.^.(.).).).'.r r r r r r r Z ^.E.F t t d.M.^.).).1X^.~.^.(.).).).1X).).).).^.^.(.Q.K.Z.V.V.V.",
"V.V.V.V.V.V.C.S.S.S.F.S.S.S.S.S.S.F.D.D.K.H.K.K.H.Q.K.Q.!.!././._.(.!.!.U.J.Y.!.(.(.~.Q.Q.H.K.Q.Q.K.Q.Q.L.L.L.K.K.K.D.S.Z.C.V.V.V.",
"V.V.V.V.V.V.V.V.V.V.V.V.V.V.V.V.V.V.C.V.Z.S.Z.C.S.S.F.F.D.H.D.D.H.D.D.D.D.D.D.D.H.F.F.S.Z.S.S.S.S.Z.C.Z.S.S.S.S.F.S.Z.C.V.V.V.V.V.",
"V.V.V.V.V.V.V.V.V.V.V.V.V.V.V.V.V.V.V.V.V.V.V.V.V.V.V.V.V.V.C.V.V.C.V.V.V.V.V.C.V.V.V.V.V.V.V.V.V.V.V.V.V.V.V.V.V.V.V.V.V.V.V.V.V.",
"V.V.V.V.V.V.V.V.V.V.V.V.V.V.V.V.V.V.V.V.V.V.V.V.V.V.V.V.V.V.V.V.V.V.V.V.V.V.V.V.V.V.V.V.V.V.V.V.V.V.V.V.V.V.V.V.V.V.V.V.V.V.V.V.V."
};
