/* XPM */
static char *_ce537ec946543b1824acb73b434c47aqn9f8XUjCHYoa6DJ[] = {
/* columns rows colors chars-per-pixel */
"65 65 161 2 ",
"   c #ECDC0F",
".  c #EDDD1B",
"X  c #EEDF26",
"o  c #EEDF28",
"O  c #EEE133",
"+  c #EFE23B",
"@  c #96DC45",
"#  c #99DC47",
"$  c #9CDD4A",
"%  c #9EDF50",
"&  c #A2DC4E",
"*  c #A6DC51",
"=  c #A9DD55",
"-  c #ACDE5B",
";  c #9DE04F",
":  c #9FE051",
">  c #A1E155",
",  c #A5E35B",
"<  c #A9E35E",
"1  c #8DCB66",
"2  c #90CD67",
"3  c #92CE68",
"4  c #94D167",
"5  c #95D16A",
"6  c #9BD56D",
"7  c #9FD96E",
"8  c #AFDF60",
"9  c #A1DA6D",
"0  c #B0DF61",
"q  c #A4DB71",
"w  c #AADE74",
"e  c #ACE564",
"r  c #AEE669",
"t  c #B2E165",
"y  c #B2E56B",
"u  c #B8E26E",
"i  c #B8E26E",
"p  c #B1E86B",
"a  c #B1E86C",
"s  c #B2E86D",
"d  c #B3E86C",
"f  c #B2E86E",
"g  c #B4E96F",
"h  c #B3E86E",
"j  c #ABE171",
"k  c #ACE173",
"l  c #ADE273",
"z  c #ABE075",
"x  c #ADE175",
"c  c #ADE274",
"v  c #AEE375",
"b  c #ADE176",
"n  c #ADE175",
"m  c #B1E671",
"M  c #B2E773",
"N  c #B3E674",
"B  c #B3E577",
"V  c #B4E775",
"C  c #B3E573",
"Z  c #B9E270",
"A  c #BCE374",
"S  c #B4E971",
"D  c #B5E972",
"F  c #B5E973",
"G  c #B6E972",
"H  c #B6EA72",
"J  c #B7E974",
"K  c #B7EA75",
"L  c #B6E972",
"P  c #B8EA75",
"I  c #B9EA77",
"U  c #B9EB77",
"Y  c #B8EA76",
"T  c #BAEA77",
"R  c #B9EA76",
"E  c #B2E478",
"W  c #B4E579",
"Q  c #B4E679",
"!  c #B7E77B",
"~  c #B5E67A",
"^  c #BFE478",
"/  c #BFE579",
"(  c #B6E879",
")  c #B7E87A",
"_  c #B7E87B",
"`  c #B8E979",
"'  c #B9EB78",
"]  c #BAEB79",
"[  c #B8E87B",
"{  c #BBEB7B",
"}  c #BCEC7A",
"|  c #BBEB7C",
" . c #BDEB7D",
".. c #BDEC7D",
"X. c #BDEC7C",
"o. c #BEEC7D",
"O. c #BDEC7E",
"+. c #BEEC7E",
"@. c #BFED7F",
"#. c #BDEC7D",
"$. c #EFE341",
"%. c #EFE448",
"&. c #F0E344",
"*. c #F0E44C",
"=. c #F0E555",
"-. c #F1E65A",
";. c #C2E57D",
":. c #C0E97E",
">. c #F1E762",
",. c #F2E86C",
"<. c #F2EA79",
"1. c #BFED80",
"2. c #C7E684",
"3. c #C5E683",
"4. c #C8E787",
"5. c #C3EC84",
"6. c #CBE78B",
"7. c #C9E789",
"8. c #C7EC8B",
"9. c #CDE88F",
"0. c #CAEB8D",
"q. c #CEEB93",
"w. c #D1EA95",
"e. c #D5EC9C",
"r. c #D8EB9F",
"t. c #D1F09A",
"y. c #F3EB82",
"u. c #F4EC8A",
"i. c #F3ED93",
"p. c #F4EF9A",
"a. c #D7EDA0",
"s. c #D9ECA2",
"d. c #DAEDA3",
"f. c #DEEEAA",
"g. c #D7F1A2",
"h. c #DAF1A6",
"j. c #DFF2AE",
"k. c #E1EEAD",
"l. c #F1EFA5",
"z. c #E1F2AF",
"x. c #F4F0A4",
"c. c #F5F1AC",
"v. c #E3EFB1",
"b. c #E3EFB1",
"n. c #E4F0B4",
"m. c #E5F1B5",
"M. c #EDF1B4",
"N. c #E7F1B9",
"B. c #E7F2B9",
"V. c #E8F1B9",
"C. c #EBF2BC",
"Z. c #F4F2B4",
"A. c #F4F3BC",
"S. c #EDF2C1",
"D. c #EEF3C3",
"F. c #F3F4C4",
"G. c #F5F5CF",
"H. c #F4F5CC",
"J. c #F8F5CE",
"K. c #F6F6D1",
"L. c #F8F6D3",
/* pixels */
"9 3 1 1 1 1 1 1 1 1 1 1 1 1 1 1 1 1 1 1 1 1 1 1 1 1 1 1 1 1 1 1 1 1 1 1 1 1 1 1 1 1 1 1 1 1 1 1 1 1 1 1 1 1 1 1 1 1 1 1 1 1 1 1 1 ",
"5 3 1 1 1 1 1 1 1 1 1 1 1 1 1 1 1 1 1 1 1 1 1 1 1 1 1 1 1 1 1 1 1 1 1 1 1 1 1 1 1 1 1 1 1 1 1 1 1 1 1 1 1 1 1 1 1 1 1 1 1 1 1 1 1 ",
"3 1 1 1 1 1 1 1 1 1 5 5 5 6 6 6 6 6 6 6 5 5 5 5 3 3 5 5 3 5 3 5 3 3 5 5 5 3 3 5 3 5 5 5 5 3 3 5 5 3 5 3 2 1 1 1 1 1 1 1 1 1 1 1 1 ",
"2 2 1 1 1 1 3 3 5 6 7 q w 9 j j l l b b w 9 9 9 q q q q q q q w q q 9 q 9 q q q q q q q q q 9 7 7 9 9 9 7 5 5 3 3 3 3 2 1 1 1 1 1 ",
"1 1 1 1 1 3 6 j W | J r e e , e e r r r p r a S T X.5.X.X.X.X.X.X.` U ( ( } X.X.X.X.X.X.1.X.M e r p S J J ` W b w q 9 5 2 1 1 1 1 ",
"1 1 1 1 3 w B B m e > $ ; $ ; # $ $ $ % $ % $ & , g X.X.X.} S e < > > * > > < e f } X.5.1.J , $ $ $ $ : > > < e m ~ ~ E q 3 1 1 1 ",
"1 1 1 2 6 E a e > : $ $ $ $ # $ $ $ $ $ $ $ # # $ > J X.S , > : $ $ # # $ # $ ; > , r T X.p % @ $ $ $ $ $ $ ; > < p T  .! 6 3 1 1 ",
"1 1 1 3 q B < @ @ # $ $ * & * * * & & & & * & & $ $ f U r $ @ $ # $ $ & $ $ $ @ @ # ; r J r $ $ & & $ & & $ $ @ # > r ) 1.7 3 1 1 ",
"1 1 1 3 w m > @ & * * * * * * * * * * * * * * * & ; e d , # & & * * * * * * * * & $ # $ r e % $ * * * * * * * & $ @ % e 1.q 5 1 1 ",
"1 1 1 3 q v < @ & * * * * * * * * * * * * * * * & ; < r , $ & * * * * * * * * * * & $ @ e e % $ * * * * * * * * & $ $ >  .w 5 1 1 ",
"1 1 1 2 q M e # & * * * * * 0 0 = * * * * * * * & @ , r < # & & * * * * * * * * * & & # * : $ $ * * * * * * * * * & $ > | b 6 1 1 ",
"1 1 1 2 w ( e $ $ & * * * - 2.2.0 = = * - * * * & # : r < # $ $ & & * * * * * * * * & $ $ $ $ $ * * * * * * * * * & $ $ ` w 6 1 1 ",
"1 1 1 3 q ! a * # & = * = A m.C.6.< u u - * * * & & ; e r ; ; # $ & * = = = * * * * * & @ @ @ $ & * * * * * * * * * $ : J b 6 1 1 ",
"1 1 1 2 q ! T e # & * * = 0 b.J.D.d.m.b.9.* * * & & ; e X.f > ; @ # $ t ^ A = 8 - * * & # # $ # & * * * * * * * * & $ > S v 6 1 1 ",
"1 1 1 3 9 ! T < @ & - 0 A Z b.L.J.F.J.C.w.* * * & # ; d o.X.U g < $ $ 3.f.d.3.d.7.0 = & # $ % @ # & * * * * * * * * $ $ g l 6 1 1 ",
"1 1 1 2 7 ) T < @ & A 9.s.e.C.A.x.A.J.V.7.* * & $ $ < H @.@.@.:.X.R A a.D.D.b.J.e.0 = * # % e % # # & * * * * * * * $ $ p b 6 1 1 ",
"1 1 1 3 7 ! ` e @ & 7.V.L.H.A.y.-.u.F.B.6.< * & # $ g U U H H T 0.h.m.C.F.H.F.J.w.t = * ; > r a > $ $ * * * * * * * $ $ t m 7 1 1 ",
"1 1 1 2 7 ! J < # & 7.V.L.L.u.&.  + c.K.C.9.= # $ > e e < > ; < ] d.K.K.F.c.i.M.w.i 0 * # > e @.g > $ & * * * * * * $ ; r m 7 1 1 ",
"1 1 1 2 7 ( S , # & t 7.b.H.p.*.. &.c.L.H.f., @ # # $ # ; # $ * - A r.F.p.=.O p.Z.V.e.= # > a @.X., $ & * * * * * * & $ e l 6 1 1 ",
"1 1 1 2 6 ( S , # & * t 9.F.Z.i.,.u.Z.S.j.w.% @ # # # & $ & & & 0 7.z.H.i.&.X p.F.F.k.> # , H 1.:.r & # * * * * * * & # > E 6 1 1 ",
"1 1 1 3 6 ! S , @ & * - A D.L.F.F.J.B.h.8.J $ $ * * & * * * * = 3.b.K.H.c.<.>.Z.C.f.2.$ @ , U :.:.H , ; $ & * * * * & $ > m 7 1 1 ",
"1 1 1 1 6 ! S , @ & & t w.H.J.H.J.L.B.t.J > $ $ * * * * * * * = 9.H.K.F.H.L.K.L.f.i # @ @ > g X.@.} e ; # & * * * * $ $ , l 7 1 1 ",
"1 1 1 2 q ! } r $ @ $ y z.H.z.e.g.J.S.t.S % $ & * * * * * * * * A 9.9.e.S.K.H.K.B.5., ; @ # ; < d o.H < ; $ & & * * $ $ < l 6 1 1 ",
"1 1 1 3 q ` X.T r > , T r.f.;.u A r.w.2.S , $ $ * * * * * * * * = 0 0 q.B.D.j.H.C.t.e ; # # # $ , e d H ; # $ & & & $ % r w 6 1 1 ",
"1 1 1 3 q | 1.X.X.f f J :.;.- * , i t y r e ; $ & * * * * * * * * * = ;.e.f.q.j.z.0.e @ $ $ $ # ; > r 1.t : @ ; $ # ; > U j 6 1 1 ",
"1 1 1 3 q ! 1.1.1.X.T r > & * * & * * * < p ; # & & * * * * * * * * * - 0 / 1.q.0.m $ @ & * * & # ; e q.t.e ; ; # $ : e X.b 5 1 1 ",
"1 1 1 3 q ! X.X.X.r > # # & * * * * * & : t : ; & * * * * * * * * * * * > r X.1.T < @ & * * * & = = A h.S.q.P d y J ` X.X.w 5 1 1 ",
"1 1 1 3 q | 1.} e : # # & * * * * * & $ ; d < ; # * * * * * * * * * * * & , X.1.e % $ * * * * t w.d.g.m.H.t.@.@. .X.X.5.1.b 6 1 1 ",
"1 1 1 1 q ( X.S ; # & & & & * * * * & # > U d > # * * * * * * * * * & & $ > X.T , $ $ * * = = t C.H.D.D.J.g.8.8.5.@.X.5.1.w 6 1 1 ",
"1 1 1 5 q ! } r @ $ & * * * * * * * $ $ e :.o.< # & & * * * * * * * * & # < X.d $ $ & * * = - t V.K.H.Z.A.z.h.h.t.5.5.X.1.b 6 1 1 ",
"1 1 1 1 q ! J e @ & & * * * * * * & # > f @.@.e $ # & & * * * * * * * $ $ < T < $ $ * * * - u A f.A.p.*.<.A.L.H.m.8.5.X.1.b 5 1 1 ",
"1 1 1 3 7 ! J , @ & * * * * * * & # # e X.o.H e > # # # & * * * * * * $ $ < U > $ & * * = 3.b.C.D.Z.<.. =.c.L.H.g.X.]  .1.b 6 1 1 ",
"1 1 1 3 q ( K , @ & * * * * & & $ ; e S ` a e : : ; ; ; # $ & & * * * & $ , R & $ & * * = 4.C.H.H.A.y.O ,.Z.F.s.A 0 a  .:.b 6 1 1 ",
"1 1 1 3 7 ( } e @ & * * * * & $ $ e T X.Z < $ # $ ; , ; $ # # $ & * * & # > g > $ & * * * A w.f.b.F.c.<.l.F.b.3.= * < S 1.b 6 1 1 ",
"1 1 1 3 7 ~ X.S @ # & * * * & $ > X.X.S < * * * : @ ; ; > > ; @ & & * * $ ; e > $ & * * * = = 0 3.b.J.H.G.K.C.w.= $ % r 5.w 5 1 1 ",
"1 1 1 2 7 ! X.S # # & * * * & : e X.} Z t = A q.;.$ # # > r r ; # $ * * & ; , < & $ * & * * * = 7.N.S.e.b.H.D.s.= $ $ e X.w 5 1 1 ",
"1 1 1 2 7 _ 1.S @ & & * * * & & e H ;.w.s.9.d.b.w.* & # % e H , $ # & & $ $ , r > # $ & & * * = ^ d.e.Z ^ w.e.4.= & $ > X.w 6 1 1 ",
"1 1 1 3 z _ 1.S # # & * * * $ : e r A f.H.D.F.D.k.A A A 8 < Z t > # $ & & $ , S , ; $ $ $ $ & & 8 ^ A = = 0 Z 0 = * $ % T z 5 1 1 ",
"1 1 1 3 v X.:.H $ # & * * * $ ; < = u e.H.L.A.F.C.b.C.C.9.= - e < $ @ $ $ ; e X.S , ; $ $ # # # $ $ $ & * * * * * * $ $ p w 5 1 1 ",
"1 1 1 5 ( @.:.T < # & & * & # $ , * t w.A.c.-.,.x.K.K.K.d.- = = = , ; # @ > S X.f , , e < , ; $ @ @ @ @ @ # $ & * * $ % a w 6 1 1 ",
"1 1 1 5 ! 1.1.| H : ; $ & & # ; - ;.s.C.A.u.o *.i.H.b.s./ = * * * < g e e p } r > ; $ > , e , r < , , > : ; # $ $ $ # > T w 5 1 1 ",
"1 1 1 5 ! 1.1.1.@.< ; @ $ # ; > t e.F.H.F.u.O -.p.C.4.Z - * * * & < :.X.U } S > $ @ @ $ & > , , < < , < e < > ; # # ; , } w 5 1 1 ",
"1 1 1 5 | X.| ` K f > $ # ; < < 8 w.k.M.A.A.<.p.A.C.i < * * * & ; , :.o.X.T p $ $ $ & $ # # @ # # # $ : e S f < > $ < S 1.q 5 1 1 ",
"1 1 1 5 | X.f , , < r e r g U t $ , 0 ;.s.L.J.H.J.F.4.8 * * * & ; , @.d p f p & & * * * & & & & # # @ @ @ e S X.T H } X.1.q 5 1 1 ",
"1 1 1 5 | V < $ # $ $ , f } K e @ * - 0 w.J.D.d.d.F.;.8 & & $ # ; ; * ; ; , g - = * * * * * * * & & & & @ $ e } @.@.@.:.X.q 3 1 1 ",
"1 1 1 5 | r > @ $ $ $ $ , K F , @ * * - A e.9.A A 6.t * & # @ ; ; @ @ # $ t 0.] t * * & * * * * & * * & & # > S @.@.@.X.1.w 5 1 1 ",
"1 1 1 5 | e $ $ * & $ $ ; r J e @ $ & & = - = = & * $ @ @ @ @ * ; ; @ & * ;.V.h.:.t y t = * * * * * * * * $ : p } U ` X.5.q 3 1 1 ",
"1 1 1 5 | < $ & * * * $ @ , Z r $ @ @ @ # # # $ @ @ @ @ @ @ @ # ; @ # & , ;.J.F.e.r.m.e.0 * * * * * * * & $ > p U e r S X.q 5 1 1 ",
"1 1 1 5 | < $ & * * * & $ $ r Z r > ; ; ; # ; ; ; ; ; @ @ @ @ @ # & & * = ;.F.J.D.D.F.w.0 * * * * * * * $ # > t > ; # : r 9 5 1 1 ",
"1 1 1 5 ~ , $ $ * * * * & $ > r U g d t e e e e , > ; @ @ @ @ # & & * * = A n.A.c.Z.F.r.;.0 * * * * & & # ; > < @ # # $ , 9 5 1 1 ",
"1 1 1 5 ) e $ $ * * * * & $ ; > r H T :.X.o.} } d > @ @ & & & * * * = t A w.b.p.,.y.A.V.k.;.= * * * & # $ , , > @ & $ ; > 9 5 1 1 ",
"1 1 1 5 ~ r > $ * * * * * & $ @ # < d H :.:.@.} r @ # ; * * * * * * = 7.b.H.F.>.. $.l.J.F.w.0 * * $ $ $ e r > # # & & $ > 9 5 1 1 ",
"1 1 1 3 E m > $ & * * * * * & $ # # $ < g :.X.T < ; & * * * * * * * = e.C.H.F.<.+ =.l.j.w.A * * * $ $ , r > # # & & & $ , 9 5 1 1 ",
"1 1 1 5 b J , @ & * * * * * * * & # # $ > g X.T , @ & * * * * * * * * A 3.e.b.Z.p.c.A.e.;.- * * & $ > p , $ $ & & & & ; > 9 5 1 1 ",
"1 1 1 5 b ` < @ & * * * * * * * * & $ # $ , T H , @ & & * * * * * * * = = / f.H.D.D.D.e.t * * * & $ > S $ $ $ * * * & $ , 9 5 1 1 ",
"1 1 1 3 b ` e $ & & * * * * * * * * & $ # $ H H < ; & & * * * * * * * * * u d.H.j.j.m.q.t * * * & $ , y $ # & * * * & ; > 9 5 1 1 ",
"1 1 1 3 z ! e $ # $ & * * * * * * * * & & @ p S e # & * * * * * * * * * * - ;.f.q.5.5.u = * & & # ; < f # # & & * * & $ > 9 6 1 1 ",
"1 1 1 3 z | J e # # # # $ & & & $ $ $ $ # @ r H e @ $ $ * * $ $ # & $ * * = - t A ` T < & & & $ @ > p f $ @ @ @ & & $ $ , 9 5 1 1 ",
"1 1 1 2 7 ! | S e , $ $ # $ # $ $ # # @ # ; f T r $ # $ $ # $ # # # # $ $ & & $ t } S > & # # $ > p U U , ; ; ; # # # ; r 9 5 1 1 ",
"1 1 1 2 3 w W 1.X.S r , > : $ : > : * % > < U X.J e : ; $ $ > > = > $ $ $ # $ $ p X.] e > ; > > S X.X.X.S e e , > ; > , S 5 3 1 1 ",
"1 1 1 1 1 3 q ~ | X.X. .` S g S } } J J ( X.X.1.X.X.S r e r X.X.} } S , $ # # , J X.1.X.M S K X.X.X.X.1.X.1.X.X.( J J B w 5 1 1 1 ",
"1 1 1 1 1 2 3 3 5 5 6 5 5 5 4 5 5 6 6 7 q q q 7 q q w l B W ~ ! ( Q Q B r r r v ( ! W w w w q q w w q q q w q q w q 7 5 3 1 1 1 1 ",
"1 1 1 1 1 1 1 1 1 1 1 1 1 1 1 1 1 1 1 3 3 3 5 2 3 5 5 6 6 7 7 6 6 7 7 6 7 5 6 6 7 7 6 5 5 5 5 5 5 5 5 5 5 5 5 5 5 5 3 1 1 1 1 1 1 ",
"1 1 1 1 1 1 1 1 1 1 1 1 1 1 1 1 1 1 1 1 1 1 1 1 1 1 1 1 1 1 1 1 1 1 1 1 1 1 1 2 1 1 1 1 1 1 1 1 1 1 2 2 1 1 1 1 1 1 1 1 1 1 1 1 1 ",
"1 1 1 1 1 1 1 1 1 1 1 1 1 1 1 1 1 1 1 1 1 1 1 1 1 1 1 1 1 1 1 1 1 1 1 1 1 1 1 1 1 1 1 1 1 1 1 1 1 1 1 1 1 1 1 1 1 1 1 1 1 1 1 1 1 "
};
