/* XPM */
static char *_93c7e53ff254c3b93eff6245bb746c6yTp24XpbBjDz4Ben[] = {
/* columns rows colors chars-per-pixel */
"65 65 140 2 ",
"   c gray50",
".  c #880015",
"X  c #EDDD19",
"o  c #EEE030",
"O  c #96DC45",
"+  c #99DC47",
"@  c #9CDD4B",
"#  c #9EDF51",
"$  c #A2DC4E",
"%  c #A6DC51",
"&  c #A8DD54",
"*  c #ACDE5A",
"=  c #9DE04F",
"-  c #9FE051",
";  c #A1E155",
":  c #A5E35B",
">  c #A8E45E",
",  c #8DCB66",
"<  c #90CD67",
"1  c #92CE68",
"2  c #94D167",
"3  c #95D16A",
"4  c #9BD46D",
"5  c #9FD86F",
"6  c #A1DA6D",
"7  c #A5DB72",
"8  c #AADE74",
"9  c #ACE564",
"0  c #AEE668",
"q  c #B3E065",
"w  c #B1E66B",
"e  c #B8E26E",
"r  c #B3E86E",
"t  c #ADE175",
"y  c #B2E574",
"u  c #BCE373",
"i  c #BEE376",
"p  c #BBE372",
"a  c #B5E970",
"s  c #B5E971",
"d  c #B5E973",
"f  c #B6EA72",
"g  c #B7EA73",
"h  c #B6E974",
"j  c #B7EA75",
"k  c #B6E972",
"l  c #B8E975",
"z  c #B8EA75",
"x  c #B9EA75",
"c  c #B9E876",
"v  c #B9EB77",
"b  c #B9EA77",
"n  c #BAEB77",
"m  c #B9EA76",
"M  c #B2E478",
"N  c #B4E579",
"B  c #B4E679",
"V  c #B5E77A",
"C  c #B6E77A",
"Z  c #B6E77B",
"A  c #B7E77B",
"S  c #B5E67A",
"D  c #BEE578",
"F  c #BFE478",
"G  c #B6E879",
"H  c #B7E87B",
"J  c #B7E87A",
"K  c #B7E87B",
"L  c #B8E979",
"P  c #BBEB79",
"I  c #B8E87B",
"U  c #BBEC7A",
"Y  c #B8E87C",
"T  c #BBEB7C",
"R  c #BDEB7D",
"E  c #BFE97E",
"W  c #BDEC7C",
"Q  c #BCEC7C",
"!  c #BEED7D",
"~  c #BDEC7E",
"^  c #BEEC7E",
"/  c #BEED7E",
"(  c #BEEC7F",
")  c #BFED7F",
"_  c #BDEC7D",
"`  c #F0E44A",
"'  c #F0E553",
"]  c #C0E97E",
"[  c #F2E86C",
"{  c #F2EA78",
"}  c #A349A4",
"|  c #A349A4",
" . c #C7E685",
".. c #C7E785",
"X. c #C8E787",
"o. c #C2ED83",
"O. c #C9E788",
"+. c #CBE88B",
"@. c #C8EE8C",
"#. c #CFE992",
"$. c #CFE993",
"%. c #CCEF92",
"&. c #CEEE96",
"*. c #CEEF95",
"=. c #D1EA95",
"-. c #D5EB9B",
";. c #D5EB9C",
":. c #D1F09A",
">. c #F3EB80",
",. c #D7EFA1",
"<. c #DAEDA4",
"1. c #D9ECA1",
"2. c #DDEEA9",
"3. c #DFEFAD",
"4. c #DEEFAA",
"5. c #D7F1A2",
"6. c #DBF1A7",
"7. c #E2F2AF",
"8. c #F5F0A5",
"9. c #F6F1AA",
"0. c #E5F0B5",
"q. c #E5F1B6",
"w. c #E8F1B9",
"e. c #EAF1BC",
"r. c #EAF2BE",
"t. c #F6F2B4",
"y. c #F5F3BB",
"u. c #C3C3C3",
"i. c #EDF3C2",
"p. c #EFF3C5",
"a. c #EEF3C4",
"s. c #F7F4C5",
"d. c #F3F4CB",
"f. c #F4F5CD",
"g. c #F5F5CE",
"h. c #F2F5CA",
"j. c #F6F6D0",
"k. c #F8F6D2",
"l. c #F8F6D3",
"z. c #F8F6D3",
/* pixels */
"6 1 , , , , , , , , , , , , , , , , , , , , , , , , , , , , , , , , , , , , , , , , , , , , , , , , , , , , , , , , , , , , , , , ",
"3 1 , , , , , , , , , , , , , , , , , , , , , , , , , , , , , , , , , , , , , , , , , , , , , , , , , , , , , , , , , , , , , , , ",
"1 < , , , , , , , 1 1 3 3 4 3 4 4 4 4 4 3 3 3 . . . . . . . . . . . . . . . . . . . . . . . . . . . . 1 1 , , , , , , , , , , , , ",
"< , , , , < < 1 1 4 6 7 6 6 t t . . . . . . . . . . . . . . . . . . . } } } } } . . } } } } } } . . . 5 4 3 3 3 1 1 1 < , , , , , ",
", , , , , 1 5 8 M Q h w 9 9 > . . } } } } } . . } } } } } } } } } } } } } } } } . . } } } } } } } . . g h J M t 7 7 5 4 < , , , , ",
", , , , 1 8 M y r 9 ; @ = = . . . } } } } } . . } } } } } } } } } } } } } } } } . . } } } } } } } . . - - ; > 9 y V V V 8 1 , , , ",
", , , < 4 M w > ; - @ + @ @ . . . } } } } } . . } } } } } } } } } } } } } } } } . . } } } } } } } . . @ @ @ = ; > w z W Y 4 < , , ",
", , , 1 7 y 9 O + + @ $ $ $ . . } } } } } } . . } } } } } } } } } } } } } } } } . . } } } } } } } . . $ $ @ + + + ; 9 I ~ 4 1 , , ",
", , , 1 7 w ; + @ % % % % % . . . . . . . . . . . . . . . . . . . . . . . . . . . . . . . . . . . . . % % % % $ @ O @ 9 ) 8 3 , , ",
", , , 1 7 y : + % % % % % % . . . . . . . . . . . . . . . . . . . . . . . . . . . . . . . . . . . . . % % % % % $ + + : W 8 3 , , ",
", , , 1 7 B > @ $ % % % & % . . } } } } } } } } } } } } } } } } } } } } } } } } } } } } } } } } | . . . % % % % % $ + ; W 8 4 , , ",
", , , 1 7 J 9 @ @ $ % % % * . . } } } } } } } } } } } } } } } } } } } } } } } } } } } } } } } } | | . . % % % % % % @ # I t 3 , , ",
", , , 1 7 V w ; + $ % % & e . . } } } } } } } } } } } } } } } } } } } } } } } } } } } } } } } } | | . . % % % % % % @ ; g t 4 , , ",
", , , 1 7 I z 9 O $ % % & e . . } } } } } } } } } } } } } } } } } } } } } } } } } } } } } } } } | | . . % % % % % $ @ = g t 4 , , ",
", , , 1 5 V g 9 O $ * q u u . . } } } } } } } } } } } } } } } } } } } } } } } } } } } } } } } } | | . . % % % % % % @ @ r t 4 , , ",
", , , 1 5 V z 9 O $ e =.<.;.. . } } } } } } } } } } } } } } } } } } } } } } } } } } } } } } } } | | . . % & % % % $ @ = w t 4 , , ",
", , , 1 5 V z 9 O $ X.e.k.f.. . } } } } } } } } } } } } } } } } } } } } } } } } } } } } } } } } | | . . % % % % % % @ @ w t 4 , , ",
", , , 1 5 V g > + $ ..w.z.k.. . } } } } } } } } } } } } } } } } } } } } } } } } } } } } } } } } | | . . % % % % % % @ = q y 5 , , ",
", , , 1 6 V r : + $ q ..0.f.. . } } } . . . . . . . . . . . . . . . . . . . . . . . . . . . . . . . . . % % % % % % $ @ 9 t 4 , , ",
", , , , 4 A r : + $ % q +.p.. . . . . . . . . . . . . . . . . . . . . . . . . . . . . . . . . . . . . . % % % % % % $ @ : 0 5 , , ",
", , , , 5 V s : + $ % * ] r.. . . . . } } } . . } } } } } } } } } } } } } } } . . } } } } } } } | | . . $ % % % % % @ @ ; t 5 , , ",
", , , 1 4 V s : + $ % q +.s.. . } } } } } } . . } } } } } } } } } } } } } } } . . } } } } } } } | | . . + $ % % % % $ @ ; y 5 , , ",
", , , 1 6 I I w @ + @ e 3.g.. . } } } } } } . . } } } } } } } } } } } } } } } . . } } } } } } } | | . . + @ $ % % % + @ > 0 4 , , ",
", , , 1 7 I ! z 9 ; : n ;.2.. . } } } } } } . . } } } } } } } } } } } } } } } . . } } } } } } } | | . . $ @ @ $ % $ @ # 0 t 4 , , ",
", , , 1 7 Y W W W r r h ] ] . . } } } } } } . . } } } } } } } } } } } } } } } . . } } } } } } } } . . . 0 - + @ + + = ; v t 3 < , ",
", , , 1 7 Y o.W ) W m 0 ; $ . . } } } } } } . . } } } } } } } } } } } } } } } . . } } } } } } } } . . @.&.0 @ + + @ - 9 W t 3 , , ",
", , , 1 7 Y o.W W 9 ; @ + $ . . } } } } } } . . } } } } } } } } } } } } } } } . . } } } } } } } } . . 2.p.*.z g y g m W ) 8 3 < , ",
", , , 1 7 Y W P 9 - + + $ % . . } } } } } } . . } } } } } } } } } } } } } } } . . } } }         } . . w.d.:.W P W W W ) ) t 3 < , ",
", , , 1 6 V W r - + @ $ $ % . . } } } } } } . . } } } } } } } } } } } } } } } . . } }     u.u.    . . p.f.5.@.@.o.) ) ) ( 8 4 , , ",
", , , 1 7 V I 9 O @ $ % % % . . } } } } } } . . } } } } } } } } } } } } } } } . . }     u.u.u.u.  . . y.y.7.6.6.&.o.) ) ( t 4 , , ",
", , , 1 6 Y V 9 O $ $ & % % . . } } } } } } . . } } } } } } } } } } } } } } } . . }   u.u.u.u.u.  . . ` >.y.k.f.w.@.) ) ( t 3 , , ",
", , , 1 6 Y g > O $ & $ % % . . } } } } } } . . } } } } } } } } } } } } } } } . . }   u.u.u.u.    . . X ' 9.k.d.<.( I o.( t 4 , , ",
", , , 1 7 J f > O $ % % % % . . | | | | | | . . | | | | | | | | } } } } } } } . . } }           } . . o [ t.s.;.u 9 w ~ ~ M 4 , , ",
", , , < 5 J P 9 O $ % % % % . . | | | | | | . . | | | | | | | | } } } } } } } . . } } } } } } } } . . { 8.s.0...& $ > h ~ 8 4 , , ",
", , , < 5 B ! r O @ $ % % % . . | | | | | | . . | | | | | | | | } } } } } } } . . } } } } } } } } . . d.f.k.r.=.& @ % 9 o.8 1 , , ",
", , , 1 5 Z W f + + $ % % % . . | | | | | | . . | | | | | | | | } } } } } } } . . } } } } } } } } . . ,.3.h.h.1.& @ @ 9 ~ 8 4 , , ",
", , , < 5 Z ) r + @ $ % % % . . | | | | | | . . | | | | | | | | } } } } } } } . . } } } } } } } } . . p F =.;.X.& $ @ ; ~ 8 3 , , ",
", , < 1 8 Q ) y + + $ % % % . . | | | | | | . . | | | | | | | | } } } } } } } . . } } } } } } } } . . & % q e q % $ @ - c 8 3 , , ",
", , , 3 t Q ] f = + $ % % % . . | | | | | | . . | | | | | | | | } } } } } } } . . } } } } } } } } . . @ $ $ % % % % @ % w 8 3 1 , ",
", , , 3 B ! ] n > + $ $ & $ . . | | | | | | . . | | | | | | | | } } } } } } } . . } } } } } } } } . . + + + @ $ % % @ @ r 8 3 , , ",
", , , 3 M Y o.W m - @ @ $ $ . . | | | | | | . . | | | | | | | | } } } } } } } . . } } } } } } } . . . ; ; = + + $ @ + - v t 1 , , ",
", , , 3 Z ) ) W W > = + @ + . . | | | | | | . . | | | | | | | | } } } } } } } . . } } } } } } } . . : : 9 > ; = + + = > P t 3 , , ",
", , , 3 Q W W P P r ; @ + = . . | | | | | | . . | | | | | | | | } } } } } } } . . } } } } } } } . . @ - 9 r w > ; = : f / 7 3 , , ",
", , , 3 Y W r : ; 9 9 9 0 r . . | | | | | | . . | | | | | | | | } } } } } } } . . } } } . . . . . . O O + 9 g ! m f m ] / 7 3 , , ",
", , , 3 Q h > = + @ @ ; r m . . . . . . . . . . . . . . . . . . . . . . . . . . . . . . . . . . . . $ $ + @ 9 I ) W W ) / 7 3 , , ",
", , , 3 Y 0 - + $ @ + = > v . . | | | | | | | | | | | | | | | | } } } } } } } } } } } } } } } } . . & $ @ + ; g W ) ) ) / 7 3 , , ",
", , , 3 I 9 = @ $ $ @ + = 9 . . | | | | | | | | | | | | | | | | } } } } } } } } } } } } } } } } . . $ & % @ ; 0 W Q P P ) 7 3 , , ",
", , , 3 I > $ @ % & $ + = : . . | | | | | | | | | | | | | | | | } } } } } } } } } } } } } } } } . . % % $ @ ; 0 v 0 0 g Y 7 1 , , ",
", , , 3 Y > @ @ % & % $ $ @ . . | | | | | | | | | | | | | | | | | | | | | | | | | | | | | | | | . . % % @ + ; w $ @ @ - 9 6 3 , , ",
", , , 3 Y : @ $ % % % % $ + . . | | | | | | | | | | | | | | | | | | | | | | | | | | | | | | | | . . $ $ + = ; > + + + @ > 5 3 , , ",
", , , 3 V 9 = @ % % % % $ @ . . | | | | | | | | | | | | | | | | | | | | | | | | | | | | | | | | . . $ + @ > : = + @ @ = ; 5 3 , , ",
", , , 3 Y 9 ; + $ % % % % $ . . | | | | | | | | | | | | | | | | | | | | | | | | | | | | | | | | . . @ + 9 w ; + + $ $ @ ; 5 3 , , ",
", , , 1 M w ; + $ % % % % % . . | | | | | | | | | | | | | | | | | | | | | | | | | | | | | | | | . . @ > 9 ; + + $ $ $ @ : 6 3 , , ",
", , , 3 t h : + $ % % % % % . . | | | | | | | | | | | | | | | | | | | | | | | | | | | | | | | | . . - w : = @ $ $ $ $ = ; 6 3 , , ",
", , , 3 t I > + $ % % % % % . . . . . . . . . . . . . . . . . . . . . . . . . . . . . . . . . . . . ; r @ @ @ % % % $ = ; 6 2 , , ",
", , , 2 t Z 9 @ $ $ % % % % . . . . . . . . . . . . . . . | | | | | | | | | | . . | | | | | | | . . : r @ + $ % % % $ = ; 6 3 , , ",
", , , 1 t Q 9 @ + @ $ $ % % . . | | | | | | | . | | | | | | | | | | | | | | | . . | | | | | | | . . > r + + @ % % % $ @ ; 6 4 < , ",
", , , 1 8 Y h > @ + + @ @ $ . . | | | | | | | . | | | | | | | | | | | | | | | . . | | | | | | | . . 9 r = + + + $ $ @ = : 6 2 , , ",
", , , 1 5 V ~ g 9 ; # @ + + . . | | | | | | | . | | | | | | | | | | | | | | | . . | | | | | | . . . m m ; = = @ + = O = 9 6 2 , , ",
", , , < 1 8 V ~ ! r 9 : ; ; . . | | | | | | | . | | | | | | | | | | | | | | | . . | | | | . . . . ! ! ! y 9 > : $ - = : y 4 1 , , ",
", , , , , 1 7 M Y ~ W W I f . . . | | | | | | . | | | | | | | | | | | | | | | . . . . . . . . . . W W ) W W W Q I h J y 8 1 , , , ",
", , , , , , 1 1 4 3 4 3 3 3 2 . . . . . . . . . . . . . . . . . . . . . . . . . . . . . . . . 7 t 7 7 t 8 7 8 7 7 7 5 3 1 , , , , ",
", , , , , , , , , , , , , , , , . . . . . . . . . . . . . . . 5 5 4 5 4 4 4 4 5 5 4 4 3 3 3 3 3 3 3 3 3 3 3 3 3 3 3 1 , , , , , , ",
", , , , , , , , , , , , , , , , , , , , , , , , , , , , , , , , , , , , , , , , , , , , , , , , , , , , , , , , , , , , , , , , , ",
", , , , , , , , , , , , , , , , , , , , , , , , , , , , , , , , , , , , , , , , , , , , , , , , , , , , , , , , , , , , , , , , , "
};
