/* XPM */
static char *dacef54d94a943c4939a3809d063244emzV8LKtknwvCvcZm[] = {
/* columns rows colors chars-per-pixel */
"65 65 159 2 ",
"   c black",
".  c #880015",
"X  c #ED1C24",
"o  c #FF7F27",
"O  c #ECDC0F",
"+  c #EDDD1B",
"@  c #EEE132",
"#  c #EFE23B",
"$  c #96DC45",
"%  c #99DC47",
"&  c #9CDD4A",
"*  c #9EDF51",
"=  c #A2DC4E",
"-  c #A6DC51",
";  c #A8DD55",
":  c #ACDE5B",
">  c #9DE04F",
",  c #9FE051",
"<  c #A1E155",
"1  c #A5E35B",
"2  c #A9E35E",
"3  c #8DCB66",
"4  c #90CD67",
"5  c #92CE68",
"6  c #94D167",
"7  c #95D16A",
"8  c #9BD56D",
"9  c #9FD96E",
"0  c #AFDF60",
"q  c #A1DA6D",
"w  c #B0DF61",
"e  c #A4DB71",
"r  c #AADE74",
"t  c #ACE564",
"y  c #AEE669",
"u  c #B2E064",
"i  c #B2E56B",
"p  c #B8E26E",
"a  c #B2E86D",
"s  c #B3E86C",
"d  c #B2E86E",
"f  c #B1E86C",
"g  c #B4E96F",
"h  c #B3E86E",
"j  c #ABE171",
"k  c #ACE173",
"l  c #ADE273",
"z  c #ABE075",
"x  c #ADE175",
"c  c #AEE375",
"v  c #ADE176",
"b  c #ADE274",
"n  c #ADE175",
"m  c #B1E671",
"M  c #B2E773",
"N  c #B3E577",
"B  c #B3E674",
"V  c #B4E775",
"C  c #B2E574",
"Z  c #B9E270",
"A  c #BCE374",
"S  c #B4E971",
"D  c #B5E972",
"F  c #B5E973",
"G  c #B6E972",
"H  c #B6EA72",
"J  c #B7E974",
"K  c #B7EA75",
"L  c #B6E972",
"P  c #B9EA77",
"I  c #B9EB77",
"U  c #B8EA76",
"Y  c #B9EA76",
"T  c #B9EA76",
"R  c #B2E478",
"E  c #B4E579",
"W  c #B7E77B",
"Q  c #B4E679",
"!  c #B5E67A",
"~  c #BFE478",
"^  c #BFE579",
"/  c #B7E87A",
"(  c #B7E87B",
")  c #B8E979",
"_  c #B9EB78",
"`  c #BAEB79",
"'  c #B8E87B",
"]  c #BBEB7B",
"[  c #BCEC7A",
"{  c #BBEB7C",
"}  c #BDEB7D",
"|  c #BDEC7D",
" . c #BDEC7C",
".. c #BEEC7E",
"X. c #BFED7F",
"o. c #BEEC7E",
"O. c #BDEC7D",
"+. c #EFE341",
"@. c #F0E344",
"#. c #F0E44C",
"$. c #F0E555",
"%. c #F1E658",
"&. c #C2E57D",
"*. c #C0E97E",
"=. c #F1E761",
"-. c #F2E86C",
";. c #F2EA7A",
":. c #3F48CC",
">. c #7092BE",
",. c #BFED80",
"<. c #C7E684",
"1. c #C5E683",
"2. c #C8E787",
"3. c #C4EC84",
"4. c #CBE78B",
"5. c #C9E789",
"6. c #CDE88F",
"7. c #CAEB8C",
"8. c #CEEC93",
"9. c #D1EA95",
"0. c #D5EC9C",
"q. c #D8EB9F",
"w. c #D1F09A",
"e. c #F3EB82",
"r. c #F4ED8B",
"t. c #F3ED92",
"y. c #F4EF9A",
"u. c #D7EDA0",
"i. c #D9ECA2",
"p. c #DAEDA3",
"a. c #DEEEAA",
"s. c #D7F1A2",
"d. c #DAF1A7",
"f. c #DFF2AE",
"g. c #E1EEAD",
"h. c #F1EFA5",
"j. c #E1F1AF",
"k. c #F5F0A5",
"l. c #F6F1AC",
"z. c #E3EFB1",
"x. c #E3EFB1",
"c. c #E4F0B4",
"v. c #E5F1B5",
"b. c #EDF1B4",
"n. c #E7F1B9",
"m. c #E7F1B8",
"M. c #E8F1B9",
"N. c #EAF2BC",
"B. c #F4F2B5",
"V. c #F4F2BB",
"C. c #FFAEC9",
"Z. c #EDF2C1",
"A. c #EEF3C3",
"S. c #F4F4C4",
"D. c #F5F5CF",
"F. c #F4F5CC",
"G. c #F8F5CE",
"H. c #F7F6D1",
"J. c #F8F6D3",
/* pixels */
"q 5 3 3 3 3 3 3 3 3 3 3 3 3 3 3 3 3 3 3 3 3 3 3 3 3 3 3 3 3 3 3 3 3 3 3 3 3 3 3 3 3 3 3 3 3 3 3 3 3 3 3 3 3 3 3 3 3 3 3 3 3 3 3 3 ",
"7 5 3 3 3 3 3 3 3 3 3 4 3 3 3 3 3 3 3 3 3 3 3 3 3 3 3 3 3 3 3 3 3 3 3 3 3 3 3 3 3 3 3 3 3 3 3 3 3 3 3 3 3 3 3 3 3 3 3 3 3 3 3 3 3 ",
"5 3 3 3 3 3 3 4 3 4 5 7 7 7 7 8 8 8 8 8 8 7 7 7 7 5 7 5 5 5 6 7 7 5 7 7 5 5 5 7 5 7 7 7 7 5 5 7 7 7 7 4 3 3 3 3 3 3 3 3 3 3 3 3 3 ",
"4 4 3 3 3 4 4 5 5 8 9 e j r j z j b b z r q q q e e e e e e e r e q e q e e e e e e e e e e q 9 9 q q q 9 7 7 7 7 4 5 3 3 3 3 3 3 ",
"3 3 3 3 3 5 8 r E { V d t t t 1 t y y y d y i G Y o.o.o.o.,.o.o.} ` Y / ` ` | o.o.o.o.o.o.o.S t t y M M K ] Q z r e 9 8 4 3 3 3 3 ",
"3 3 3 3 5 r C C d t < * > & > $ & & & * & * & = 1 s o.o.| ` S t 2 < < - , 1 1 t s I o.,.o.S 2 & & * , - , < 2 y C E W R r 5 3 3 3 ",
"3 3 3 4 8 R d t < * % % % & & & & & & % & & % % & 1 K | M 2 < , & & & % & & $ > < 2 y I o.i , % & & & & & & > , 2 y Y } W 8 3 3 3 ",
"3 3 3 5 e C 2 $ % % & & - - - - - = - = - = = = & $ s ` y $ % % % & & & & % & & % % > t K y & & - & = & & = % % $ , y ` } q 5 3 3 ",
"3 3 3 5 r m 1 $ = - - - - - - - - - - - - - - - = $ t s 2 % = = - - - - - - - - = & % & y t & & - - - - - - = = & $ & t ,.r 7 3 3 ",
"3 3 3 5 e l 1 $ = - - - - - - - - - - - - - - - = > 2 y 1 % = - - - - - - - - - - = & % t t , & - - - - - - - - - & & 1 } r 7 3 3 ",
"3 3 3 4 e C t $ = - - - - - w w : - - - - - - - = % < i 2 % = = - - - - - - - - - - = % < < & & - - - - - - - - - & % < | z 7 4 3 ",
"3 3 3 4 r / t & % - - - - : <.<.w ; - ; ; - - - = % > i t % % = = = - - - - - - - - = % & & & & = - X X - - - - - - & * ` r 8 3 3 ",
"3 3 3 4 e W d - % = - - ; A x.N.5.: i i 0 - - - = & > y s > $ % & = - ; ; ; - - - - - & % $ $ * - - X X X - - - - = & , K b 8 3 3 ",
"3 3 3 5 e W Y t $ = - - ; w x.H.S.p.N.x.6.- - - = = % s [ g 1 > $ % & u &.Z ; 0 ; - - = % % $ $ = - X X X X - - - - & , S c 8 3 3 ",
"3 3 3 5 q W Y t $ = : w A A x.J.G.S.D.N.9.- ; = = X X X X [ S g 2 , & <.a.p.1.p.5.w : = % & , $ % = X C.C.X X - - - & , s b 8 3 3 ",
"3 3 3 5 9 ' Y 2 $ = A 6.i.0.N.V.l.V.F.M.5.- = = X X X C.X X X o.} A B q.N.S.z.D.q.w ; = % - t , & % X C.C.C.X X - - & & i z 8 3 3 ",
"3 3 3 5 9 W K t $ = 2.N.H.D.V.e.%.t.S.M.4.: - X X C.C.C.C.X X X 7.p.c.N.S.F.S.D.9.u ; - % < y s 2 & X C.C.C.C.X X X & & i c 8 3 3 ",
"3 3 3 5 e E S 2 $ = 2.M.H.H.t.+.O # l.J.N.6.; X X C.C.C.C.C.X X } p.J.J.S.l.t.V.9.A w - & , y ,.s X X C.C.C.C.C.X X & & i C 8 3 3 ",
"3 3 3 5 9 / S 1 $ = u 2.m.D.y.#.+ @.l.J.F.f.X X C.C.C.C.C.C.C.X X Z q.S.y.$.@ t.b.N.. ; % . y . . X X X X C.C.C.C.X X X t C 9 3 3 ",
"3 3 3 3 9 E g 1 % = ; u 4.S.B.r.-.e.B.Z.f.9.X X C.C.C.C.C.C.C.X . . . . . . . . . . . . . . . X . . , X X X X X X X X X X l 8 3 3 ",
"3 3 3 4 8 W M 1 % = - : ~ Z.G.F.S.G.m.d.7.K X C.C.C.C.C.C.. . . . . X . X X X X X X X X X X X X . . 2 $ & - - - - - = X < l 9 3 3 ",
"3 3 3 3 8 W S 1 $ & - u 8.F.G.F.F.J.m.w.K < X C.C.. . . . . . X X X X X X X X X X X X X X X X X . | y $ & = - - - ; & & 1 l 9 3 3 ",
"3 3 3 5 e / ` y > $ & p f.F.j.0.s.G.Z.w.K , X . . . . X X X X X X X X X X X X X X X X X X X X X . ] K 2 % & = - - - & & 2 l 8 3 3 ",
"3 3 3 5 e ` o.Y t < 1 Y q.a.&.p A q.9.3.. . . . . X X X X X X X X X X X X X X X X X X X X X X . . t S g > & & = = = & & y j 8 3 3 ",
"3 3 3 5 e W ,.o.] s s K *.&.: - 1 p p . . . . X X X X X X X X X X X X X X X X X X X X X X X . . % > y o.t > $ > & % > < I l 8 3 3 ",
"3 3 3 5 e { ,.,.,.o.Y y < = - - = . . . . X X X X X X X X X X X X X X X X X X X X X X X X X . . & > y 8.8.t > > $ & , t o.z 7 3 3 ",
"3 3 3 5 e ( ,.o.[ y < % % = - - . . . X X X X X X X X X X X X X X X X X X o X X X X X X X X . ; : ; G j.A.8.I S S S I o.o.z 8 3 3 ",
"3 3 3 5 e { o.I t , & % = - - . . X X X X X X X X X X X X X X X X X X X o o o X X X X X X X . 0 0.q.s.m.F.w.X. .o.o.o.*.o.z 7 3 3 ",
"3 3 3 4 e E | M > % & = = - . . . X X X X X X X X X X X X X X X X X o o o X X X X X X X X . . u N.S.A.A.F.s.7.7.3.3.,.o.,.r 8 3 3 ",
"3 3 3 5 e ( ` t $ & = - - . . . X X X X X X X X X X X X X X X X X o o o X X X X X X X X X . . p M.D.S.V.V.j.d.d.8.3.o.o.,.b 8 3 3 ",
"3 3 3 5 e W K t $ = = - - :.:.X X X X X X X X X X X X X X X X o o o X X X X X X X X X X X . . A a.V.y.#.;.V.H.F.m.7.} 3.,.v 7 3 3 ",
"3 3 3 4 9 W K 2 $ = - - :.:.:.:.:.X X X X X X X X X X X X X o o X X X X X X X X X X X X . . z.N.A.B.;.+ $.l.H.F.s.X.` ,.,.v 8 3 3 ",
"3 3 3 5 e _ S 2 $ = = ; :.:.>.:.:.:.X X X X X X X X X X o o o X X X X X X X X X X X X X . . V.F.F.S.e.@ -.B.Z.i.A w d o.o.v 8 3 3 ",
"3 3 3 4 9 / [ t $ = = = :.>.>.>.>.:.:.X X X X X X X X o o o X X X X X X X X X X X X X X . G 9.i.z.Z.l.;.h.S.m.<.- = 2 S o.b 8 3 3 ",
"3 3 3 4 9 W X.s $ % = = :.>.>.>.>.>.:.:.X X X X X X o o o X X X X X X X X X X X X X X . . - : : 1.x.G.F.H.H.N.9.; % - y 3.r 5 3 3 ",
"3 3 3 4 9 W X.M % % = :.:.>.>.>.>.>.>.:.:.:.X X X X X o X X X X X X X X X X X X X X . . ; = - : 4.M.N.q.z.F.A.i.; = & t } r 8 3 3 ",
"3 3 3 5 9 ( ,.s % = = :.:.>.>.>.>.>.>.>.:.:.:.X X X X X X X X X X X X X X X X X X X . . - - - - ~ i.u.Z ~ 9.q.<.; = & < } r 8 3 3 ",
"3 3 3 5 r ( ,.M % & = :.>.>.>.>.>.    >.>.:.:.:.X X X X X X X X X X X X X X X X X . . & & & = = 0 ~ A ; ; w Z w ; = & < K r 7 3 3 ",
"3 3 3 7 c | *.S & & = :.>.>.>.>.>.>.>.>.>.>.:.:.:.X X X X X X X X X X X X X X X X . . $ & $ $ & % & & & = - - - = ; & * s r 7 4 3 ",
"3 3 3 5 Q X.*.] t % % :.>.>.>.>.>.>.>.>.>.>.>.:.:.:.X X X X X X X X X X X X X X . . 1 y 2 1 , & $ % % % % % & = - = & & M r 7 3 3 ",
"3 3 3 7 ! ,.,.{ S < & :.>.>.>.>.>.>.>.>.>.>.>.>.>.:.:.X X X X X X X X X X X X X . & > , 1 2 t t 2 2 1 < , > % % = % % < I r 7 3 3 ",
"3 3 4 7 W ,.,.,.[ t > :.>.>.>.>.>.>.>.>.>.>.>.>.>.>.:.:.:.X X X X X X X X X X . . & $ & * - < 2 2 2 < 1 t 2 < > & & > 2 [ r 7 3 3 ",
"3 3 3 7 { o.{ ` I s 1 :.>.>.>.>.:.:.:.:.>.>.>.>.>.>.>.:.:.:.X X X X X X X X . . & = & & & % $ $ % & & < t S g t > > 1 g | r 7 3 3 ",
"3 3 3 7 { | i 1 < t t :.>.>.:.:.:.:.:.:.:.:.:.>.>.>.>.>.:.:.X X X X X X X . . . - - - - = = = = $ $ $ $ $ t S [ Y H Y *.| r 7 3 3 ",
"3 3 3 7 ( K 2 & % & & :.>.>.:.:.& = ; u 9.:.:.>.>.>.>.>.>.:.:.X X X X X . . p 1 ; - - - - - - = = = = = % > 2 ] o.[ o.o.o.e 7 3 3 ",
"3 3 3 7 { y , $ & = % :.:.>.:.2 $ = - 2 A 0.4.. >.. . . . . :.. . X . . . . 7.} t - - - - - - - - - - = = % < g X.X.3.o.o.e 7 3 3 ",
"3 3 3 7 { t * & = = = % :.:.:.2 $ = = = - 0 ; . C.C.C.C.C.C.C.. . . . . ; ~ n.d.&.i i w : - - - - - - - - & < y [ ] I [ 3.e 5 3 3 ",
"3 3 3 7 { 2 = & = ; = & :.:.g i % $ % % % % & . C.C.C.C.C.C.. . . . & - : <.D.S.q.0.x.0.w - - - - - - - = & , s I t y M | e 7 3 3 ",
"3 3 3 7 { 2 & = - - - = & :.y B y < = > > > . . C.C.C.C.. . . . % = = - ; &.S.G.A.Z.Z.9.w - - - - - - - = $ < i > & % < t q 7 3 3 ",
"3 3 3 7 { 1 & & - - - - = % < i T g y y . . . C.C.. . . . . $ = = = - ; ; ~ v.S.l.B.F.i.&.w - - - - = = $ > < 2 % & $ > 2 q 7 3 3 ",
"3 3 3 7 W t & & - - - - = & & < y H [ *.. . . . . . . > = = = - - - - w A 8.g.t.-.e.V.N.g.&.: - ; = = % > 1 1 = $ & = & < 9 7 3 3 ",
"3 3 3 7 E y < % - - - - - = & % & 1 y Y T *.*.I t $ $ > - - - - - - ; 5.x.D.S.=.+ +.y.F.S.9.: - = = % & t y < $ % = = & 1 q 7 3 3 ",
"3 3 3 7 R m 1 % = - - - - - = & $ $ = 1 g *.*.I 2 $ = = - - - - - - ; 0.N.F.S.;.# $.h.a.9.A ; - - = & 2 y < % & = = = & < 9 6 3 3 ",
"3 3 3 7 b K 1 $ = - - - - - - - = & $ > 1 g [ H 1 $ = - - - - - - - - A <.9.c.B.y.l.V.u.&.: - - = & , i < & & = = = = > 1 9 6 3 3 ",
"3 3 3 5 b E 2 % = ; - - - - - - - = = $ & < [ H 1 $ = - - - - - - - - ; : ~ a.J.A.A.A.0.u - = ; = % < g > % & ; - - = & 1 q 7 3 3 ",
"3 3 3 5 r { t & = = - - - - - - - = = & $ & S S 2 > = - - - - - - - - - - p p.A.f.f.n.8.w - - ; = & 1 g > % = = - - = > < q 7 3 3 ",
"3 3 3 5 z ( t & $ = = - - ; = ; - - - = = $ s g 2 $ = - - ; - = - - - - - : &.a.9.3.5.p : = = = % > 2 s $ % & - - - = & < q 8 4 3 ",
"3 3 3 5 z { K 2 % $ % % & = = = & & & & % $ i H t $ & = = = & & % = = = - - : u G [ H ; - = = & $ 1 y s & $ % & = = & & 2 q 6 3 3 ",
"3 3 3 4 9 W { K t 1 & & $ & % % $ & % % % > s I s & & & & & $ & % % % & = = & & y Y K < & & % & < y I I 2 > $ > % & % > y q 6 3 3 ",
"3 3 3 4 5 r W { [ S y 1 < , > = < , - * < 2 I o.K t , & & & , 1 ; < * & % & & & y o.` t < > < < S [ o.o.M t 2 1 > > > 2 m 8 4 3 3 ",
"3 3 3 3 3 5 e ! { o.o.} ` S s S ] ] S Y / o.| ,.o.] M t y f ] o.] ] s 2 > $ & 1 K o.o.` K S K | o.| | ,.{ o.o.| ` / K C r 5 3 3 3 ",
"3 3 3 3 3 4 4 5 7 8 7 7 7 7 7 7 8 7 8 9 e 9 e 9 e e j c C Q Q / / Q Q C y t y c ( ( Q z j e e e j r e r r r r e e e 9 7 5 3 3 3 3 ",
"3 3 3 3 3 3 3 3 3 3 3 3 3 3 3 3 3 3 4 3 5 7 5 7 7 7 7 8 8 8 8 9 9 8 9 8 8 8 8 8 9 8 8 7 7 7 7 7 7 7 7 7 7 7 7 7 7 7 5 3 3 3 3 3 3 ",
"3 3 3 3 3 3 3 3 3 3 3 3 3 3 3 3 3 3 3 3 3 3 3 3 3 3 3 3 3 3 4 3 3 3 3 3 3 3 3 3 3 3 3 3 3 3 3 3 3 3 3 3 3 3 3 3 3 3 3 3 3 3 3 3 3 ",
"3 3 3 3 3 3 3 3 3 3 3 3 3 3 3 3 3 3 3 3 3 3 3 3 3 3 3 3 3 3 3 3 3 3 3 3 3 3 3 3 3 3 3 3 3 3 3 3 3 3 3 3 3 3 3 3 3 3 3 3 3 3 3 3 3 "
};
