/* XPM */
static char *eadfb06462f6458487eca768e7a72ff2b3i3XXXpUXlfmc9Q[] = {
/* columns rows colors chars-per-pixel */
"65 65 227 2 ",
"   c #010000",
".  c #090505",
"X  c #090B06",
"o  c #090709",
"O  c #0D0B0B",
"+  c #070904",
"@  c #130A0A",
"#  c #0D1109",
"$  c #12150C",
"%  c #151C0A",
"&  c #191409",
"*  c #130D12",
"=  c #180F11",
"-  c #151214",
";  c #1C151B",
":  c #1B1715",
">  c #24161A",
",  c #2E0E0D",
"<  c #1C260E",
"1  c #1D2516",
"2  c #242B16",
"3  c #273515",
"4  c #362D15",
"5  c #1F1820",
"6  c #261C25",
"7  c #321E23",
"8  c #2C212B",
"9  c #262323",
"0  c #3B2628",
"q  c #323728",
"w  c #372A37",
"e  c #3B3636",
"r  c #2E3722",
"t  c #511312",
"y  c #651C16",
"u  c #53361E",
"i  c #77211A",
"p  c #40272C",
"a  c #492C2E",
"s  c #452833",
"d  c #473138",
"f  c #583735",
"g  c #623B38",
"h  c #571A34",
"j  c #374F1B",
"k  c #3A4D29",
"l  c #495132",
"z  c #6C4E2F",
"x  c #4A6526",
"c  c #4C6237",
"v  c #577439",
"b  c #55702F",
"n  c #75633A",
"m  c #607F2F",
"M  c #415E1E",
"N  c #3F3040",
"B  c #4C3A4C",
"V  c #473546",
"C  c #513E52",
"Z  c #543D4D",
"A  c #752848",
"S  c #54454C",
"D  c #584358",
"F  c #52514C",
"G  c #644A5B",
"H  c #6B4F4F",
"J  c #586B43",
"K  c #5D7347",
"L  c #64794A",
"P  c #726C55",
"I  c #654C65",
"U  c #6A516C",
"Y  c #745976",
"T  c #765A78",
"R  c #7B5D7B",
"E  c #745874",
"W  c #72546B",
"Q  c #72686D",
"!  c #5E4860",
"~  c #8C261E",
"^  c #89261E",
"/  c #9B2F2C",
"(  c #A33B24",
")  c #D11C36",
"_  c #D3233C",
"`  c #B54C29",
"'  c #AA4226",
"]  c #846A3A",
"[  c #8A2D55",
"{  c #AF2745",
"}  c #CC304C",
"|  c #825F77",
" . c #A95174",
".. c #82627D",
"X. c #886876",
"o. c #8F7643",
"O. c #DF5265",
"+. c #E0596B",
"@. c #56832E",
"#. c #648633",
"$. c #6A9532",
"%. c #719837",
"&. c #628F2E",
"*. c #77A638",
"=. c #79965E",
"-. c #79965E",
";. c #708753",
":. c #7AA348",
">. c #7C9960",
",. c #5E9F42",
"<. c #84B93E",
"1. c #81AC3F",
"2. c #908823",
"3. c #DED235",
"4. c #849D5C",
"5. c #8CBA59",
"6. c #89B14D",
"7. c #849D63",
"8. c #85827F",
"9. c #89A565",
"0. c #91AE68",
"q. c #9EBB6E",
"w. c #96B36B",
"e. c #99AE73",
"r. c #A0BD6F",
"t. c #A4BC74",
"y. c #96DC45",
"u. c #99DC47",
"i. c #9CDD4A",
"p. c #9AD34A",
"a. c #9EDF51",
"s. c #94C84D",
"d. c #A2DC4D",
"f. c #A0D64E",
"g. c #A6DC51",
"h. c #ACDE5B",
"j. c #A8DD55",
"k. c #9DE04F",
"l. c #9FE051",
"z. c #A1E155",
"x. c #A5E35B",
"c. c #A8E45E",
"v. c #8DCB66",
"b. c #8CC564",
"n. c #90CD67",
"m. c #92CE68",
"M. c #92C666",
"N. c #95D16A",
"B. c #9BD56D",
"V. c #9BD66B",
"C. c #A1DA6D",
"Z. c #AAD964",
"A. c #AAC278",
"S. c #A4DB71",
"D. c #AADE73",
"F. c #B0D571",
"G. c #ACE564",
"H. c #AEE669",
"J. c #B1E66B",
"K. c #B3E86E",
"L. c #B4E167",
"P. c #ADE174",
"I. c #B2E674",
"U. c #B6E972",
"Y. c #B9EA76",
"T. c #B5E67A",
"R. c #B7E87A",
"E. c #BCEC7C",
"W. c #BDE477",
"Q. c #EDE46F",
"!. c #846382",
"~. c #896684",
"^. c #8D6986",
"/. c #946D8C",
"(. c #926A86",
"). c #9C7392",
"_. c #99728D",
"`. c #A27696",
"'. c #A67999",
"]. c #A97B9B",
"[. c #A57897",
"{. c #B07384",
"}. c #878685",
"|. c #9C9894",
" X c #979797",
".X c #97938F",
"XX c #A58188",
"oX c #A8848B",
"OX c #AE829C",
"+X c #B48C9C",
"@X c #AAB18C",
"#X c #B98CA7",
"$X c #BB8EA9",
"%X c #B386A3",
"&X c #BD91A8",
"*X c #AF81A0",
"=X c #A8A8A7",
"-X c #BCB9B5",
";X c #C195AD",
":X c #C89CAB",
">X c #C69AA9",
",X c #C9B1B1",
"<X c #F0ACB6",
"1X c #AEC181",
"2X c #BACB88",
"3X c #C8D493",
"4X c #C2D08E",
"5X c #C8E887",
"6X c #CEEC94",
"7X c #D4EC9B",
"8X c #F0E98D",
"9X c #CDCAB4",
"0X c #DBEEA6",
"qX c #E6EEB3",
"wX c #E8F1B8",
"eX c #F4F3BB",
"rX c #EEF0A9",
"tX c #DFBFCE",
"yX c #DAB8C7",
"uX c #D4D1CC",
"iX c #CCCBC9",
"pX c #EEF3C3",
"aX c #F3F4CA",
"sX c #F3F3CD",
"dX c #FFFFFF",
"fX c #F6F6F6",
"gX c #ECE6E7",
/* pixels */
"C.m.v.v.v.v.v.v.v.v.v.v.v.v.v.v.v.v.v.v.v.v.v.v.v.v.v.v.v.v.v.v.v.v.v.v.v.v.v.v.v.v.v.v.v.v.v.v.v.v.v.v.v.v.v.v.v.v.v.v.v.v.v.v.v.",
"N.m.v.v.v.v.v.v.v.v.v.v.v.v.v.v.v.v.v.v.v.v.v.v.v.v.v.v.b.b.v.v.v.v.v.v.v.v.v.v.v.v.v.v.v.v.v.v.v.v.v.v.v.v.v.v.v.v.v.v.v.v.v.v.v.",
"m.n.v.v.v.v.v.v.v.m.m.N.N.V.N.B.N.C.V.V.m.m.N.m.m.m.m.N.  v N.N.m.m.N.N.m.m.N.N.N.n.N.N.N.N.n.N.N.N.N.N.m.v.v.v.v.v.v.v.v.v.v.v.v.",
"n.v.v.v.v.n.m.m.m.B.C.S.D.C.P.P.H.P.P.P.D.S.S.S.S.S.S.S.  t M.C.S.S.S.V.S.S.S.S.S.S.S.S.S.S.C.V.C.V.S.V.B.N.N.N.N.m.n.v.v.v.v.v.v.",
"v.v.v.v.v.m.B.D.T.E.U.J.G.G.x.x.c.H.J.H.J.J.5.U.Y.E.E.E.= ) d   5.Y.D.Y.Y.5XE.E.5XE.E.Y.E.E.U.c.G.K.K.U.Y.R.T.P.D.D.V.N.n.v.v.v.v.",
"v.v.v.v.m.D.T.I.J.G.z.i.k.i.i.k.u.k.k.k.k.k.  2 c.K.W.B.[ } +._ O $     l.l.l.G.H.Y.E.5XE.U.x.k.k.k.k.z.z.z.x.G.P.T.R.T.D.m.v.v.v.",
"v.v.v.n.B.I.I.c.j.a.i.i.i.i.i.i.u.x < <.k.3 u X i.x.Y.  <X_ _ _ [ . } O.  k.k.k.l.G.J.E.E.K.d.u.k.u.i.u.i.i.k.z.x.K.Y.E.R.N.n.v.v.",
"v.v.v.m.S.I.c.y.y.y.i.i.g.d.g.g.s.] ] u         @.i.   . . .A >   x   h @ y.k.k.y.y.p.s.Y.H.i.i.i.i.d.d.d.i.u.u.k.z.G.Y.5XC.m.v.v.",
"v.v.v.n.S.I.z.i.a.g.g.g.g.g.g.g.$ z u u   > - - < k.v     e 9XuXuX  uX  g.g.g.g.f.% /   J.G.k.i.g.j.g.g.g.g.g.d.u.y.i.G.E.C.N.v.v.",
"v.v.v.n.S.I.x.y.g.g.g.g.g.g.g.g.  u 4     m -X  u.k.c.  uXuXiX=X|.; ,X  #.g.g.g.g.  > 7 G.x.k.i.d.g.g.g.g.g.g.g.d.u.u.x.5XP.N.v.v.",
"v.v.v.n.D.I.x.i.i.g.g.g.g.g.L.h.3 % Q uXuX  |.  %.  +   |.|..XX.  |.}.c ;.<   x j Q * ; z.z.i.d.g.g.g.g.g.g.g.g.g.d.i.z.E.P.V.v.v.",
"v.v.v.v.D.T.H.i.i.g.g.g.g.h.5X5XL.g.+ |.-Xq |.  J -.-.-.K r l 4.q.9.2Xq.7.0.4.  %.  S   u.k.i.i.g.g.g.g.j.g.g.g.g.d.i.k.T.P.V.v.v.",
"v.v.v.N.S.T.J.a.u.g.g.g.j.W.qXqX5XZ.c X |.F   -.-.-.-.-.9.r.  n X q.q.-.0.M.r.-.  9 X   < k.y.i.d.g.g.g.g.g.g.g.g.g.i.d.U.P.V.v.v.",
"v.v.v.n.S.E.Y.G.&.    s.j.L.qXsXwX: @X      =.r.A.A.w.-.r.  z n , 9.0.3Xr.0.-.-.=.+   h { < y.y.d.g.g.j.g.g.g.g.g.g.i.k.U.P.V.v.v.",
"v.v.v.n.S.R.Y.G.  O.O. .  4.qXsX  =.q =.w.q.r.-.A.2XM.r.3X    X   ;.q.q.r.-.-.-.=.2   A   k.d.k.u.d.d.g.g.g.g.g.g.g.i.k.I.P.V.v.v.",
"v.v.v.m.V.W.Y.G.  ) A + P . eXqXc =.9.r.$ + + t.t.7.t.0.r.r.L Q X L w.9.-.-.-.-.#   g.+ i.d.c.l.i.i.d.g.g.g.g.g.g.d.i.k.H.P.V.v.v.",
"v.v.v.m.V.R.Y.G.*.[ 2 # 1   eX  # =.2Xt.n ] z + 9.3Xt.r.r.r.  A.t.w.=.=.=.=.;.D T @ # d.i.z.H.J.x.i.p.g.g.g.%.X   g.i.i.J.I.B.v.v.",
"v.v.v.m.S.R.U.c.y.  Q X.  -X8X  >.9.3X% z z u @ r.r.w.7.-.r.2X3X=.=.=.>.=.  + T T U   #.<.3 %   M 3 u.#.      G   g.i.k.G.I.B.v.v.",
"v.v.v.m.C.T.I.x.y.      uX-   L =.r.4.@ u u @ 3 t.r.t.2Xr.r.-.-.=.=.>.+   T R ].T Y   1X9.3X;.q.;.$   R ;X;X$X].  g.i.k.G.I.C.v.v.",
"v.v.v.n.B.T.K.x.y.g.g.L.  .X+ q.0.e.r.    F uXl A.M.q.=.-.-.-.-.J r w T `.].].].R 5   -.-.-.>.c 2   E ).'.~.U w   g.d.i.j.P.B.v.v.",
"v.v.v.m.B.T.U.x.u.d.g.h.l # : 3XA.q.r.r.  |.Q   # t.=.=.>.:   1 * Y /.W         $     ;.>.>.>.  T T C     C R o p.g.i.i.l.P.C.v.v.",
"v.v.v.v.B.T.3 s.u.d.g.L.6X# w.0.r.9.>.=.O   q.w.w.=.=.1 Y T T T ..].].  r.=.q.1X0.=.    c K w I *   Y T T T   #.g.g.d.i.x.P.B.v.v.",
"v.v.v.m.C.R.    i.u.i.U.0X  q.9.>.>.=.=.k =.q.=.=.;.  5 T ].].].%X].].  q.3Xr.1X0.>.K       *   B T T T T   $ g.g.g.i.i.x.P.B.n.v.",
"v.v.v.n.S.E.S O.  M $ R.e.  >.>.=.=.    o =.=.    ; ; '.$X&X;X;X;X].[.N   r.>.#   ;   8     T T T T T Y   i.i.d.g.d.i.l.H.P.B.v.v.",
"v.v.v.m.S.5Xh gX+.  +.O I.    >.- 6 T T T ; * R 7   r.c   ;X].]./.B       l + =XfX  dX  U - T T T T T   H.k.y.k.i.u.k.z.Y.P.N.v.v.",
"v.v.v.m.S.R.A ) <X   .; z.< = w T /.].].].o   K t.9.t.9.  G T 8   X.:X{.o T 5 dXdXdXgX  ].    C T T T   6XG.k.k.y.i.z.H.E.P.V.v.v.",
"v.v.v.n.S.R.[ [       . i.  X T T ].].].8 v A.4X9.w.3X7.=..   * &X:X:XoXXX8 U   =X;   T ].  T   T T T   pX6XU.U.U.U.Y.E.5XP.N.v.v.",
"v.v.v.m.C.T.c :.=X  j }.    =.  T ).].].w ;.M.q.2X9.=.=.1 - XX:XuXtXtX:XoX    D   T T _.OXw T   T T Y + aX6XR.5XE.E.E.E.E.P.N.v.v.",
"v.v.v.m.S.R.E.U.  |.  S 3 3X=.K T R ].].5 >.=.=.$       U o XX+XtXtXtX:X:XXXXX9 XX  ].$X_.G R * T T   pXaX0X5X$       9.E.P.V.v.v.",
"v.v.v.v.S.R.E.G.y.    2Xr.r.=.  C T ].].N K ;.  }.dXdXuX8   XXXX:X:X,XyX:XXX    X.8 ;X  G ).D E T   9XeXeXqX2X#   P z 4 X P.V.v.v.",
"v.v.v.m.C.5XP.G.y.  q.7.A.2X>.- T T ].].T       9   dX|.    XXXX:XtXtXtX+Xw   9   B ;X  ].X.I 6   P 8Xj Q.wX  s a l 2     D.N.v.v.",
"v.v.v.m.S.T.K.x.  k 9.9.>.>.=.=.; T `.].'.].U U dXdXiX  XXXXXXXXXX>XoXd   X.].T R w   * ].    @XpXeXQ.& k . @ . z & & P n   B.v.v.",
"v.v.v.m.v X U.:.  >.  K k     : ; T R ].].]._.      6   XX            %X;X;X].T T Y ! D ].-   sXsXeX8X3.  . 0 a H @ a >     N.v.v.",
"v.v.v.m.  4.  D %X8 ).'.^.~.R ^.].].].].%X#X].R T T T 6       ..#X;X;X;X;X;X#X`.Y Y Y   O   t.0XqXpXrXQ.  p   a . f o p p     v.v.",
"v.v.M.c # 7.].&X$X].~.N         I ~.].].].;X].]./.!.~.].  w T ].].;X;X;X;X&X%Xd 5 6 w   %X+ j.h.5XqXsXaX. = 0 $ H z p p 8 + ,.2 v.",
"n.X   ~.].]...T *   8 T T T U o D . T ].].;X;X;X&X$X].].  T T R ].;X;XX.o   .XO e dX}.  ;X  g.j.5XeXpXX a > 7 0 H . p p   @.5.v.v.",
"v.  S T T w   w T T T T T T   ..R T N T ].].].I     *X;X  T T T ].S   .XdX    o   9 . w ].8 6.g.Y.0X1X> = g 0 f > : O   E.X v.v.v.",
"v.v.  ;   T T T T T T T T T   T $X]./.[.].].^.I T T   ;X  T T U   =X  8 O s * ; o = O Y ].].  g.h.W.  a a f . 7     $.a.Y.P.N.v.v.",
"v.v.v.b.            w T T T o C ].;X&X].[.].&X].T T B %XI V   o   O s > ;   gXO       T ~.].  i.i.<.7 g g * = >   d.i.a.K.D.V.v.v.",
"v.v.v.N.T.E.E.E.G.i.  ..T T T   U ].&X].T ).;X$XT T T ].&X  e dX  s 8 G |.      B Y T T T X X i.u.    > p p >   g.g.i.a.K.D.N.v.v.",
"v.v.v.N.T.E.E.E.U.l.*.  $X$X].].].[./.].  T ^.&X#XE E _.;X|     6 *       I T T T T T O   s.x     D R ^.    b y.d.i.u.z.Y.D.N.v.v.",
"v.v.n.N.R.5XE.5XE.G.y.y.            w T V   B R ].'...].].].;   s   8 T T T T T 8     i.k.6.6 T U ; D !.D (.  k.u.u.k.c.E.D.N.v.v.",
"v.v.v.N.Y.E.Y.Y.Y.K.z.i.$.  T ].~.;X6   e ;X    E `.].].%X].].(.  T T T T D       8         Y E T V B V V &X  G.z.i.x.K.E.D.N.v.v.",
"v.v.v.N.E.5XU.l.z.G.H.G.  I T ).].;X].T ].$X*X`.).~.D `.].].].].T T T I o   d B   D T T T T T   T   %X~./.S % E.Y.Y.E.E.E.D.N.v.v.",
"v.v.v.N.E.U.G.y.&.  X   E Y o ;X].OX/.6 Y T ~.].T T .   ].].].].~.5   - ).].  B T o ; T T T       Y ].].>X  #.E.E.E.5XE.E.S.N.v.v.",
"v.v.v.N.R.H.k.< o ].].  * O ;X8 Y C U S     ].~.T T V   W V       ..].].].].].]...Y   T T 8   * T   B ].> M z.U.E.E.E.E.E.S.N.v.v.",
"v.v.v.N.E.G.  w ].T ;X].(.*X  E   6.%.6.p.  (.T T T T ].B W *X;X;X;X;X;X$X;X;X].!.T   .     /   Y $X%XS d.k.z.H.E.E.E.E.5XS.N.v.v.",
"v.v.v.N.E.3 N Y ;X[.$X&X].T Y   j y.y.u.i.p.  T T T T ].].].;X;X;X;X;X@ * #X].~.T     ;.  / o o   Z $X  d.k.l.H.Y.H.G.K.E.S.N.v.v.",
"v.v.v.N.Y.  T T   '.).$X$XG   C.G.z.d.k.u.k.  E R T T R '.].].].'.).R T E E Z     . P     { }   g.$.$ 6.i.y.d.H.z.k.k.k.G.C.N.n.v.",
"v.v.v.N.Y.:.  U T   ].].T T o Z.Y.K.K.K.G.c.  .         > 8 6 ;           , i ' ` . l   g a . g.g.g.d.d.k.k.z.c.k.u.u.u.x.C.N.v.v.",
"v.v.v.N.T.G.  U T T   ].; U T j G.Y.Y.E.E.E.. ~ / ' ~ ~ ~ ~ ~ ~ ~ ( ^ ` ` ` ` ~ i   eXwX  p > g.d.d.d.u.d.x.x.d.y.u.d.k.z.C.N.v.v.",
"v.v.v.N.T.H.3     E T ;   T D j i.c.J.Y.E.E.  ~ ` ` ` ` ` ` ` ` ` ( ^ ( ( y @     3.rXsXpX    g.g.d.u.k.G.H.z.u.y.d.d.i.x.C.N.v.v.",
"v.v.v.N.P.I.l.k.  T Y       < d.u.y.k.x.K.E.  ( ` ` ' ( ` ( ^ t .       . y ~   2.Q.8XqX7XW.g.g.g.d.i.x.H.z.u.u.d.d.d.i.z.V.N.v.v.",
"v.v.v.N.P.I.l.y.i.    g.g.g.g.g.d.d.y.i.x.K.l   ^ i ,       , y ~ ~ ~ ~ ^ t   ~   rXeX7XW.h.g.g.d.i.z.H.x.i.i.d.d.d.d.i.x.C.N.v.v.",
"v.v.v.N.P.R.x.k.d.g.g.g.g.g.g.g.g.d.u.y.k.z.Y.Y.x <   ~ ~ ~ ~ ~ ^ i ,     , ~ ~   X pX7XG.g.g.g.d.i.z.K.i.i.d.g.g.g.d.k.z.C.N.v.v.",
"v.v.v.N.P.E.G.k.d.g.g.g.g.g.g.g.g.g.d.d.u.u.U.Y.x.x i             % 1.g.3   ,   U   q 6XL.g.g.g.d.i.x.K.k.u.d.d.g.g.d.k.z.Z.N.v.v.",
"v.v.v.m.P.E.G.k.y.i.d.g.g.g.g.g.g.g.g.d.i.u.J.K.c.j ^ ~ ^ , *.g.g.g.g.g.g.5.X   8 N   L.h.g.d.d.i.k.x.K.i.y.i.g.g.g.d.i.z.P.N.v.v.",
"v.v.v.m.P.Y.U.c.i.u.i.i.i.d.d.d.i.i.d.i.u.y.H.Y.G.@.t ^ ^   i.i.i.i.i.g.g.j.h.G.3   v c.g.d.d.u.y.z.J.U.y.y.i.y.d.d.i.i.x.C.N.v.v.",
"v.v.v.m.B.R.E.I.G.z.i.i.i.i.i.u.i.y.u.i.u.k.K.Y.K.k.      i.y.i.u.i.u.i.d.d.d.u.H.Y.U.l.d.u.u.k.z.H.Y.Y.x.l.k.y.i.u.u.k.G.C.m.v.v.",
"v.v.v.v.m.D.I.5XE.U.G.x.z.l.i.a.z.l.g.i.z.c.Y.E.Y.c.  T   i.l.l.j.l.i.i.u.u.i.d.K.E.Y.G.z.k.z.x.U.E.E.E.U.G.G.x.z.k.z.x.I.V.n.v.v.",
"v.v.v.v.v.N.S.I.E.E.E.E.R.U.J.U.E.R.Y.Y.R.E.E.E.E.E.  e j H.R.5XE.Y.I.c.i.i.u.x.I.5XE.E.I.K.U.E.E.E.E.E.E.E.E.E.T.Y.Y.P.D.N.v.v.v.",
"v.v.v.v.v.v.n.N.N.V.N.N.N.N.N.N.N.N.V.C.C.S.S.S.C.D.D.c P.T.T.R.T.T.T.P.H.G.G.I.R.R.I.P.P.P.S.S.P.D.D.D.S.D.P.S.D.D.V.N.m.v.v.v.v.",
"v.v.v.v.v.v.v.v.v.v.v.v.v.v.v.v.v.v.m.m.m.m.m.N.m.N.N.N.B.B.C.B.V.V.C.B.B.N.B.C.B.C.V.N.m.N.N.N.N.N.N.N.N.N.N.N.N.N.m.v.v.v.v.v.v.",
"v.v.v.v.v.v.v.v.v.v.v.v.v.v.v.v.v.v.v.v.v.v.v.v.v.v.v.v.v.v.v.n.n.n.v.v.n.v.v.v.v.v.v.v.v.v.v.v.v.v.v.v.v.v.v.v.v.v.v.v.v.v.v.v.v.",
"v.v.v.v.v.v.v.v.v.v.v.v.v.v.v.v.v.v.v.v.v.v.v.v.v.v.v.v.v.v.v.v.v.v.v.v.v.v.v.v.v.v.v.v.v.v.v.v.v.v.v.v.v.v.v.v.v.v.v.v.v.v.v.v.v."
};
