/* XPM */
static char *_1fue_pizxf[] = {
/* columns rows colors chars-per-pixel */
"65 65 231 2 ",
"   c #000000",
".  c #090B05",
"X  c #090709",
"o  c #0D0B0C",
"O  c #080604",
"+  c #130707",
"@  c #0E120A",
"#  c #12130B",
"$  c #131A0B",
"%  c #1E140B",
"&  c #120E11",
"*  c #131112",
"=  c #1D161D",
"-  c #1A1716",
";  c #230A08",
":  c #2A0B09",
">  c #350F0C",
",  c #22191A",
"<  c #361014",
"1  c #19230C",
"2  c #1E2515",
"3  c #222A18",
"4  c #2A371A",
"5  c #342B0D",
"6  c #241B23",
"7  c #2A1E26",
"8  c #381523",
"9  c #2D222D",
"0  c #282725",
"q  c #372629",
"w  c #2D3823",
"e  c #313B25",
"r  c #3B2D3C",
"t  c #362935",
"y  c #373534",
"u  c #501212",
"i  c #53361E",
"p  c #492F1B",
"a  c #79211A",
"s  c #50162D",
"d  c #40272C",
"f  c #472B2C",
"g  c #462E36",
"h  c #573736",
"j  c #4B3E2C",
"k  c #642D28",
"l  c #364C1A",
"z  c #38452A",
"x  c #374829",
"c  c #475735",
"v  c #4A522B",
"b  c #695031",
"n  c #4D6835",
"m  c #55663C",
"M  c #527230",
"N  c #595309",
"B  c #3F3040",
"V  c #433345",
"C  c #4C3A4C",
"Z  c #493847",
"A  c #513E53",
"S  c #523C4C",
"D  c #4B4A49",
"F  c #564A4D",
"G  c #5A455B",
"H  c #5B4356",
"J  c #674F55",
"K  c #5B6F46",
"L  c #657A49",
"P  c #6C6A4A",
"I  c #5E4860",
"U  c #664D65",
"Y  c #6B516B",
"T  c #6F5571",
"R  c #765A78",
"E  c #7B5D7C",
"W  c #775A74",
"Q  c #795E6D",
"!  c #666564",
"~  c #76736F",
"^  c #8C261E",
"/  c #86241D",
"(  c #9B3331",
")  c #AE242A",
"_  c #D31C35",
"`  c #D6263E",
"'  c #B64D29",
"]  c #AE4527",
"[  c #836A3A",
"{  c #8C2954",
"}  c #AC2E52",
"|  c #993862",
" . c #DA3C52",
".. c #D33850",
"X. c #8E7442",
"o. c #845B72",
"O. c #85627E",
"+. c #83676D",
"@. c #B45272",
"#. c #DD485C",
"$. c #C66976",
"%. c #5D842B",
"&. c #688933",
"*. c #6C9935",
"=. c #628E2F",
"-. c #76A937",
";. c #5E8F42",
":. c #6B8453",
">. c #728C57",
",. c #79965E",
"<. c #78955E",
"1. c #709348",
"2. c #7DAB52",
"3. c #7E9B61",
"4. c #83B53F",
"5. c #81925C",
"6. c #86B148",
"7. c #859C63",
"8. c #83817D",
"9. c #8AA666",
"0. c #9AB76C",
"q. c #92B26C",
"w. c #A0BD6F",
"e. c #A6BB77",
"r. c #BBB56E",
"t. c #AC9861",
"y. c #96C849",
"u. c #96DC45",
"i. c #99DC47",
"p. c #9CDD4B",
"a. c #9ED24D",
"s. c #94CE4B",
"d. c #A2DC4E",
"f. c #A1D54E",
"g. c #A6DC51",
"h. c #ACDE5B",
"j. c #A8DD54",
"k. c #9DE04F",
"l. c #9FE051",
"z. c #A1E155",
"x. c #A5E35B",
"c. c #A8E45E",
"v. c #8DCB66",
"b. c #90CD67",
"n. c #92CE68",
"m. c #95D16A",
"M. c #9BD56D",
"N. c #9FD96E",
"B. c #A1DA6D",
"V. c #A8DB68",
"C. c #AAC378",
"Z. c #A4DB71",
"A. c #A9DE74",
"S. c #B0D36F",
"D. c #ABE563",
"F. c #AEE669",
"G. c #B2E064",
"H. c #B1E66B",
"J. c #B2E86D",
"K. c #B8E26E",
"L. c #ADE174",
"P. c #B2E674",
"I. c #B6E972",
"U. c #B9EA76",
"Y. c #B5E67A",
"T. c #BDE579",
"R. c #B7E87B",
"E. c #BDEC7D",
"W. c #BBE374",
"Q. c #F1E44E",
"!. c #D2E173",
"~. c #846382",
"^. c #8C6987",
"/. c #936D8C",
"(. c #916A85",
"). c #9B738E",
"_. c #98748A",
"`. c #9D7392",
"'. c #9C7893",
"]. c #A17696",
"[. c #A57A99",
"{. c #A97B9B",
"}. c #A27B97",
"|. c #A86A82",
" X c #E67B8A",
".X c #9B9794",
"XX c #8F8B87",
"oX c #A58188",
"OX c #AC878F",
"+X c #B58D98",
"@X c #A29E9A",
"#X c #BB929E",
"$X c #AC829C",
"%X c #B285A2",
"&X c #BB8EA9",
"*X c #B78BA6",
"=X c #BE91AB",
"-X c #AF82A0",
";X c #B5B2B0",
":X c #B4B88D",
">X c #C195AD",
",X c #C79BAA",
"<X c #CBA1B0",
"1X c #D3ADBC",
"2X c #E88390",
"3X c #B4C981",
"4X c #B9C988",
"5X c #BBD786",
"6X c #C8D493",
"7X c #C8D498",
"8X c #C3D28F",
"9X c #C7E887",
"0X c #D4EC9A",
"qX c #CFE992",
"wX c #D9ECA2",
"eX c #DAF0A7",
"rX c #E3EFB1",
"tX c #E7F1B9",
"yX c #F5F0A6",
"uX c #C4C1BC",
"iX c #DFBFCE",
"pX c #D7B3C2",
"aX c #CAC8C6",
"sX c #D4D1CC",
"dX c #D2CFCA",
"fX c #EEF3C3",
"gX c #F3F4C9",
"hX c #F0F0C9",
"jX c #FEFEFE",
"kX c #F3F3F3",
"lX c #E8E8E8",
/* pixels */
"B.n.v.v.v.v.v.v.v.v.v.v.v.v.v.v.v.v.v.v.v.v.v.v.v.v.v.v.v.v.v.v.v.v.v.v.v.v.v.v.v.v.v.v.v.v.v.v.v.v.v.v.v.v.v.v.v.v.v.v.v.v.v.v.v.",
"m.n.v.v.v.v.v.v.v.v.v.v.v.v.v.v.v.v.v.v.v.v.v.v.v.v.v.v.b.b.v.v.v.v.v.v.v.v.v.v.  v.v.v.v.v.v.v.v.v.v.v.v.v.v.v.v.v.v.v.v.v.v.v.v.",
"n.b.v.v.v.v.v.v.v.n.n.m.m.M.m.M.M.M.M.M.m.m.m.m.m.m.m.# X.  m.m.4 v M m.m.m.n.9.$.n m.m.m.n.m.m.m.m.m.b.b.v.v.v.v.v.v.v.v.v.v.v.v.",
"b.v.v.v.v.b.n.n.n.M.B.Z.B.B.L.L.L.L.L.F.L.B.B.B.Z.Z.1 [ [ i   N.O b 3 Z.B.Z.B.  #.  Z.Z.Z.Z.N.N.N.B.B.N.M.M.n.n.n.n.n.v.v.v.v.v.v.",
"v.v.v.v.v.n.M.A.Y.E.U.H.F.c.c.c.D.F.F.F.F.F.H.I.R.E.% i i i   X y     U.U.R.O }  .|.  E.E.E.I.D.D.J.I.I.U.R.Y.L.A.Z.M.M.n.v.v.v.v.",
"v.v.v.v.n.A.Y.P.F.D.z.k.k.k.i.k.@   2 k.k.k.k.l.x.J.x   w +.6.  y .X  z.  8 }  . ._  X  E.I.c.p.k.p.l.l.l.z.c.F.P.R.R.P.A.n.v.v.v.",
"v.v.v.b.M.P.P.c.z.k.i.i.p.p.i.p.  _ ) O p.i.p.i.k.x.U.  aXsX  . ;X  *.i.  |.@..._ _ } {     l i.i.i.i.i.i.p.k.z.c.F.U.E.R.M.v.v.v.",
"v.v.v.n.Z.P.c.u.i.i.p.d.d.g.g.g.!  ._ @.O d.d.d.i.i.H.  .XdX6 D ~ i.p.p.f.#       +     |  .  p.d.d.g.d.d.p.i.i.i.g.F.R.E.B.n.v.v.",
"v.v.v.n.Z.J.x.i.g.g.g.g.g.g.g.g.s u   0     g.d.l   v o XX.XO .X  O   O   @XdXsXsXsX;Xy.  { ) p.g.g.g.g.g.g.g.d.p.u.k.D.9XZ.m.v.v.",
"v.v.v.n.Z.L.x.i.d.g.g.g.g.g.g.g.  ~     J   g.. w <.4 <.3   m c 3.<.<.<.:.2 .X.X.X.Xw ~ sXX # a.g.g.g.j.g.g.g.g.g.p.p.x.R.L.m.v.v.",
"v.v.v.n.Z.U.c.i.d.g.g.g.j.j.G.V.# Q   X . z.d.  <.,.3.<.q.9.9.0.0.9.<.3.,.m O - y   * @XXX1 p.p.d.g.g.g.g.g.g.g.g.p.i.l.E.L.m.v.v.",
"v.v.v.n.Z.R.D.p.i.g.g.g.j.h.T.9XG.j.  dXl .   c <.0.w.m   4 7.,.C.8XC.9.,.0.C.m w.w.  y .   *.p.g.g.g.&.  f.j.g.g.g.p.k.R.L.M.v.v.",
"v.v.v.b.Z.R.J.l.i.d.g.g.&.K.rXtXqXh.M XX~   >.<.<.8Xe [ [ [ 1 w.0.m.w.w.w.O O [   w.7X7Xw.w.    g.g.O o.} y.j.g.g.g.p.k.I.L.M.v.v.",
"v.v.v.n.Z.R.U.D.u.d.g.d.O K.rXgXfX0XtX      3.w.m.e.% b b b + w.3.<.9.9.6X  p i 5 w.w.9.,.,.9.v 3 a.3 # % 4.j.g.g.d.p.k.I.L.M.v.v.",
"v.v.v.n.N.R.U.D.u.d.x.  #.- rXgXgXgXhX% 7.6Xe.<.4XO i i i i   5.e.w.w.w.w.w.w uXo w.w.7Xw.w.w.,.  4.    F d.g.g.g.g.p.k.J.L.M.v.v.",
"v.v.v.v.N.R.U.D.u.d.v s 2X  :XX yXgXhXz w.9.C.w.w.w.1 y 3 ! C.w.e.<.,.7.w.  o O   e w.w.w.,.,.,.K   y 4 M g.g.g.g.g.k.k.F.L.M.v.v.",
"v.v.v.n.M.R.U.D.u.d.  } _ u < { Q.r.  <.9.<.7.<.3.w.  XX@X8.:.3Xe.e.8XC.C.8X8X0.w.<.9.<.9.<.<.3.,.L   +   d.g.g.g.g.p.p.H.L.M.v.v.",
"v.v.v.n.Z.R.I.c.u.d.s { } s   ..1 p z <.<.<.<.<.3.#           w.w.<.m.3.0.0.w.,.<.<.<.<.<.<.<.<.,.# F { ..O g.g.g.g.p.k.H.P.M.v.v.",
"v.v.v.b.M.R.P.x.i.g.6.c ! =     N Q.  w K   :.#   >.<.w.w.C.C.9.5.3.,.,.<.<.<.<.<.3.3.- >.3.      4   S   j.g.g.g.g.d.p.c.P.M.v.v.",
"v.v.v.n.M.R.J.x.i.g.h.1.@X  P ;XQ.  w Y T R R R R R <.<.c 3.3.c <.        <.<.- o   o X R R R R * 4 p.p.g.g.g.g.g.g.d.p.x.P.M.v.v.",
"v.v.v.b.M.R.I.x.i.k.g.h.D o   g     e R R ~./.`.{.R . w   z   V   R R R T   - T T R E ^./.~.`.R 6 . c.u.p.g.g.g.g.g.d.p.z.P.M.v.v.",
"v.v.v.b.M.R.J.x.i.p.g.G.    $   3X3.3.X R '.{.{.{.{.E E `.S - `.}.].{.{.{.^./.{.{.    {.{.{.`.R O   # l *.d.g.f.g.g.d.p.z.P.M.v.v.",
"v.v.b.b.B.R.:.1 p.i.y.    0.<.q.w.9.3.o R {.{.{.6 w v L L 0.w.n o.%X>X>X>X>X%X{.  C.0.$   {.'.  z 3.0.6X7.5.X 6.g.d.p.p.x.L.M.v.v.",
"v.v.b.n.Z.E.  e.D.l.  K >.0.w.C.9.<.  * R {.{.{.  9.C.:X3.3.0.w.  {.&X&X>X=X{.].  9.9.3.c X   2 <.<.3.9.0.w.c 3   d.i.k.H.L.M.v.v.",
"v.v.M O     3Xe.& 7 & e 3 3.<.<.3.<.  R R {.{.R   3.w.C.4Xw.3X<.L 6 E R R R R r <.9.C.0.3XC.<.z   <.<.3.3.>.,.,.& *           x v.",
"v.v.$ R E {.O.(.{.>X*X/.].        <.w R R {.{.R   2 3 z c K >.<.K               e ,.<.<.:.x .   o   <.  w O 9 C R {.%X&X>X>X=X  v.",
"v.v.q.@ R R C r = o , 9 r C G ~.{.    R R {.{./.R R   jXjXlX-   V y +X,XpX1X,XOX  =   .XkXjX0 G ).  X I C r 9 = & 6 t C R /.9 1.v.",
"v.v.v.      6 r A G A B 9 = X   G `.{.].R {.{.{.{.R   sX  jXuX  9 oX+X1XiXiXiX#Xq R   jXjX    = /.      = 9 r A G A r 6       b.v.",
"v.v.v.b.n   I R R R R R R R R R X   R {.{.{.=X{.{.R   jX0 jX;X    oX#X<XiXiXiX,X_.Y   jXjXjXD C '.  R R R R R R R R R Y   e m.v.v.",
"v.v.v.n.Z.R.L     U R R R R R   R R   R {.{.>X{.{.R   D kXaX      oX+X,X<X,X,X,XoX  g       & R {.    R R R R R U   . n E.L.M.v.v.",
"v.v.v.b.Z.Y.R.D.%.  V R R R U = {.R t R {.{.=X{.{.~.R         , oXoXOX<XiXiXiX,XoXoXoX  G U R `.{.  r C R R R I   L 9XE.9XL.m.v.v.",
"v.v.v.b.Z.Y.I.x.u.d.  E R R t U {.{.R R {.{.%X>X>X&X[.R R /.  +.    X oX#X+X+X+.    F   {.{.{.{.%X  R & R R R O wXE.U.E.E.L.M.v.v.",
"v.v.v.n.Z.R.I.x.u.d.  9 ).R R   ].>X{.{.{.{.{.{.{.&X-X{.{.{.A 6 G H &         0 `.9 A C {.>X=X%Xy , X Y R R V   W.D.H.E.E.L.M.v.v.",
"v.v.v.b.N.R.U.D.u.d.g.  t =X{.).`.{.>X{.{.{.{.V r 6   >X{.{.* R ~.{.>X>X>X>X>X>X{.R R X *X>X  Y   T R R E t   9Xg.f.c.U.E.P.M.v.v.",
"v.v.v.b.N.R.9XJ.u.p.d.g.  . _.=X{.{.{./.R {.=X'.R R   >X&X`.  R O.{.>X>X>X>X>X>X{.R R   /.>X  {.  R R Y o   tX0Xj.i.z.F.9XA.m.v.v.",
"v.v.v.b.N.R.E.J.i.i.d.g.g.a.4     & ~.O T E >X{.R R   >X>XE   R R {.>X>X>X>X>X>X{.R R   ^.>X          0 7XgXgX0Xj.d.p.c.E.A.M.v.v.",
"v.v.v.n.N.R.9XI.u.p.d.d.g.g.d.g.D.  C r   R {.>X^.R 6 =X>XR   R R {.>X>X>X>X>X>X{.R R   ].>X  W   wX0XW.T.qX0X9Xx.f.p.z.E.L.m.v.v.",
"v.v.v.n.A.E.E.J.i.p.d.g.g.g.i.d.2.        o E >X].R R >X>XR   R R {.>X>X>X>X>X>X{.R R   $X>X    6.T.W.g.g.G.K.G.g.g.p.l.U.A.m.v.v.",
"v.v.v.m.L.E.E.I.k.p.d.g.d.g.p.4   8X4Xc V     `.{.R ^.-X{.E   R R H =                 O '.>X  i.k.p.d.d.d.d.g.g.g.d.p.k.J.L.m.b.v.",
"v.v.v.m.R.E.E.U.D.i.d.d.d.d.M   3X3.0.<.  R E R {.{.{.{.{.{.    #   jX  o 0 9 & o ~ jX  {.{.  i.k.u.u.u.i.p.d.d.g.g.i.l.J.Z.m.v.v.",
"v.v.v.m.Y.R.9XU.U.l.i.p.d.y.  9.<.<.O   J ~.R R R   {.*X{.{.  ;XU R = R R R R R R     Y {.{.  D.c.x.x.z.l.k.i.i.f.d.k.k.I.Z.m.v.v.",
"v.v.v.m.R.9X9XE.E.c.k.i.p.  2 <.z   * W {.{.R R R   {.{.{.{.T   . R R R R R R R R 7 o R {.{.  c.c.x.x.x.D.c.z.k.u.k.k.c.E.F.m.v.v.",
"v.v.v.m.E.E.U.U.E.J.z.i.i.  &   t *X>X>X{.{.E {.R   {.{.{.{.W W R R R R R R R R R R R R {.`.  u.p.p.k.k.F.J.J.c.k.k.x.I.9XA.m.v.v.",
"v.v.v.m.U.E.J.x.z.D.F.F.F.  E >X{.>X>X>X{.{.%X>X&XO   7 r U I G C r = @                   l d.f.i.u.u.u.u.D.I.E.U.I.U.E.E.A.m.v.v.",
"v.v.v.m.9XI.x.k.i.p.p.z.I.& /.%X{.>X>X&XR {.%X>X>X>X,                 X $ 4 4 M 6.f.g.g.g.d.g.d.d.d.d.d.i.k.c.E.E.E.9XE.E.Z.m.v.v.",
"v.v.v.m.I.F.l.u.p.i.i.k.D.9 ).=X{.{.{.[.6 A {.S Y o.{.,X>X>X>X,X{.*X>X6 -.D.qXT.G.g.g.j.g.j.g.g.g.  a.d.d.i.z.I.E.E.E.E.E.Z.m.v.v.",
"v.v.v.m.E.F.k.k.g.g.d.i.i.  E =X>X`.V     +   U C I {.{.&X=X$X{.{.    -   W.tXeXE.H.K.G.j.j.g.d.l ;.%.j.d.p.l.F.E.U.E.E.E.Z.m.v.v.",
"v.v.v.m.E.l.k.k.g.g.g.p.  R ^.`.=X{.E V r /.{.{.{.>X>X>X>X=X>X=X-X{.{.E R     fX0X0XrX0XG.g.g.&.$         o   1 U.J.D.I.E.Z.m.v.v.",
"v.v.v.m.P.x.k.k.d.g.g.d.  R }.{.&X{.W   R O.{.{.{.>X>X>X>X>X$X>X>X>X{.{.R   G   fXgXhXK         % 8 q h h f b   g.p.k.k.H.B.m.v.v.",
"v.v.v.m.9Xl.k.k.g.g.g.g.d.G R _.{.R       V R R E /.{.{.{.{.{.-X%X{.'.E R   R   O   + g f q 8 O O * d f J   v P -.p.u.i.x.B.m.v.v.",
"v.v.v.m.R.D.k.k.g.g.g.g.y.A R Q Y R   ' ^ / +     O o 9 r C G H G V o     R R U H W   h h h h d O   f J b   - b l p.i.p.z.B.m.v.v.",
"v.v.v.m.Y.F.l.k.g.g.g.g.g.t R J * Y   ' ' ' ] ^ ^ u > +             > a   = =   R {.  g b h f O q q +   ,   # b $ d.d.d.z.B.m.v.v.",
"v.v.v.n.P.J.l.k.d.g.g.g.g.  R H * A   ' ' ' ' ' ' ' ( ' ] ] ' ' ' ' ' '   R /./.  &Xr d d q d h , b h q h   v t.M g.d.p.x.B.m.v.v.",
"v.v.v.m.L.P.l.u.d.g.g.d.@   I H E X   O > : ; + + + + ; ; ; + + + +     O C {.`.  U O..     q   O & d d d d O   d.g.p.k.z.B.m.v.v.",
"v.v.v.m.L.P.x.k.d.g.g.6.  {.{.{.{.H g t   + ; ; : ; ; ; ; ; ; : > O   (.(.{.{.{.[.%X].q.G.&.    , f d d d d   3 g.g.d.p.z.B.m.v.v.",
"v.v.v.n.L.9XD.u.d.g.g.  {.>X>X>X{.R R R o : ^ ^ ^ ^ ^ ^ ^ ^ ^ u   u   o >X  Z >XQ   + qXG.g.g.g.6.l         y.d.g.g.d.p.z.V.m.v.v.",
"v.v.b.n.L.R.D.k.u.d.d.  ]./.{.~.{./.V U   >                   u ^ ^ ;   1 h.w.P 5X9X9XJ.c.g.d.g.i.k.x.  M     d.g.g.d.p.z.B.M.v.v.",
"v.v.v.n.L.E.I.c.i.u.i.  ^..       R B   /   D.I.D.u.p.g.g.d.%.O ^ a O   g.j.c.H.I.U.U.x.g.d.d.p.u.z.F.. =.u.u.u.d.d.p.k.x.V.m.v.v.",
"v.v.v.b.M.R.R.I.D.x.k.  R 9 9 9 B R R     1 J.E.H.k.i.i.i.i.i.l       1 d.d.d.i.F.U.I.l.d.i.p.p.x.F.I.I.l.l.k.k.i.i.i.k.F.N.m.v.v.",
"v.v.v.b.n.A.Y.E.E.J.D.  R V R R = R Y   6.c.U.E.I.D.l.k.p.k.z.z.3 H X $ u.p.i.d.F.E.E.D.k.k.k.x.J.E.9XE.I.F.c.x.k.z.z.x.P.M.v.v.v.",
"v.v.v.v.v.m.Z.Y.E.E.E.R.  .             E.E.E.E.E.E.I.D.F.H.U.E.E.    *.k.i.i.x.I.9XE.R.I.I.I.E.E.E.9XU.E.E.E.E.R.U.U.P.Z.m.v.v.v.",
"v.v.v.v.v.v.b.m.m.M.m.m.m.m.n x n.;.3 2.N.N.Z.Z.Z.Z.L.L.P.R.R.R.R.n c P.F.D.F.P.R.Y.P.L.L.Z.Z.Z.L.Z.L.L.Z.L.A.Z.Z.Z.N.m.m.v.v.v.v.",
"v.v.v.v.v.v.v.v.v.v.v.v.v.v.v.v.v.v.v.n.m.n.m.b.v.m.m.M.M.M.M.M.M.B.N.M.M.M.M.M.N.N.M.m.n.m.m.m.m.m.b.n.m.m.m.m.m.m.v.v.v.v.v.v.v.",
"v.v.v.v.v.v.v.v.v.v.v.v.v.v.v.v.v.v.v.v.v.v.v.v.v.v.v.v.v.v.b.v.v.v.v.v.v.v.v.v.v.v.v.v.v.v.v.v.v.v.v.b.v.v.v.v.v.v.v.v.v.v.v.v.v.",
"v.v.v.v.v.v.v.v.v.v.v.v.v.v.v.v.v.v.v.v.v.v.v.v.v.v.v.v.v.v.v.v.v.v.v.v.v.v.v.v.v.v.v.v.v.v.v.v.v.v.v.v.v.v.v.v.v.v.v.v.v.v.v.v.v."
};
