/* XPM */
static char *_6512b7faa0e4c12e56d1a85210e936ddglmHSCa1JjQDj2M[] = {
/* columns rows colors chars-per-pixel */
"65 65 243 2 ",
"   c #040303",
".  c #0D0B0B",
"X  c #0A0906",
"o  c #120C0D",
"O  c #160605",
"+  c #0E120A",
"@  c #15160C",
"#  c #130E11",
"$  c #1C0D13",
"%  c #151214",
"&  c #1A1115",
"*  c #1C151B",
"=  c #1C1B1A",
"-  c #191A14",
";  c #250B08",
":  c #3D110D",
">  c #24151A",
",  c #231A1D",
"<  c #291B19",
"1  c #2C1414",
"2  c #1D2214",
"3  c #1B2413",
"4  c #1D2810",
"5  c #242C1B",
"6  c #242718",
"7  c #332816",
"8  c #2A3618",
"9  c #36341C",
"0  c #212F0F",
"q  c #241C23",
"w  c #2A1D24",
"e  c #291D27",
"r  c #331C23",
"t  c #2A2125",
"y  c #2C222B",
"u  c #292827",
"i  c #372529",
"p  c #2C3422",
"a  c #343928",
"s  c #322632",
"d  c #352934",
"f  c #3B2D3C",
"g  c #3A2B36",
"h  c #383636",
"j  c #1F1820",
"k  c #561813",
"l  c #471415",
"z  c #661C16",
"x  c #711F18",
"c  c #4D2D1A",
"v  c #79241A",
"b  c #662316",
"n  c #4D1B2A",
"m  c #6B1C2D",
"M  c #452B2C",
"N  c #44353B",
"B  c #4C3235",
"V  c #672635",
"C  c #35491A",
"Z  c #364C1A",
"A  c #384528",
"S  c #3E4B31",
"D  c #375323",
"F  c #444816",
"G  c #445826",
"H  c #424935",
"J  c #485835",
"K  c #50482C",
"L  c #654B2D",
"P  c #4B6526",
"I  c #57782A",
"U  c #546539",
"Y  c #577638",
"T  c #4F6A2E",
"R  c #69713A",
"E  c #3F3040",
"W  c #443444",
"Q  c #4C3A4C",
"!  c #4A3A45",
"~  c #523E4A",
"^  c #523E51",
"/  c #4F3C50",
"(  c #643548",
")  c #464544",
"_  c #57554C",
"`  c #554056",
"'  c #5B455C",
"]  c #5A4454",
"[  c #585654",
"{  c #55484A",
"}  c #674F55",
"|  c #596A45",
" . c #5D7348",
".. c #66794A",
"X. c #6C7854",
"o. c #634B64",
"O. c #684E67",
"+. c #6C526D",
"@. c #6D5165",
"#. c #75586A",
"$. c #6F5571",
"%. c #725673",
"&. c #745975",
"*. c #765A78",
"=. c #7B5D7A",
"-. c #7B5C73",
";. c #736E6D",
":. c #5F4860",
">. c #86251D",
",. c #902F1F",
"<. c #932D20",
"1. c #993622",
"2. c #8C2233",
"3. c #A23B24",
"4. c #921F2F",
"5. c #B44B29",
"6. c #AC4427",
"7. c #8D354B",
"8. c #AC3953",
"9. c #CE344A",
"0. c #875D78",
"q. c #B64D68",
"w. c #86657A",
"e. c #8D7579",
"r. c #965B4C",
"t. c #D95266",
"y. c #62892F",
"u. c #678933",
"i. c #6B9534",
"p. c #719937",
"a. c #78A63B",
"s. c #7CB23D",
"d. c #5C842C",
"f. c #769A48",
"g. c #6B8553",
"h. c #748C57",
"j. c #79965E",
"k. c #78965A",
"l. c #698B46",
"z. c #7CAC50",
"x. c #7E9B60",
"c. c #7F8268",
"v. c #5F8844",
"b. c #82B33E",
"n. c #82995D",
"m. c #8C8853",
"M. c #89B844",
"N. c #87AF54",
"B. c #839E62",
"V. c #888D6E",
"C. c #8BA565",
"Z. c #89A665",
"A. c #94AC6A",
"S. c #9DBA6E",
"D. c #97B46A",
"F. c #99B66F",
"G. c #A4BC75",
"H. c #A0BD6F",
"J. c #8CC744",
"K. c #95C649",
"L. c #96DB45",
"P. c #99DC47",
"I. c #9CDD4B",
"U. c #9BD34A",
"Y. c #9CD952",
"T. c #93CA4F",
"R. c #A2DC4E",
"E. c #A6DC51",
"W. c #A9DD58",
"Q. c #A5CE5F",
"!. c #9EE051",
"~. c #9DE04F",
"^. c #A1E155",
"/. c #A5E35B",
"(. c #A8E45E",
"). c #8DCB66",
"_. c #88C463",
"`. c #90CD67",
"'. c #92CE68",
"]. c #9DC368",
"[. c #95D16A",
"{. c #9BD56D",
"}. c #9BD66B",
"|. c #A1DA6D",
" X c #A7D667",
".X c #ABC279",
"XX c #A5DB71",
"oX c #A9DE73",
"OX c #ACD572",
"+X c #ACD46F",
"@X c #ABE563",
"#X c #AEE669",
"$X c #B1E66B",
"%X c #B2E86D",
"&X c #B4E066",
"*X c #ADE174",
"=X c #B2E674",
"-X c #B6E972",
";X c #B9EA76",
":X c #B5E67A",
">X c #BDEC7D",
",X c #B9E678",
"<X c #D1E471",
"1X c #896685",
"2X c #936D8B",
"3X c #926D85",
"4X c #9A758A",
"5X c #9C7392",
"6X c #9E7891",
"7X c #A17695",
"8X c #A67A99",
"9X c #AA7C9B",
"0X c #A27995",
"qX c #A37F86",
"wX c #E27081",
"eX c #9B9997",
"rX c #8C8A84",
"tX c #AC829C",
"yX c #AE8894",
"uX c #B285A1",
"iX c #BB8EA8",
"pX c #B68AA4",
"aX c #BE93A8",
"sX c #AF82A0",
"dX c #B2AFAC",
"fX c #C195AD",
"gX c #C398A6",
"hX c #D1AAB9",
"jX c #C9A9B3",
"kX c #B4C783",
"lX c #B6C38B",
"zX c #CDD78F",
"xX c #C7EA88",
"cX c #D2EB97",
"vX c #CDD0A6",
"bX c #DCEEA8",
"nX c #EBF1B6",
"mX c #F3EB83",
"MX c #DCBBCA",
"NX c #D0D0CF",
"BX c #F5F4CB",
"VX c #F1F4C9",
"CX c #EDEDED",
/* pixels */
"|.'.).).).).).).).).).).).).).).).).).).).).).).).).).).).).).).).).).).).).).).).).).).).).).).).).).).).).).).).).).).).).).).).",
"[.'.).).).).).).).).).).).).).).).).).).).).).).).).).).).).).).).).).)._.).).).).`.).).).).).`.).).).).).).).).).).).).).).).).).",
"'.`.).).).).).).).`.`.[.[.[.{.{.{.{.}.}.[.'.'.[.'.'.[.'.'.'.[.'.[.'.'.D 2 [.'.'.[.'.[.'.'.'.'.[.'.'.'.'.'.).).).).).).).).).).).).",
"`.).).).).`.`.[.[.{.|.XX|.*XXX*X#X*X*X*XoXXXXX|.XXXXXXXXXXXXXXOXXX|.Y m a OXXXXX|.|.oXoXXXXX|.|.|.|.|.|.}.[.[.'.'.'.'.).).).).).).",
").).).).).'.{.oX:X>X-X#X@X@X(.(.@X@X$X$X$X$X$X%X;X>X>X>X>X].].>XN.P V 9.l :X>X>X>X+XD.>X>X>X;X@X@X%X-X-X;X;X:X*XoXXX|.[.'.).).).).",
").).).).'.oX:X-X%X@X^.~.~.I.P.~.I.~.~.~.~.!.I.^./.%X>X>XD.r i 2 m q.t.9.7.I /.@X#X8 6 ].>X;X/.I.I.E.Y.!.!./.@X@X-X:X:X:XoX'.).).).",
").).).`.{.*X=X(.!.!.I.I.I.P.I.I.R.P.I.I.I.P.P.P.I.^.;X,Xc 9.q.$ q.q.9.9.t., s.I.a.7 c J ,Xf.F I L.I.P.P.I.I.~.^./.%X;X>X:X{.).).).",
").).).'.XX=X(.P.P.P.I.I.E.E.E.E.E.R.R.E.R.a.u.U.I.I.%XoX7 n w 0 # r o.8.q.q.$ p.Z d H - 6 7 R F u.R.R.R.I.I.P.P.P.!.#X,X>X|.'.).).",
").).).'.XX=X/.P.I.E.E.E.E.E.E.E.E.E.E.E.E.c V i.I.P.@X%Xf.S rX+ rXeX[ W N t G M.9 ) h H o c K L G E.E.E.E.E.E.E.I.P.~.@X>XXX[.).).",
").).).'.XX#X/.P.E.E.E.E.E.E.E.E.E.E.E.E.U.& i - K.I.W. XG u dX{ ;.dXdXvXdXA U.R.b.6 ;.C 6 a 1 c 8 E.E.E.E.E.E.E.Y.I.P./.>X*X{.).).",
").).).'.XX=X@XP.R.E.E.E.W.E. X@XE.E.E.E.a., s a y.I 8 D S A [ [ = [ rXrX;.= 8 C P h ;.% eXNXd C I E.E.E.E.E.E.E.E.R.I.^.>X*X[.).).",
").).).'.oX:X@XI.I.E.E.E.E.W.xX<X&XE.W.W.U.8 - 6 P 5 g.v.Z.F.m.g.A.J H H U g... .J u ;.) dXdX8 L.E.E.E.E.E.E.E.E.E.R.I.~.,XoX{.).).",
").).).'.XX,X=X^.L.E.E.E.W.-XnXnXxX&X&XQ.u.G A 3 5 g.A..XF.C.G..XJ 9 A A.D.j.x.x.x.S 5 ) eX[ I P.R.E.E.E.W.E.E.Y.E.R.P.^.-X*X{.).).",
").).).'.XX,X;X@XL.E.E.E.W.&XbXBXnXbXnXX.7.~ - a k.k.x.Z.S..XF.X.; K c H S.A.G.kX.XS.B.S a 5 C C I W.E.E.M.I c k G U.R.~.-X*X{.).).",
").).).`.|.:X;X(.L.R.W.&X,X,XnXBXBXBXBXvXg @.- A j.k.k.x.S.].F.| % h o G .XS.S.kXS.Z.D.S.A.h.J  .2 J.E.a.6 m t.wX} J.I.~.%X*X{.).).",
").).).`.|.,X;X(.L.R.&XcXbXcXnXVXnXnXBXnX.XF a.. p | g.k.x.Z.Z.S + H H A.].F.F.B.D.Z.a 9 A A.Z.j.S y.U.9 d , V t.a R.I.~.$X*X{.).).",
").).).`.|.:X:X@XI I n.vXBXBXnXmX<X<XnXnXcX&XI N o.e J h.h.x.j.A.A.g.8 Z.S.S.F.kXC.0 F r.L  .G.x.A Z P.A = t = V G E.I.Y.$X=X{.).).",
").).).`.XX:X;XY.w w.] i a [ m.F F L J _ | _ - o.*.*.W y S h.j.j.B.kXG.S.A.Z.A.S.n.1 c L L a G.Z.h.@ P P _ [ ) + M.E.I.I.#X=X}.).).",
").).).`.}.:X=XT.e 9XpXiXpX-.w 5 h.S.h.kXC.B.- o.=.7X1X=.y A  .x.j.x.x.A.H..XS.F.].6 @ c c 7 k.F.B.J + a rX2 8 9 E.E.U.I.@X*X}.).).",
").).).`.|.:X-X(.0 N ^ %.2X2X%.= M Y n.n.B.k.J d =.9X9X9X5Xo.d A J j.g.x.x.x..XG.n.;.dX[ X 9 Z.A.A.h.a [ 6 b.R.E.E.E.R.I./.=X{.).).",
").).).`.{.:X-X/.y.= Q d % q / $.` p g.x.n...% + 6 , i y w &.3X=.d a t S ..k.x.A.9 o [ rX2 A.S.S.G.lX... u.R.E.E.E.E.R.I.^.*X}.).).",
").).).'.{.:X-X(.L.G u $.%.o.E e E E j J  .6 + h.F.C.n.h...N 9X7X1X+.=.o.W S x.x.A.B.| 6 - x.Z.A.G.F.Z.4 b.R.E.E.E.M.a.I./.=X}.).).",
").).).'.|.;X;X#XI.L.d.j +.*.*.%.` q j j   # A  .B.F.F.kXn.N 9X9XiXpXtX0X=.Q u S j.x.C.j.| ..g.x.x.Z.A.5 P.I.R.E.M.7 8 P.(.*X}.).).",
").).).'.XX>X>X;X@X/./.l.j ^ *.*.*.*.^ j q f u _ u a j.A.H ^ 5X9XiXfXaXiX9X' f d p 2 ..| j u a h.g.k.k.p s.P.D P 7 8.M J.$X*X}.).).",
").).).'.XX>XxX>X;X#X%X-X+X+ *.*.*.*./ j Q * NX- NXrXu A X @ > ! 1X6XpX9Xi J h.5 W Q s f *.1X^ d = | A 3 N.C 8.$ 4.t.B M.,XoX{.).).",
").).).'.XX:X>X>XxX>X;X#XY.+ *.*.*.E j # =.q eXNXCXNXy E $ e.e.! e W =.] 3 A.S.n. .A u E 2X0X2X1XO.d j p B.r q.$ 8.t.M M.xXXX{.).).",
").).).'.XX:X>XxX;X#X!.~.P.. &.*.+.% o.q 8X$.s ) [ t E E } gXhXhXtX#.t + | Z.kXA.Z.kXD. .y 9X9X5X*.o.5 5 e.a 6 @ r n r A.>XoX'.).).",
").).).'.XX:X>X XT.!.P.P.R.8 ` *.o.j / Q uX2X*.d - { t % yXhXMXMXMXgXe.& 5 g.j.Z..XZ.F. .d 8X9X2X&.u  .a , [ A a rXG ..=XxXoX{.).).",
").).).).{.k.7 7 + C U.R.R.b.o @.&.s g s #.6X4Xw 4X) #.#.gXjXMXMXMXgXyXt d . u - S j.x. .y 9X8X1X' J x.kXH i = ;.6 XX>XxX>X*X{.).).",
").).).). .6 K U < # I E.E.E.T $ ' $.s g g w tXs #.& > e.gXhXhXhXjXyXe.t s ;.CXdXE p  .U s 5X8X*.Q 5 x.G.A.g.p d B.xX>X>X>X*X[.).).",
").).).v.6 9 7 7 M i & M.I Z E.i.3 t * ] 6X# 4Xe = @ . < e.hXMXMXgXqX4X- % ;.NXs rXu * e =.8X5X*./ A x.A.D.C.Z.u vXxX>X>XxX*X{.).).",
").).).C K 7 - < L w > 0 D G E.E.J.D * y w.e N Q $.` w.-.$ { e.gXyXqXe.-.;.+ eXdXNXE ' 5X9X9X1X*.s g.g.h.k.Z.Z.A p :X>X>X>XoX{.).).",
").).).+ O $ M M L M > o C M.R.R.I.a.= y ` W d *.*.1XpXaXaX$.d q < o   # w.@ y % $ e 1X9X9X9X1X1XW p = 6 S J p  .X T N.U h.*X}.).).",
").z.T + i M r M r M > > Z E.R.P.I.(.J X h % o.*.*.2XpXaXaXaXaXaXuX@.. i , y *.*.&.1X9XpXuX9X9X9X5X0.1X0.' ^ ] y 0.! . ..9 oX{.).).",
").T 0 3 $ i e i M w > < O p.R.R.^.>X>X5 -.. s y q s { w.pXaXaXaXsX5X+.f w 7X5X2X7X9X9XfX9X9X7X*.E % e y q s ' =.0XtX@.H 5 A f._.).",
").).Y D   < M > B r < > r 6 P.!.@X>X X* uXw E NXh s +.  * ;.pXiX9X3X=.o.w 9X9X9XfXfXfXiX9X9X+.% Q e E *.*.o.E j * ` 1Xw.2X$.t D ).",
").).v.3 f.A * * r B < M r > y.^.@X;XU ! 9XQ   ) # * & * e.u . ` 5X=.*.' q iX3X= q :.8X9X9X1XW ' 1X*.. $.*.*.*.*.+.E q f =.=.^ J ).",
").)._._.oX:XG X o 7 t V 9 B @ I.@X@X4 0.5XO.# o % = q i $ > q ;.. Q &.Q d iXq ^ $.W #.8X9X7X2X0XuX=.. O.*.*.*.*.*.*.%.' % y 3 z.).",
").).).).*X:X:Xf.@ # , 7 { V & y.W.K.+ 3X2X%.% X . = { # q r q q u ) g y ] 9Xf %.*.5XuX9X7X9XpXiX8X/ % %.*.*./ e y e u 2 4 | _.).).",
").).).'.*XxX>X;XQ.C # r i & X . p.R.G , +.*.O.o.` f %   ;.;.> s j NXh & 6X0X*.*.2XiXiX2X:.2XsX9X+.j :.*.=.=.# M.M.M.J.J.*X*X[.).).",
").).).[.xXxX:X:X;X~.I   y @.=.g @ 5 n.V., y ^ &.*.*.$./ q y * ) * .   %.fX3X&.0.9XpX2X^ X 0.$.&.tX9X9XtX-.= d.I.Y.~.P.^.;X*X[.).).",
").).).[.xX*X>XxX>X(.C O.' #.g q ^ %., eXvXm.F o E O.*.*.&.o.d = , # ^ 9X9X8X1X2X9X=.W . j o.q = o w , . C f.!.~.P.P.~.(.;X*X[.).).",
").).).[.-XxX>X-X;X%X8 4Xy d y f *.O.O.j u t 6 q   # s ^ %.*.&.Q $ N 8XuX9X9X5X5Xo.& * #.h * ! uX=.@.^ = N.%X%X(.^.~./.-XxX*X[.).).",
").).).[.;X>X%X/./.@XY -.3X2X6X% f o :.$.-.&.O.e & , , * % E o.*.*.7X9X9X8Xo.^ 1X2X1X7XuX9X&.tXaXuXw.! :.4 z.;X,X;X-X;X>X:XXX[.).).",
").).).[.xX-X/.~.P.P.p.~ iX9X7X^     q %.*.*.W s $.W d &.#.s . d O.7X9X9X9X> j / 1X8X2X%.o.s 2XuX9XuX! ! W 4 Z A Y ;X>X>X>X|.'.).).",
").).).[.-X#X~.L.R.I.L.Z ~ 2X^ * ^ & O s *.*.j O.1X8X9XuXuXuX8XO.r o e ^ Q . W %.*.2X7Xe   s ! ! o.O.4X] g d w.0.N p XXxX>X*X[.).).",
").).).[.xX(.~.~.E.R.I.J.C ] 5X3X*.$ n O s f o O.2X9XaXfXtXuXfXiXpX6XO.N g #.*.*.*.*.-.e G P G F % / t 3X:.0XiX2X5XW A |.xXXX[.).).",
").).).'.-X/.~.~.E.E.R.P.s.t #.g # l l 2.O C C * ` =.5X9X#.w.aXaXiXfXuX9X9X7X*.*.*.*.q A.&XE.E.E.u.+ E &.9XiXuX8X3XO.f D ;XXX[.).).",
").).).[.-X/.~.~.~.!.E.R.R.i.D R N.@ 4.m : . I ; O = f ` +.w.1X2X5X5X5X5X2X1X-.&.&.&.# zX&XE.E.E.E.i.. Q 9XpX5X=.# ' ' 4 #XXX[.).).",
").).).[.xX/.~.~.^.!.E.E.R.P.!.%X;Xv.o r B + T b 5.1.b l ; O % * e y d g s e & $ $ q h bX>X&XE.E.E.a.& %.1X5Xw.# ' O.+ y./.}.[.).).",
").).).[.:X(.~.~.E.E.E.E.R.P.~.^.#Xl.> i @ D.Q.$ v 1.5.5.5.3.,.>.z z k k b v <.1.<.x ; lXbX>XW.E.E.P Q @.' 3Xd ' %.' 8 I./.|.[.).).",
").).).[.:X#X~.~.R.E.E.E.^.~.~.P.I.E.G G ].>X>XN.8 X ; : k v v ,.1.6.6.5.5.5.5.5.5.<.; vXBXcXW.E.E.I e :.. f &.' # 2 p.~./.}.[.).).",
").).).'.=X=X^.L.E.E.E.E.E.E.R.R.P.P.~.(.%X>XxX;XP   k z l ; O O O : z <.1.3.3.6.6.<.o bXcX<XE.E.E.I.I + 0 . Q o.+ K.R.I.^.|.[.).).",
").).).[.*X-X/.L.R.E.E.E.E.E.E.R.R.I.P.P./.%X;Xf.O k O : v >.>.>.x k : ; O ; l k k O ;.cX;XW.E.R.E.I.^. XW.s.Z @ u.E.I.I./.}.[.).).",
").).).'.*X=X/.L.R.E.E.E.E.E.E.E.E.R.P.P.I./.=X5 O >.>.:   ; l z v >.>.>.>.z X 2 X.vXVXcX&XE.E.E.R.I./.%XI.P.Y.E.R.E.R.~./.}.[.).).",
").).).[.*XxX(.~.R.R.E.E.E.E.E.E.E.E.R.I.P.P.f.w g O k ; 0 I G 0 - @ O O ; O ; _ bXbXnXcX&XE.E.E.I.I./.%XP.P.!.E.E.E.R.~.!.@X[.).).",
").).).'.*X>X@X~.P.R.R.E.E.R.E.E.E.E.E.R.R.L.G g , 0 T a.U.E.E.R.R.K.P l v >.k H cXxXxX$X/.E.E.E.I.~.(.%XP.P.I.^.E.E.R.I.^.|.}.).).",
").).).'.*X;X-X@XP.P.P.P.R.R.R.R.P.~.R.P.P.L.f.8 P J.R.R.E.E.I.I.P.R.b.@ z x : G %X>X-X/.E.R.I.I.P.!.#X-XP.P.P.L.R.R.I.I.(.|.[.).).",
").).).'.{.:X:X-X(./.~.~.P.P.P.P.P.P.P.P.P.~.$X;X$X~.P.P.I.I.P.P.P.I.P.i.X , X y.@X>X;X!.I.P.I.I.^.#X;X;X/.!.~.~.P.P.P.~.@X}.[.).).",
").).).).'.*X*XxX>X%X@X/.^.!.~.^.^.^.!.!.^.(.;X>X;X(.!.~.~.I.^./.E.E.~.J.0 ' o a.#X>X>X@X!.~.!./.-X>X>X>X-X@X@X!.^.~.^./.=X}.'.).).",
").).).).).[.|.:X>X>X>X,X;X-X%X-X:X>X;X;X;X>X>X>X>X>X-X#X#X%X,X>X>X;X-X/.I * 0 Y.-XxX;X>X-X-X-X:X>X:X>X>XxX;X>X>X;X:X;X*XoX[.).).).",
").).).).).`.`.[.[.[.}.{.}.[.'.'.[.{.{.{.|.|.*X}.|.XX*X*X=X:X:X:X:X:X:X:X[.T N.-X*XxX*X*X*X|.*X*X*X*X*X*XXX*X*X|.XXXX|.[.[.).).).).",
").).).).).).).).).).).).).).).).).).`.'.[.'.[.'.'.'.[.}.{.|.{.}.}.}.}.}.}.}.}.|.|.{.{.[.'.'.[.[.'.[.'.'.[.[.[.[.[.[.`.`.).).).).).",
").).).).).).).).).).).).).).).).).).).).).).).).).).).).).).).).).'.).).).).).).).).).).).).).).).).).).).).).).).).).).).).).).).",
").).).).).).).).).).).).).).).).).).).).).).).).).).).).).).).).).).).).).).).).).).).).).).).).).).).).).).).).).).).).).).).).)."
};
