/* XPM */
static char *_c80i_4de5e[] = {
/* columns rows colors chars-per-pixel */
"65 65 66 1 ",
"  c #BF558D",
". c #C2578E",
"X c #CF6395",
"o c #D2649B",
"O c #D26B9E",
"+ c #DD699D",
"@ c #CD729E",
"# c #E66D9E",
"$ c #E86F9D",
"% c #EA729F",
"& c #D86BA0",
"* c #DF75A5",
"= c #D47EA7",
"- c #DD7AA9",
"; c #E56CA0",
": c #E275A4",
"> c #ED74A0",
", c #ED7BA5",
"< c #E57FAA",
"1 c #EA7DA9",
"2 c #F07EA6",
"3 c #DE8AAE",
"4 c #DD90B3",
"5 c #E386AC",
"6 c #EE83AB",
"7 c #E488AD",
"8 c #EB88AF",
"9 c #F180A7",
"0 c #F186AB",
"q c #F389AD",
"w c #E087B0",
"e c #EA86B0",
"r c #E48BB3",
"t c #ED8CB2",
"y c #F28DB0",
"u c #E393B5",
"i c #EF92B5",
"p c #ED99B7",
"a c #E695B9",
"s c #E997B9",
"d c #E599BA",
"f c #EC9BBC",
"g c #F395B5",
"h c #F498B7",
"j c #F898B5",
"k c #F49AB9",
"l c #F89DB9",
"z c #F5A2BE",
"x c #FCA5BD",
"c c #FDA8BF",
"v c #EEA6C3",
"b c #EDA9C4",
"n c #F3A4C1",
"m c #FAA7C0",
"M c #F4ABC5",
"N c #FCACC3",
"B c #F5AFC8",
"V c #FDB1C7",
"C c #F6B3CA",
"Z c #FBB5CA",
"A c #FDBDCE",
"S c #F5BCD0",
"D c #FCBED0",
"F c #FDC3D3",
"G c #FEC8D7",
"H c #FECCDA",
/* pixels */
"$$$$$%$$%>>>>>>>%%>>>>>>>>>>>>>$$$$$$%%%>>>>>>,>>>>>>>>>>>>>>>>>>",
"$$#6ppgphg6,ghhhg29hlhkkkkhlhht$$#8igihhg62ghhig,6khhhlkkhkkhe>>>",
"$$;nHHHHHGyqFHHHZ8hGHHHHHHHHHHz$$;nHHHHHFytDHHHD0kGHHHHHHHHHHz#>>",
"$6nSHGGHGDt8FHHHS6iHHHGFFFGFFFN$6nSHGGHHDyeDHHHD1iHHHGFFFGFFFMq1>",
"$gHHHFFGFZstCFHHA<tGHFFADDDFDZV$pHHHGFGFZptCDHHD1tGGGFAAAAFDAVxq>",
"$iHGFGGFDDDbekFGC1tFFFFADDDGFZm$gHGFGGFFZSMefFGCetAFFFDAFAFFVNxq>",
"%gHHGGFFDDGC*tFbs8kZAAFFAFFVNNN%iGHFFFAADHC*tGbfekDAAFFAFFNMNmx0%",
">gHHGFAADDGC-uSr-hVAFAFFDFZiyNN%hHHHFFAADHC-rS3*hNDDAFDFFZggmmx02",
">hHHGFAADDFAvu33gNZFAZdfFM7fxVc>hHHHFAAAFFAvu33icAFACfdFvrkcVccq%",
">lHHHFAFDDDFHd.3cAFAFB73bu-zZVV>gHHHFAAAAAFHd.5xZAAACr3bu-nZVNx0%",
">hHHGFAADDADGfoqcAAAAAcu@3zVAVV%lHHHFAAFAAFFf+gNZFAAZBu@3MNZZVxq%",
">hHGFFAZZZZVzg0jcVAFAAZpX3VAVAV%gHHGFAZZAZVzi0jNVAFAFZpX7ZZZAVx9%",
">gSAAAZVNNml6qzccVVZAZVg#8VVZVx%ySDAAZVNccj6yzcmcAAAAVj#8VAZNxl9%",
">,tlNmNmmxjqtlcccccVNNcj>8cVNcj%,tlmNmmmzjqgjccmccccccj%qccccj1%$",
">>#6jjjjjj92gjjjjjjjjjjq%9jjjj62>#6jjjjjj92qjjjjjjjjjjy>qjjgj6##$",
">>$,222222>>222,22222922229,,,%%>>,,2922,%2222222229292%,9,,,%##$",
">>>>>>>>>>>>>>>>>$>$$$%>%%>%%%%%>>>>>>>>>>>>>>>>%%%$%%%%%%%%%%>%%",
"000t0,,00t00>>>>>$$$,666q8qqqqq80000,,0q002,%%>%%$%%666qqq080008q",
"ZZZZM00BZZVn,>;>>>#;gCCCZZZVZZCZZZCB2yBZZZm,%#%%$$#iCCCCZZZZZZZZZ",
"HHHHFzkMDHGSg01>$$>eBHGGHHFFGHHHHHHFzkMSHHZgq1,>%,8BHGHHHGHGHHHHH",
"HHHHHFMtvFFDVcl9>%tSGGGGGFFFFHHGHHHHFMenFDDVcj9%$8AGHGFHFFFFHGHHG",
"GFGFFFZnfuCFZVxq%$gHGGGGFFFFFFFFGGDGFSnfaSFZNxq>$hHGFGGGFAAFGGGGF",
"DDDDDDFGuOdVVcx0>%gHGFGFFAFAFFAFDDDDDFGaOaCVcc0>%pHGFGGDAAADDDDDF",
"DDDDFGHH4 &5zcx0>%iHHGGDAAAAAAAADDDDGHH4 Oezcc0>%hHHGGAAAFDAADADA",
"DDDDDCMv=.&<tgg2>>gHHHFAAAAAFAAFDDFDBMv-.O5tgy2%%jHHGFAAAAAAFAAFA",
"DDDGFt:&ooeg1,2%>>kHHHFFFAAFAAAADDGDi:&oo8g,,22>%zHHGFAAFAAAAAAAA",
"AADFFMt#:ekmlgq2%>gHHHFAAFAAAAAADDDDMt&:8kxlgy2%%jHHHFAFAFAFAFAAF",
"AADADDM18kmVZNx9$>gHHFFAAAZAAAAADDDDDM16gNVZmx9%%jHGGFAAZAZAZZAAA",
"NZDAAZNz01nZZVz0%%iHGFDAVVVVVVVVZDDAZNlt<zZVNx6>%kHGFFAAVAVVcZVVV",
"NNVVZNmcy>lVNlt,%%0nBZVVccccNNNcNVVVVNNy>kVVlt,$%qzZVVcccccccVccc",
"ccccccxxq,gxcq##%%>;yccxcxxxxxxxmmxxxxmq,jxxy#$$%%#ixxxxxxxxxxccx",
"qqq0qq00,>,00,$$$>>$2qqqqqqqqqqqqqqqq002>,66,$$%%%%,qqqqqqqqqqqqq",
">>>>>>%$$$$%%;#>>>>,>>>>>>>>%%%%>>>>>>$$>$$$$$$$>>>>>>>>>>>>>>>>>",
"$##6gphhgg6,ghpkg,1hkhhhkklhll8$$$8ikghii61gkkkg21khhhkkkhkkk0;>>",
"$#;nHHHHHGyyDHHHZ8hHHHHHHHHHHGz$$;nGHHHHFytDGHHS0kGHHHHHHHHHHz;>>",
"$6nDHGGHGZteFHHHS1iHHHFFFFFFFFN$6nSHGGHGDyeDHHHD1iHHHGFFFGFFFMy,>",
"$iGHHFFHGZpiCDHHZ<tHGGFADDDFFZV%gHHHFFHFZiyCFHHS1tGGGFAAAAFDZVmq>",
"$pHGFGGFFZSMekFGZ6tDFFAFDDAFFVN%pHGFGGFFSSMekFFC6tDDFFDDFAFFZNxq>",
"%sHGFGFDDFGC*tFvstkSADFFAFFBNVc%gGHFFFDDDHB*iFMdtkDAAFFAFFVMNmx0>",
">hHHGFDDADGC-uSr:hNDDDDDFGZgycc>gHHHFFAADGC-uS3*iVDDDFDDFZgymcxq%",
">lHHHFFAADFAvu=5gMZFAZsfDvrfxNc>hHHHFAAAFFAvu33icAAACddFvrkcNNxq,",
"%gHHHFADAAAFHd.5mAAAAZw3bu-zZVV>gHHHFAAAAAFHd.5cZAFAC74zu-nZZNx0%",
">hHHGFDAAADDGp+gmAAAAAMu@3MVZZV>hHHHFAAFAAFFf+gmZFFAAMu@3MNZAVxq%",
">gHGFFAZAZZBnp8jNZAAAAApX7ZZZAV%hHHGFAZZAZVzi0jNVAAAFZsX7ZZZVVx9%",
">tDAAAZVNNmj8qzcNVVAAZVh$tNZZVc>gSDDZZVNccj6yzcNcVAAZVj#8VZZVxl,%",
">,tlNNNccxjqyjxccccNmNNj>qmNNcg>,elNNNmmxgqgjcmmccVcNcj,ycNccj1%$",
">>#9jjjjjj22jjjjjjjjjjjq20jjjj6>>#6jjjjjj92qjjjjjjjjjjq2qjjjj6##$",
">>%2222922>>222222222222>>,,,,>>>>>22292,%2222222229292>%9,,,%#$$",
">%>>>>>>>>>>>>>>>%%%%%%%%%>%>>%%>>>>>>>>>>>>>>>>%%%%%%%%%%%%%%%>%",
"80q06,,000q2,>>>%$$$,666qqqqq880qqq1,,00qq2,%%>%%$%%666qqq080008q",
"ZZZZMqqVZZCM,>;;%%##iCCCZCZZZZZZZCZB00BCZZm,$$$>$##iCCCCZZZZZZZZZ",
"HHHHFzkMDHGZg01>%$,tMHHGHHGHHHHHHHHFzkMDHGZg01,%$,8BHGHHHGGHHHHHH",
"HHHHHFMevFFDVml2%%tSGHFGHGFAFHHHHHHHFMenFDDBcj9>%8AGHGFHFFFFHGHHH",
"GGFFGFSnssCFZVmq%$gHHFGGGFAFFFFFGGDGFSvfdSFZNxq>$hHGFGGGFAAFGGGGF",
"DDDFDFFGaOdCNmx0>%gHGFGFADAAAAAADDDDDFFaOdCVmcq>%pHGFGGAFAAADDDDA",
"DDDAFFHH4 &ezxxq>%hHHGFFAAADAFAFDDDDGHH4 &ezcc0>%hHHGFFAAADAADADA",
"ADDFDCMv- O5yyg2>>lHHHFAAFAAAAFADDFDBMv-.&5tyj9>%jHHFFAAAFAFAAFAF",
"DADGDt:&oo7g,>,,%>gHHHFAAAAFFAAADDGDi:&oo7g,>2>>%zHHGFFAAAAAAAAAA",
"AADDFMt+*tlxkky2%%lHHHFAAAAAAAFADDDDMt&:8lclgy2%%jHHHFFAAFAAAAAFA",
"AADDDFM16iNVVVl0%%gHHHFAAAAAAZAZDDDDDM16gNVZNz9>%jHGGFAAAZAAAAZAA",
"NZFAAZNxt1mZVNm0%%hHFFFAcAVVVVVVZDDAZNzy<zZVNx6$%kHGFFAVVVVVcAVVV",
"mVVZVNNmy>lVNly,%%8nVVVVccccmmNNNVVVVNmy>kZNlt,$%qzZVVVcNcccccccc",
"xcccccxxq,jczy##%%$$qcxxxxcccxxcmcxxxxxy,jxxy#$>%>#ixxxxcxxxxxccx",
"0q00q000,%109,#$%%%$9qqqqqqqq00qqqqqq00,>,66,$$$%%%,qqqqqqqqqqqq9",
">>>>>>>$$$$$$$$$$>>>>>>>>>>>>>>>>>>>>%$$$$$$$$$%>>>>>>>%>>>>>>>>>"
};
