/* XPM */
static char *result[] = {
/* columns rows colors chars-per-pixel */
"65 65 108 2 ",
"   c #2E2A2A",
".  c #DE3131",
"X  c #ED4242",
"o  c #ECDC0F",
"O  c #EDDE1C",
"+  c #FFDE21",
"@  c #EFE23B",
"#  c #96DC45",
"$  c #99DC47",
"%  c #9CDD4A",
"&  c #9EDF50",
"*  c #A2DC4E",
"=  c #A6DC51",
"-  c #A9DD55",
";  c #ACDE5B",
":  c #9DE04F",
">  c #9FE051",
",  c #A1E155",
"<  c #A5E35B",
"1  c #A9E35E",
"2  c #8DCB66",
"3  c #90CD67",
"4  c #92CE68",
"5  c #94D167",
"6  c #95D16A",
"7  c #9BD56D",
"8  c #9FD96E",
"9  c #AFDF60",
"0  c #A1DA6D",
"q  c #B0DF62",
"w  c #A4DB71",
"e  c #AADE74",
"r  c #ACE564",
"t  c #AEE669",
"y  c #B2E064",
"u  c #B2E56B",
"i  c #B8E26E",
"p  c #B3E86D",
"a  c #ADE174",
"s  c #B2E674",
"d  c #BCE374",
"f  c #B6E972",
"g  c #B9EA76",
"h  c #B5E67A",
"j  c #BFE67A",
"k  c #B7E87B",
"l  c #BDEC7D",
"z  c #EFE341",
"x  c #F0E344",
"c  c #F0E44D",
"v  c #F0E555",
"b  c #F1E658",
"n  c #C2E57D",
"m  c #C0E97E",
"M  c #F1E762",
"N  c #F2E86C",
"B  c #F3EB7C",
"V  c #CF4A91",
"C  c #DE62AE",
"Z  c #E66AB2",
"A  c #ED72B4",
"S  c #F57AB8",
"D  c #2FC4C4",
"F  c #38D1C7",
"G  c #53E6C3",
"H  c #6EFFD3",
"J  c #FF8CBE",
"K  c #FF98BC",
"L  c #C5E683",
"P  c #C8E787",
"I  c #C4EC84",
"U  c #CAE789",
"Y  c #CBEA8D",
"T  c #CEEA92",
"R  c #D1EA96",
"E  c #D5EC9C",
"W  c #D2F09A",
"Q  c #F3EB82",
"!  c #F4ED8B",
"~  c #F3ED92",
"^  c #F4EF9C",
"/  c #D7EFA1",
"(  c #DAEDA3",
")  c #DEEEAA",
"_  c #DAF0A6",
"`  c #DFF2AE",
"'  c #E1EFAE",
"]  c #F1EFA5",
"[  c #E0F1AF",
"{  c #F4F0A4",
"}  c #F5F1AB",
"|  c #E4EFB1",
" . c #E5F1B5",
".. c #E7F1B9",
"X. c #EAF2BC",
"o. c #F4F2B4",
"O. c #F4F2BA",
"+. c #FABED4",
"@. c #8CFFD7",
"#. c #ADFFDD",
"$. c #EEF4C3",
"%. c #F4F4C3",
"&. c #F4F5CD",
"*. c #F8F5CE",
"=. c #F7F6D0",
"-. c #F8F6D3",
";. c #D1FFEC",
":. c #EAEAEA",
/* pixels */
"0 4 2 2 2 2 2 2 2 2 2 2 2 2 2 2 2 2 2 2 2 2 2 2 2 2 2 2 2 2 2 2 2 2 2 2 2 2 2 2 2 2 2 2 2 2 2 2 2 2 2 2 2 2 2 2 2 2 2 2 2 2 2 2 2 ",
"6 4 2 2 2 2 2 2 2 2 2 3 2 2 2 2 2 2 2 2 2 2 2 2 2 2 2 2 2 2 2 2 2 2 2 2 2 2 2 2 2 2 2 2 2 2 2 2 2 2 2 2 2 2 2 2 2 2 2 2 2 2 2 2 2 ",
"4 2 2 2 2 2 2 2 2 3 4 6 7 7 6 7 7 7 7 7 6 7 6 6 4 6 6 6 6 6 6 7 6 6 6 6 4 6 4 6 6 6 5 5 6 6 6 6 6 6 6 6 3 2 2 2 2 2 2 2 2 2 2 2 2 ",
"3 3 2 2 2 3 3 6 4 7 8 w 0 0 a a a a a a 0 0 0 0 0 w w w 8 w w w 8 w w 8 w 8 w w w w w w w 8 8 8 8 8 8 8 7 7 4 4 4 4 4 2 2 2 2 2 2 ",
"2 2 2 2 2 4 7 e h k f u r r < 1 r t t p t t t s g l l l l l l l l g g k g g l l l l l l l l f r r p s f f g h a e w 7 7 3 2 2 2 2 ",
"2 2 2 2 4 e h s t r < % : : : % % % : % : : > = 1 p l l l l f r r , , & , < < r p g l I l s r $ % : > , > < 1 t s k k s e 4 2 2 2 ",
"2 2 2 3 7 s s 1 < & % % % $ % $ % % % $ $ $ % $ % < g l g 1 , > $ $ % % $ $ $ > > 1 p g l u = $ $ $ % $ $ % : , r t g l k 7 2 2 2 ",
"2 2 2 4 w s 1 # % # % % = * = = * = = * = = * * $ $ p g t # # $ $ % % * % % $ % # : : r g r % % = % * * * % $ $ $ & t g l 0 4 2 2 ",
"2 2 2 4 w u < # % = = = = = = = = = = = = = = = * : r u 1 # * = = = = = = = = = * % $ % u r $ % = = = = = = * * % $ & r k w 6 3 2 ",
"2 2 2 4 w s < $ * = = = = = = = = = = = = = = = * : 1 t < # * = = = = = = = = = = * % # r r & % = = = = = = = = = % % < l e 7 2 2 ",
"2 2 2 4 w s r # * = = = = = q q - = = = = = = = $ $ < u 1 $ F F F F F F F F F F F F F F F F F F F = = = V V V V V = $ & l e 6 2 2 ",
"2 2 3 4 w k r % % * = = - ; L L q = - - - = = = * $ > u 1 # F F F F F F F F F F F F F F F F F F F = = = V V V V V % % & k e 7 2 2 ",
"2 2 2 4 w k u , $ * = - - d | X.U 9 q i ; = = = = * # t u % F F F F F F F F F F F F F F F F F F F = = = V V V V V = % : g a 7 2 2 ",
"2 2 2 4 w k g r # * = - - q | =.$.( X.| Y = = = = * : F F F ;.;.#.#.#.#.#.@.@.@.@.@.@.@.@.@.@.@.@.F F F Z Z V V V = $ , f a 7 2 2 ",
"2 2 2 4 0 h j 1 # * 9 q d d | -.-.$.*.X.R = = = * # : F F F ;.;.#.#.#.#.#.@.@.@.@.@.@.@.@.@.@.@.@.F F F Z Z V V V = % : p a 7 2 2 ",
"2 2 2 3 8 h g r # * q T ( E X.O.{ O.*.o.U = = * $ F F ;.;.;.#.#.@.@.H H H H H H H H H H H H H H H @.@.@.F F = = - * % : u a 7 2 2 ",
"2 2 2 4 8 k k r # * L X.-.*.O.Q b ! %. .U q = % # F F ;.;.;.#.#.@.@.H H H H H H H H H H H H H H H @.@.@.F F = = = = $ : u a 7 2 2 ",
"2 2 2 4 8 k f 1 # * L X.-.-.~ z o @ } -.X.Y - $ : F F ;.;.;.#.#.@.@.H H H H H H H H H H H H H H H @.@.@.F F = = = = * % u s 7 2 2 ",
"2 2 2 4 8 h f < # * y U  .&.^ c O x } -.$.) - # # # $ D D D D D D D D D D D D D D D D D F F F H H H H H @.@.F F F = * % r a 7 2 2 ",
"2 2 2 2 8 h p < $ * - y Y %.O.! N ! o.$. .R & % $ $ * D D D D D D D D D D D D D D D D D F F F H H H H H @.@.F F F = * $ < u 8 2 2 ",
"2 2 2 3 7 h s < $ * = ; n $.*.%.%.*..._ Y k : % * = = = = = = - L | *.=.] B M o.X.) C C D D D F F H H H @.@.F F F = = % , t 8 2 2 ",
"2 2 2 3 7 k f < # * * y Y &.=.&.&.=...W g > % $ = = = = = = = - Y &.*.$.&.-.-.-.( d C C D D D F F H H H @.@.F F F = % % < a 8 2 2 ",
"2 2 2 3 w k g u : # % i [ &.[ E _ *.$.W f , % % = = = = = = = = i T Y E $.&.&.C C C A A V V V D D H H H @.@.F F F = % % 1 a 7 2 2 ",
"2 2 2 4 w g l g r , < g E ) n i j E R I p < $ % = = = = = = = = ; q q T X.$.) C C C A A V V V D D H H H @.@.F F F * $ % t a 7 2 2 ",
"2 2 2 4 w k l l l f p g m n ; = - i y u u 1 : * * = = = = = = = = = - n E ) T C C C A A V V V D D H H H @.@.F F F % : , g a 7 2 2 ",
"2 2 2 4 w k I l l l g t , * = = * - * - 1 p : # * * = = = = = = = = = ; q C C K K K V V * = = D D H H H @.@.F F F % > t l a 7 2 2 ",
"2 2 2 4 a h l l l r > : # * = = = = - * > r > : * = = = = = = = = = = = - C C K K K V V * = = D D H H H @.@.F F F f g l l a 6 2 2 ",
"2 2 2 3 w k I g r : : # * = = = = = * $ : p 1 : $ = = = = = = = = = C C C K K V V V % = = = - D D H H H @.@.F F F k l l l a 6 2 2 ",
"2 2 2 3 w k l f : : * * * * = = = = * % , g p , $ = = = = = = = = = C C C K K V V V % = = = - D D H H H @.@.F F F I l I l a 6 2 2 ",
"2 2 2 4 8 k g r # $ * = = = = = = = $ % r m l 1 $ * = = = = = = = = C C C K K V V V = = = = ; D D H H H @.@.F F F I l l I a 7 2 2 ",
"2 2 2 3 w k k r # * * = = = = = * * # , p m m 1 :           = = C C S S S V V 1 % % = = = ; i D D H H H #.#.F F F Y I l I a 6 2 2 ",
"2 2 2 4 w k s 1 # * * = = = = = * $ % r l l g t >           = = C C S S S V V < % & = = - L | D D H H H #.#.F F F l k l l a 7 2 2 ",
"2 2 2 4 0 k f 1 # * = = = = * * : : 1 p g p       :.:.      C C A A V V V < k > % * * - - U X.D D @.@.@.#.#.F F F y u l m a 7 3 2 ",
"2 2 2 4 0 g g t # * = = = = * % : r g m p <       :.:.      C C A A V V V = s > % * - * - d R D D @.@.@.#.#.F F F * 1 g l a 7 2 2 ",
"2 2 2 2 8 k l p # $ * = = = * $ , g m f     +.+.+.    :.:.:.    V V = * $ : r , % * - * * - - D D #.#.#.;.;.F F F $ > t l e 6 2 2 ",
"2 2 2 4 8 k l f $ $ * = - = * % 1 m m f     +.+.+.    :.:.:.    V V = = * : < r % * * - = = - D D #.#.#.;.;.F F F * % 1 l a 7 2 2 ",
"2 2 2 4 7 k l f $ $ * = = = * > r m m T     +.+.+.    :.:.:.    V V * * % : , u > $ % * = = = D D #.#.#.;.;.F F F * % , l e 6 3 2 ",
"2 2 2 4 a l l f # * * = = = * > r r m [     :.:.:.:.:.:.:.:.:.:.X X . . . % < f 1 : $ % % % % D D ;.;.;.F F i q - * % > k a 6 2 2 ",
"2 2 2 4 a l m g : $ * = = = $ > ; - y W     :.:.:.:.:.:.:.:.:.:.X X . . . : r l s < : # $ $ # D D ;.;.;.F F = = = * % > p a 6 3 2 ",
"2 2 2 6 k l m g 1 # * * = = $ $ = = y R     :.:.:.+ + :.:.:.    . . J J J . . l p 1 < r r < > % $ D D D # $ * * = = $ : s w 6 3 2 ",
"2 2 2 6 h l l l g > : $ * * # * 9 m ( X.    :.:.:.+ + :.:.:.    . . J J J . . t , & % < < r 1 r 1 D D D > : : : * * : : g w 7 2 2 ",
"2 2 2 6 k I I l l 1 : # % $ > , y W $.&.    :.:.:.+ + :.:.:.    . . J J J . . , $ $ # % > = > r 1 D D D 1 1 : : $ # : 1 g a 6 2 2 ",
"2 2 2 6 k l l k g p < $ $ : 1 1 9 T ]  .C C       :.:.:.:.:.+.+.    . . . X X % % = % $ $ $ $ # : # : % r f p 1 , : < p l w 6 2 2 ",
"2 2 2 6 l l p < , r r t u p g t * < y m C C       :.:.:.:.:.+.+.    . . . X X % * = = = = * * * # # # # : 1 f m g f g m l w 6 2 2 ",
"2 2 3 6 k g r : $ : % < p k g 1 $ C C C A Z V V V               $ : , : % < p < - = = = = = = * * * * * : : < g m l l I I w 7 2 2 ",
"2 2 2 6 l t > # % $ $ % r g f 1 # C C C Z Z V V V               : : $ $ % y T j r = = = = = = = = = = = % # * f m l l l l w 6 2 2 ",
"2 2 3 6 g r : $ = * * $ $ u f V V Z Z Z V V - = * = % # $ # # > : : $ * = n  ._ j u i q - = = = = = = = = : > p l l g l l w 6 2 2 ",
"2 2 3 6 k r % % = = = % # < f V V Z Z Z V V % # # # # # # # # % # # % * 1 L *.%.E E | E q - = = = = = = > : > t g t t s l w 6 2 2 ",
"2 2 2 6 k r % % - = = * % % t V V Z Z Z V V : # : : : # # # # $ % % = = - L %.*.$.$.%.R q = = = = = = = * # , t * : : > y 0 7 2 2 ",
"2 2 2 6 k < : $ = = F F F F F V V V V V y r r r < < : # $ $ $ $ % = = = - d  .%.} o.%.( n q = = = = * * # : , 1 : $ $ : < 0 5 2 2 ",
"2 2 2 6 h r % % = = F F F F F V V V V V m l l l p , # # % * * = = = = q d T ' ~ N Q O. .' n - = = * * # > < 1 * # * $ % , 8 6 2 2 ",
"2 2 2 6 h t = % = = F F G G G F F < u g m m l l r # : % = = = = = = - U | *.%.M O z ] *.%.R ; = = * # : r t , $ # * * $ , 8 6 2 2 ",
"2 2 2 6 a s < # * = F F G G G F F $ * < p m l g 1 : * * = = = = = = - E X.&.%.B @ v ] ' E d - = = * * < r , $ $ * = * $ < 8 6 2 2 ",
"2 2 2 6 a f 1 # * = F F G G G F F $ # : , u l g < # * = = = = = = = = d L R | o.] { O.E d ; = = * $ > u , : $ * * * * : , 0 6 2 2 ",
"2 2 2 4 a g r # * = = = F F F F F * $ # : < g g < # * = = = = = = = = - ; j ) -.$.$.$.E y = = = * $ , p > $ * = = = * $ , 0 6 2 2 ",
"2 2 2 4 a k r % * * = = F F F F F = * * # : p g 1 # * = = = = = = = = = = i ( $.` ` ..T y = = - * $ < f : # * * = = * : , 0 7 2 2 ",
"2 2 2 4 a l t % $ % = = = = = = = = = * % # p f r # & = = = = = = = = = = ; n ) T I U i - = * * : : 1 p $ $ % = = = * % , 0 7 3 2 ",
"2 2 2 4 e k f r % $ $ $ % * * * * % % % $ # r f r # % = = = % % % * % & = - ; r f l g < * * * % # , t s $ # # # * * $ : 1 0 5 2 2 ",
"2 2 2 4 8 h k f r < % $ $ $ $ $ $ $ $ $ $ * p l t % $ $ % $ % $ $ % % % % * * % t g f , * $ $ % , r g g 1 > % : $ # $ : t 0 5 2 2 ",
"2 2 2 3 6 w k l l p t < , > & > , , & , , 1 g l f r & & % % & < = = % % $ % % % p l g r , : , , p l l l p t r 1 , > , < s 7 3 2 2 ",
"2 2 2 2 2 4 w h k l l l g f s f l g g f g k l l l k f t t u g l l g p < % # $ < g l l k s g g k l l l l l l l l g f k s w 4 2 2 2 ",
"2 2 2 2 2 3 3 4 7 6 7 6 6 6 5 5 6 6 7 8 w w w 8 w w e a s s k k h h h s t e t f h h h a a 0 a w a a a w e w e w w w 8 6 5 2 2 2 2 ",
"2 2 2 2 2 2 2 2 2 2 2 2 2 2 2 2 2 2 3 4 4 6 4 6 6 6 6 7 8 7 7 8 8 8 7 7 7 7 7 8 8 8 7 5 4 5 6 6 6 6 6 6 6 6 6 6 6 6 4 2 2 2 2 2 2 ",
"2 2 2 2 2 2 2 2 2 2 2 2 2 2 2 2 2 2 2 2 2 2 2 2 2 2 2 2 2 2 2 2 2 2 2 2 2 2 2 2 2 2 2 2 2 2 2 2 2 2 2 2 2 2 2 2 2 3 2 2 2 2 2 2 2 ",
"2 2 2 2 2 2 2 2 2 2 2 2 2 2 2 2 2 2 2 2 2 2 2 2 2 2 2 2 2 2 2 2 2 2 2 2 2 2 2 2 2 2 2 2 2 2 2 2 2 2 2 2 2 2 2 2 2 2 2 2 2 2 2 2 2 "
};
